<svg width="20" height="20" viewBox="0 0 20 20" fill="none" xmlns="http://www.w3.org/2000/svg">
<path d="M9.11997 16.7527L4.85333 14.1487C4.59078 13.9856 4.37443 13.7579 4.22503 13.4873C4.07562 13.2167 3.99815 12.9124 3.99997 12.6033V7.39665C3.99839 7.08778 4.07586 6.78367 4.22499 6.51319C4.37411 6.2427 4.58995 6.01485 4.85198 5.85132L9.11862 3.25134C9.38347 3.0876 9.68859 3.00058 9.99997 3C10.3112 2.99991 10.6163 3.08625 10.8813 3.24935L15.148 5.84933C15.4108 6.01323 15.6272 6.24191 15.7764 6.51343C15.9256 6.78495 16.0026 7.09019 16 7.39999V12.606C16.0017 12.915 15.9242 13.2193 15.775 13.4898C15.6257 13.7603 15.4096 13.9881 15.1473 14.1513L10.8806 16.7553C10.6151 16.9161 10.3104 17.0008 9.99997 17C9.6895 16.9999 9.38505 16.9143 9.11997 16.7527ZM9.81597 4.38533L5.54929 6.98535C5.482 7.02969 5.42709 7.09034 5.38966 7.1617C5.35223 7.23306 5.33352 7.31279 5.3353 7.39335V12.6C5.33349 12.6803 5.3521 12.7597 5.38941 12.8309C5.42673 12.902 5.48153 12.9625 5.54863 13.0067L9.33331 15.32V10.2793C9.33407 10.0665 9.39232 9.8578 9.50193 9.67527C9.61153 9.49281 9.76843 9.34334 9.95599 9.24267L14.2973 6.894L10.1867 4.38668C10.1307 4.35159 10.066 4.33308 9.99997 4.33333C9.93499 4.33315 9.87125 4.35116 9.81597 4.38533Z" fill="black"/>
</svg>
