<svg width="20" height="20" viewBox="0 0 20 20" fill="none" xmlns="http://www.w3.org/2000/svg">
<path d="M5.80891 8.46456C5.73267 8.43316 5.66539 8.3834 5.61304 8.3197C5.5607 8.25601 5.52491 8.18036 5.50888 8.09949C5.49284 8.01862 5.49705 7.93504 5.52113 7.85619C5.54522 7.77734 5.58842 7.70567 5.64691 7.64756L9.64691 3.64756C9.69335 3.60099 9.74853 3.56405 9.80927 3.53884C9.87002 3.51364 9.93514 3.50066 10.0009 3.50066C10.0667 3.50066 10.1318 3.51364 10.1925 3.53884C10.2533 3.56405 10.3085 3.60099 10.3549 3.64756L14.3549 7.64756C14.4488 7.74144 14.5015 7.86878 14.5015 8.00156C14.5015 8.13433 14.4488 8.26167 14.3549 8.35556C14.261 8.44944 14.1337 8.50219 14.0009 8.50219C13.8681 8.50219 13.7408 8.44944 13.6469 8.35556L10.5009 5.20856V16.0016C10.5009 16.1342 10.4482 16.2613 10.3545 16.3551C10.2607 16.4489 10.1335 16.5016 10.0009 16.5016C9.8683 16.5016 9.74112 16.4489 9.64735 16.3551C9.55358 16.2613 9.50091 16.1342 9.50091 16.0016V5.20856L6.35491 8.35556C6.28496 8.42581 6.1957 8.47368 6.09848 8.49309C6.00126 8.51249 5.90047 8.50256 5.80891 8.46456Z" fill="#333030"/>
</svg>
