<svg width="20" height="20" viewBox="0 0 20 20" fill="none" xmlns="http://www.w3.org/2000/svg">
<path d="M16.41 5.37001L10.27 3.41001C10.0716 3.34648 9.85838 3.34648 9.66001 3.41001L3.52001 5.37001C3.31765 5.43365 3.14078 5.55998 3.01494 5.73076C2.88911 5.90153 2.82084 6.10789 2.82001 6.32001V14.18C2.82001 14.59 3.07001 14.96 3.45001 15.11L9.59001 17.57C9.83001 17.67 10.09 17.67 10.34 17.57L16.48 15.11C16.6642 15.0343 16.8216 14.9054 16.9321 14.7397C17.0425 14.574 17.101 14.3791 17.1 14.18V6.32001C17.0999 6.10914 17.033 5.90371 16.9091 5.73308C16.7852 5.56246 16.6105 5.43538 16.41 5.37001ZM9.96001 4.36001L16.01 6.29001L13.31 7.19001L7.35001 5.20001L9.98001 4.36001H9.96001ZM9.50001 16.46L3.82001 14.18V7.30001L9.50001 9.20001V16.46ZM10 8.30001L3.96001 6.28001L6.54001 5.46001L12.53 7.46001L10 8.30001ZM16.1 14.19L10.5 16.43V9.19001L16.1 7.32001V14.19Z" fill="black"/>
</svg>
