<svg width="40" height="40" viewBox="0 0 40 40" fill="none" xmlns="http://www.w3.org/2000/svg">
<path fill-rule="evenodd" clip-rule="evenodd" d="M19.6916 6.69C18.4318 6.69 17.2236 7.19045 16.3328 8.08125C15.442 8.97204 14.9416 10.1802 14.9416 11.44V12H11.7816L11.0116 23.6C10.965 24.2838 11.0594 24.9699 11.2891 25.6156C11.5188 26.2614 11.8788 26.853 12.3468 27.3538C12.8147 27.8546 13.3806 28.2538 14.0094 28.5266C14.6381 28.7995 15.3162 28.9402 16.0016 28.94H23.3816C24.0661 28.9401 24.7433 28.7997 25.3713 28.5274C25.9993 28.2552 26.5647 27.8569 27.0325 27.3572C27.5003 26.8575 27.8605 26.2671 28.0909 25.6226C28.3212 24.978 28.4167 24.293 28.3716 23.61L27.6016 12.01H24.4416V11.44C24.4416 10.8162 24.3187 10.1986 24.08 9.62226C23.8413 9.04596 23.4914 8.52232 23.0503 8.08125C22.6093 7.64017 22.0856 7.29028 21.5093 7.05157C20.933 6.81286 20.3154 6.69 19.6916 6.69ZM23.4416 11.44V12H15.9416V11.44C15.9416 10.4454 16.3367 9.49161 17.0399 8.78835C17.7432 8.08509 18.697 7.69 19.6916 7.69C20.6861 7.69 21.64 8.08509 22.3432 8.78835C23.0465 9.49161 23.4416 10.4454 23.4416 11.44ZM23.4416 13H15.9416V13.56C15.9416 14.5546 16.3367 15.5084 17.0399 16.2117C17.7432 16.9149 18.697 17.31 19.6916 17.31C20.6861 17.31 21.64 16.9149 22.3432 16.2117C23.0465 15.5084 23.4416 14.5546 23.4416 13.56V13ZM14.9416 13.56V13H12.7216L12.0016 23.67C11.9645 24.2176 12.0406 24.7669 12.2249 25.2838C12.4093 25.8007 12.698 26.2741 13.0732 26.6746C13.4484 27.0752 13.902 27.3942 14.4058 27.6119C14.9096 27.8296 15.4528 27.9413 16.0016 27.94H23.3816C23.9295 27.9399 24.4716 27.8272 24.9742 27.6089C25.4768 27.3906 25.9292 27.0714 26.3033 26.671C26.6774 26.2706 26.9653 25.7976 27.1491 25.2814C27.3328 24.7652 27.4086 24.2167 27.3716 23.67L26.6616 13H24.4416V13.56C24.4416 14.8198 23.9411 16.028 23.0503 16.9188C22.1595 17.8096 20.9514 18.31 19.6916 18.31C18.4318 18.31 17.2236 17.8096 16.3328 16.9188C15.442 16.028 14.9416 14.8198 14.9416 13.56Z" fill="black"/>
<circle cx="28.5" cy="25.5" r="8.5" fill="black"/>
<path d="M30.6691 27.2H29.7791V29H29.0891V27.2H26.2091V26.73L28.9991 22.62H29.7791V26.62H30.6691V27.2ZM29.0891 26.62V24.64C29.0891 24.3867 29.1057 23.9867 29.1391 23.44H29.0991C28.9657 23.68 28.8624 23.8567 28.7891 23.97L28.5791 24.32L26.9891 26.62H29.0891Z" fill="white"/>
</svg>
