<svg width="20" height="20" viewBox="0 0 20 20" fill="none" xmlns="http://www.w3.org/2000/svg">
<path d="M13.3 15.02C12.0585 15.8356 10.5586 16.1618 9.09047 15.9352C7.62238 15.7087 6.29051 14.9457 5.35261 13.7937C4.41471 12.6418 3.93746 11.1829 4.01323 9.69938C4.089 8.21585 4.7124 6.81316 5.76278 5.76278C6.81316 4.7124 8.21585 4.089 9.69938 4.01323C11.1829 3.93746 12.6418 4.41471 13.7937 5.35261C14.9457 6.29051 15.7087 7.62238 15.9352 9.09047C16.1618 10.5586 15.8356 12.0585 15.02 13.3L16 16L13.3 15.02ZM16.12 13.4C16.9398 11.9241 17.1987 10.2017 16.8488 8.55004C16.4989 6.8984 15.5639 5.42887 14.216 4.41221C12.8681 3.39556 11.1982 2.9003 9.51404 3.01768C7.82983 3.13507 6.2448 3.85719 5.05099 5.05099C3.85719 6.2448 3.13507 7.82983 3.01768 9.51404C2.9003 11.1982 3.39556 12.8681 4.41221 14.216C5.42887 15.5639 6.8984 16.4989 8.55004 16.8488C10.2017 17.1987 11.9241 16.9398 13.4 16.12L15.66 16.94C15.8386 17.0044 16.0318 17.0167 16.2172 16.9753C16.4025 16.9339 16.5722 16.8407 16.7064 16.7064C16.8407 16.5722 16.9339 16.4025 16.9753 16.2172C17.0167 16.0318 17.0044 15.8386 16.94 15.66L16.12 13.4Z" fill="black"/>
<path d="M6.9 11.16C7.42 11.16 7.76 10.8 7.76 10.31C7.76 9.80999 7.42 9.45999 6.89 9.45999C6.37 9.45999 6.03 9.81999 6.03 10.31C6.03 10.81 6.37 11.16 6.89 11.16H6.9ZM9.88 11.16C10.41 11.16 10.75 10.8 10.75 10.31C10.75 9.80999 10.41 9.45999 9.88 9.45999C9.36 9.45999 9.01 9.81999 9.01 10.31C9.01 10.81 9.36 11.16 9.88 11.16ZM12.87 11.16C13.39 11.16 13.74 10.8 13.74 10.31C13.74 9.80999 13.39 9.45999 12.87 9.45999C12.35 9.45999 12 9.81999 12 10.31C12 10.81 12.35 11.16 12.87 11.16Z" fill="black"/>
</svg>
