<svg width="20" height="20" viewBox="0 0 20 20" fill="none" xmlns="http://www.w3.org/2000/svg">
<path d="M7 5C7 4.73478 7.10536 4.48043 7.29289 4.29289C7.48043 4.10536 7.73478 4 8 4H15C15.2652 4 15.5196 4.10536 15.7071 4.29289C15.8946 4.48043 16 4.73478 16 5V14C16 14.2652 15.8946 14.5196 15.7071 14.7071C15.5196 14.8946 15.2652 15 15 15V5H7ZM6 6C5.73478 6 5.48043 6.10536 5.29289 6.29289C5.10536 6.48043 5 6.73478 5 7V16C5 16.2652 5.10536 16.5196 5.29289 16.7071C5.48043 16.8946 5.73478 17 6 17H13C13.2652 17 13.5196 16.8946 13.7071 16.7071C13.8946 16.5196 14 16.2652 14 16V7C14 6.73478 13.8946 6.48043 13.7071 6.29289C13.5196 6.10536 13.2652 6 13 6H6ZM6 16V7H13V16H6Z" fill="#333030"/>
</svg>
