<svg width="526" height="526" viewBox="0 0 526 526" fill="none" xmlns="http://www.w3.org/2000/svg">
<path d="M151.9 163C143.5 160.6 131.4 162 127.6 163.4C124.6 164.5 119.1 167.4 116.9 173.8C114.7 180.2 117.2 190 123.1 198.3C127 203.7 134.3 206.6 141.9 206.6C146.9 206.6 152 205.4 156.3 202.8C167.8 196 167.7 178.7 166.8 175.6C165.9 172.3 160.2 165.4 151.9 163ZM155.8 201.9C145.4 208.1 129.9 206 123.9 197.7C118.7 190.5 116.3 182.1 117.3 176.1C117.4 176.3 117.6 176.6 117.9 176.6L152.6 187.3V187.5C152.6 187.9 152.9 188.3 153.3 188.5L158.4 190C158.7 190.3 159.6 191.6 160.2 192.7L160.9 193.9C161.1 194.2 161.4 194.4 161.7 194.4H161.8C162.2 194.4 162.5 194.2 162.6 193.8L163.8 191.2C164 190.8 163.9 190.4 163.6 190.1C161.8 188.2 160.9 187.5 160.2 187.2C158.6 186.6 153.9 185.1 153.7 185C153.4 184.9 153.1 185 152.8 185.1C152.7 185.1 152.7 185.2 152.6 185.3L118.2 174.7C117.9 174.6 117.5 174.7 117.3 174.9C117.4 174.6 117.4 174.4 117.5 174.1C119.5 168.4 124.1 165.6 127.6 164.3C129.9 163.5 135.1 162.6 140.7 162.6C144.3 162.6 148.1 162.9 151.3 163.9C159.6 166.3 164.9 173.4 165.6 175.8C166.7 178.9 166.8 195.4 155.8 201.9ZM161.1 190.2L161.9 191L161.8 191.3C161.5 190.9 161.3 190.6 161.1 190.2ZM108.9 171.5C108.2 170.8 107.1 170.9 106.4 171.6C106.1 171.9 105.9 172.4 105.9 172.9C105.9 173.4 106.1 173.8 106.4 174.1C106.7 174.4 107.2 174.6 107.6 174.6C108.1 174.6 108.5 174.4 108.9 174.1C109.6 173.3 109.6 172.1 108.9 171.5ZM107.5 172.6C107.5 172.6 107.6 172.5 107.7 172.5C107.8 172.5 107.8 172.5 107.9 172.6L107.6 172.9C107.4 172.8 107.4 172.7 107.5 172.6ZM107.8 172.9C107.7 173 107.6 173 107.5 172.9L107.8 172.6C107.8 172.6 107.9 172.7 107.9 172.8C107.9 172.8 107.9 172.9 107.8 172.9ZM239 198.4C245 190.1 247.5 180.2 245.3 173.7C243.1 167.2 237.6 164.3 234.5 163.2C230.6 161.8 218.5 160.3 210 162.8C201.7 165.2 195.8 172.2 194.9 175.5C194 178.7 193.9 196.1 205.5 203C209.9 205.6 215 206.9 220 206.9C227.8 206.8 235.2 203.9 239 198.4ZM195.9 175.7C196.6 173.3 201.9 166.1 210.3 163.7C218.6 161.3 230.5 162.7 234.2 164.1C237.8 165.4 242.4 168.2 244.4 174C244.5 174.2 244.5 174.5 244.6 174.7C244.3 174.5 244 174.4 243.7 174.5L209 185.4L208.8 185.2C208.5 185 208.2 185 207.9 185.1C207.7 185.2 203 186.7 201.5 187.3C200.9 187.5 200 188.2 197.5 190.8C195.2 184.3 195.4 177.6 195.9 175.7ZM200.2 190.8C200 191.1 199.7 191.5 199.4 191.9L199.3 191.7L200.2 190.8ZM206 202.1C203 200.3 200.8 197.7 199.2 194.9H199.4C199.7 194.9 200.1 194.7 200.3 194.4C202.4 191.1 203.1 190.2 203.4 190L208.5 188.4C208.9 188.3 209.2 187.9 209.2 187.4V187.2L244.3 176.3C244.6 176.2 244.8 176 244.9 175.8C246 181.9 243.4 190.3 238.2 197.6C232.2 206.3 216.5 208.3 206 202.1ZM254.3 174.5C254.7 174.5 255.2 174.3 255.5 174C256.2 173.3 256.2 172.2 255.6 171.5C255.3 171.2 254.8 171 254.4 171C253.9 171 253.5 171.2 253.1 171.5C252.4 172.2 252.4 173.3 253.1 174C253.4 174.3 253.9 174.5 254.3 174.5ZM254.5 172.6C254.6 172.7 254.6 172.8 254.5 172.9L254.2 172.6C254.3 172.5 254.4 172.5 254.5 172.6ZM254.2 172.6L254.5 172.9C254.5 172.9 254.4 173 254.3 173C254.2 173 254.2 173 254.1 172.9C254.1 172.8 254.1 172.7 254.2 172.6ZM168.1 174.5C168.1 175.3 168.8 176 169.6 176C170.4 176 171.1 175.3 171.1 174.5C171.1 173.7 170.4 173 169.6 173C168.8 173 168.1 173.7 168.1 174.5ZM169.6 173.9C169.9 173.9 170.1 174.1 170.1 174.4C170.1 174.7 169.9 174.9 169.6 174.9C169.3 174.9 169.1 174.7 169.1 174.4C169 174.2 169.3 173.9 169.6 173.9ZM192.2 173C191.4 173 190.7 173.7 190.7 174.5C190.7 175.3 191.4 176 192.2 176C193 176 193.7 175.3 193.7 174.5C193.7 173.7 193 173 192.2 173ZM192.2 175C191.9 175 191.7 174.8 191.7 174.5C191.7 174.2 191.9 174 192.2 174C192.5 174 192.7 174.2 192.7 174.5C192.8 174.8 192.5 175 192.2 175ZM221.2 315.8C207.7 315.8 196.6 326.8 196.6 340.4C196.6 354 207.6 365 221.2 365C234.8 365 245.8 354 245.8 340.4C245.8 326.8 234.7 315.8 221.2 315.8ZM221.2 316.8C232.6 316.8 242.1 324.9 244.3 335.7C244.1 335.6 244 335.6 243.8 335.6L198.2 337.2C198.1 337.2 197.9 337.2 197.8 337.3C199.3 325.8 209.2 316.8 221.2 316.8ZM197.6 340.4C197.8 340.5 198 340.7 198.2 340.7L206.3 341C212.6 341.2 218.7 342.7 224.3 345.2C229.1 347.9 233 352 235.8 357.6C236 357.9 236.3 358.1 236.7 358.1C232.6 361.7 227.1 364 221.2 364C208.2 363.9 197.6 353.4 197.6 340.4ZM237.7 357.1C237.7 356.9 237.7 356.8 237.6 356.6C236.5 354.5 235.2 352.5 233.9 350.8C235.6 352.1 237.2 353.4 238.7 354.9C238.9 355.1 239.1 355.2 239.4 355.2H239.5C238.9 355.9 238.3 356.5 237.7 357.1ZM240.3 354.1C240.3 353.9 240.2 353.7 240 353.6C231.1 344.8 219.3 339.6 206.7 339L243.7 337.7C244 337.7 244.2 337.6 244.4 337.4C244.5 338.4 244.6 339.4 244.6 340.5C244.7 345.5 243.1 350.2 240.3 354.1ZM140.3 364.9C153.8 364.9 164.9 353.9 164.9 340.3C164.9 326.7 153.9 315.7 140.3 315.7C126.7 315.7 115.7 326.7 115.7 340.3C115.7 353.9 126.7 364.9 140.3 364.9ZM122 355.2C122.4 355.2 122.6 355.1 122.8 354.9C124.3 353.4 125.9 352 127.6 350.8C126.2 352.5 125 354.5 123.9 356.6C123.8 356.8 123.8 356.9 123.8 357.1C123.1 356.5 122.5 355.9 122 355.2ZM140.3 363.9C134.4 363.9 128.9 361.7 124.8 358C125.1 358 125.5 357.8 125.7 357.5C128.6 351.9 132.5 347.7 137.3 345.1C142.9 342.6 149 341.1 155.3 340.9L163.4 340.6C163.6 340.6 163.9 340.5 164 340.3C163.8 353.4 153.2 363.9 140.3 363.9ZM140.3 316.8C152.3 316.8 162.2 325.8 163.7 337.3C163.6 337.2 163.4 337.2 163.3 337.2L117.7 335.6C117.5 335.6 117.4 335.6 117.2 335.7C119.3 324.9 128.8 316.8 140.3 316.8ZM116.9 337.3C117.1 337.5 117.3 337.6 117.6 337.6L154.6 338.9C142.1 339.5 130.3 344.6 121.3 353.5C121.1 353.7 121.1 353.8 121 354C118.2 350.1 116.6 345.4 116.6 340.3L116.9 337.3ZM256 244.8C256 242.2 247.4 242.2 247.4 244.8C247.4 246.1 249.6 246.8 251.7 246.8C253.8 246.8 256 246.1 256 244.8ZM251.7 245.8C249.6 245.8 248.4 245.1 248.4 244.8C248.4 244.5 249.6 243.8 251.7 243.8C253.8 243.8 255 244.5 255 244.8C255 245.1 253.8 245.8 251.7 245.8ZM106 244.8C106 246.1 108.2 246.8 110.3 246.8C112.4 246.8 114.6 246.1 114.6 244.8C114.6 242.2 106 242.2 106 244.8ZM110.3 245.8C108.2 245.8 107 245.1 107 244.8C107 244.5 108.2 243.8 110.3 243.8C112.4 243.8 113.6 244.5 113.6 244.8C113.6 245.1 112.4 245.8 110.3 245.8ZM238.9 241.9C234.1 240.7 217.2 237.4 198.1 245.2C194.7 246.6 192.4 250 192.6 253.7C193.2 267.3 196.8 285.3 221.8 285.3C229.6 285.3 235.7 283 239.9 278.4C246.7 271.1 247.5 259.9 247 251.7C246.8 247 243.5 243.1 238.9 241.9ZM244.6 249C242.4 249.2 234.4 250.1 222.9 251C217.4 251.4 210.4 252 202.5 252.4H201.8C199.6 252.5 197.2 252.6 194.9 252.7C194.3 252.7 193.9 253.2 193.9 253.7C193.9 254.2 194.4 254.7 194.9 254.7C197.5 254.6 200.1 254.5 202.5 254.4C220 254.5 227.7 265.7 234.5 275.6L236.48 277.315C242 280 242 280 247.52 282.685L236.1 274.4C230.7 266.6 224.3 257.2 212.4 253.7C216.2 253.4 219.6 253.2 222.6 252.9C228.8 256.4 235.3 261.6 242.6 269C242.8 269.2 243.1 269.3 243.3 269.3C243.6 269.3 243.8 269.2 244 269C244.1 268.9 244.1 268.8 244.2 268.7C243.1 271.9 241.6 275 239.2 277.6C235.1 281.9 229.3 284.1 221.8 284.1C197.6 284.1 194.1 266.6 193.6 253.5C193.5 250.2 195.4 247.2 198.5 245.9C207.9 242.1 216.8 241 223.9 241C231 241 236.3 242.1 238.7 242.7C242.9 243.7 245.9 247.3 246.1 251.7C246.4 255.9 246.3 262.4 244.4 268.5C244.5 268.2 244.4 267.9 244.1 267.6C237.6 261.1 231.7 256.2 226.1 252.6C235.9 251.8 242.8 251 244.8 250.8C245.3 250.7 245.7 250.2 245.7 249.7C245.7 249.3 245.1 249 244.6 249ZM164 245.2C145 237.5 128 240.7 123.2 241.9C118.6 243 115.3 247 115 251.8C114.5 260 115.3 271.2 122.1 278.5C126.4 283.1 132.5 285.4 140.2 285.4C165.3 285.4 168.9 267.4 169.4 253.8C169.7 250 167.5 246.6 164 245.2ZM116.1 251.8C116.4 247.5 119.4 243.9 123.5 242.8C128.1 241.6 144.6 238.5 163.1 245.8C158.7 246.3 154.9 246.6 150.4 247C147 247.3 143.2 248.6 139 250.9C127.6 250 119.7 249.1 117.5 248.9C117 248.8 116.5 249.2 116.4 249.8C116.3 250.4 116.7 250.8 117.3 250.9C119.3 251.1 126.1 251.9 136 252.7C130.3 256.3 124.4 261.2 117.9 267.8C117.7 268 117.6 268.3 117.6 268.6C115.9 262.6 115.8 256.1 116.1 251.8ZM140.3 284.3C133.9 284.3 128.6 282.7 124.7 279.4C125 279.4 125.2 279.2 125.4 279C126.1 278 126.9 276.9 127.6 275.8C134.6 265.6 142.6 254.1 161.6 254.8C163.7 254.9 165.5 254.9 167.5 255C168 255 168.4 254.7 168.5 254.2C167.9 267.4 164.2 284.3 140.3 284.3ZM168.5 254C168.4 253.5 168 253.1 167.5 253.1C165.5 253.1 163.8 253 161.6 252.9C141.5 252.1 132.8 264.7 125.9 274.7C125.1 275.8 124.4 276.9 123.7 277.9C123.6 278.1 123.5 278.2 123.5 278.4C123.3 278.2 123 278 122.8 277.8C120.4 275.3 118.9 272.2 117.8 269C117.8 269.1 117.9 269.2 117.9 269.2C118.1 269.4 118.3 269.5 118.6 269.5C118.9 269.5 119.1 269.4 119.3 269.2C126.6 261.7 133.3 256.4 139.6 252.9C143.6 250.7 147.3 249.4 150.4 249.1C155.1 248.7 159.1 248.3 163.8 247.8C164.3 247.7 164.7 247.3 164.7 246.7C167 248.2 168.5 250.8 168.3 253.6C168.5 253.8 168.5 253.9 168.5 254Z" fill="black"/>
<path d="M293.1 381.7H284.3L277.5 135.3C277.5 134.8 277 134.3 276.5 134.3H85.0999C84.5999 134.3 84.0999 134.7 84.0999 135.3L77.3 381.7H68.5C65.9 381.7 63.7 383.8 63.7 386.5C63.7 389.1 65.8 391.3 68.5 391.3H293.1C295.7 391.3 297.9 389.2 297.9 386.5C297.9 383.9 295.7 381.7 293.1 381.7ZM86.0999 136.3H275.5L282.3 381.7H79.3L86.0999 136.3ZM293.1 389.3H68.5C67 389.3 65.6999 388.1 65.6999 386.5C65.6999 385 66.9 383.7 68.5 383.7H293.1C294.6 383.7 295.9 384.9 295.9 386.5C295.9 388 294.6 389.3 293.1 389.3Z" fill="black"/>
<path d="M273 302.6H89.7001C89.2001 302.6 88.7001 303 88.7001 303.6L87.6001 371.2C87.6001 371.5 87.7001 371.7 87.9001 371.9C88.1001 372.1 88.3001 372.2 88.6001 372.2H274.2C274.5 372.2 274.7 372.1 274.9 371.9C275.1 371.7 275.2 371.4 275.2 371.2L274.1 303.6C274 303 273.6 302.6 273 302.6ZM110.4 344.6H108.8V336H110.4C110.2 337.4 110.1 338.8 110.1 340.3C110.1 341.8 110.2 343.2 110.4 344.6ZM112.1 340.4C112.1 324.8 124.8 312 140.5 312C156.1 312 168.9 324.7 168.9 340.4C168.9 356.1 156.2 368.8 140.5 368.8C124.8 368.7 112.1 356 112.1 340.4ZM251.2 336.1H252.8V344.7H251.2C251.4 343.3 251.5 341.9 251.5 340.4C251.5 338.9 251.4 337.5 251.2 336.1ZM249.5 340.4C249.5 356 236.8 368.8 221.1 368.8C205.5 368.8 192.7 356.1 192.7 340.4C192.7 324.7 205.4 312 221.1 312C236.8 312 249.5 324.7 249.5 340.4ZM238.6 365.2C238.9 365.9 239.1 366.5 239.3 366.9C239.5 367.4 239.7 367.8 239.8 368.2C240 368.9 240.5 369.6 241 370.1H227.1C231.3 369.3 235.2 367.6 238.6 365.2ZM246.6 368.2C246.1 369.1 245.2 369.5 244.2 369.5C243.1 369.5 242.1 368.7 241.7 367.6C241.5 367 241.3 366.6 241.1 366.1C240.8 365.6 240.6 364.9 240.2 364C241.4 363 242.5 362 243.6 360.8C244.7 362.3 245.7 363.9 246.7 365.5C247.2 366.3 247.1 367.3 246.6 368.2ZM190.9 337.5L180.7 337.9L170.6 337.5C170.6 337 170.5 336.5 170.4 336.1C173.8 332.7 176.4 330.9 180.7 330.9C185.3 330.9 187.7 332.6 191 336.3C191 336.7 191 337.1 190.9 337.5ZM170.8 340.4L180.8 340L190.8 340.4C190.8 355.1 201.3 367.4 215.2 370.2H146.4C160.3 367.3 170.8 355.1 170.8 340.4ZM121.2 363.8C120.8 364.8 120.5 365.5 120.3 366.1L119.7 367.6C119.4 368.7 118.4 369.4 117.2 369.5C116.2 369.5 115.3 369 114.8 368.2C114.3 367.4 114.3 366.4 114.8 365.5C115.7 363.8 116.8 362.2 117.9 360.7C118.9 361.8 120 362.8 121.2 363.8ZM121.5 368.2C121.6 367.8 121.8 367.4 122 366.9C122.2 366.4 122.5 365.9 122.8 365.1C126.2 367.5 130.1 369.3 134.4 370.1H120.3C120.9 369.6 121.3 368.9 121.5 368.2ZM247.6 370.1C247.9 369.8 248.1 369.5 248.3 369.2C249.2 367.7 249.2 366 248.4 364.5C247.4 362.7 246.2 360.9 244.9 359.2C247.8 355.6 249.8 351.3 250.8 346.7H253.7C254.3 346.7 254.7 346.3 254.7 345.7V335.1C254.7 334.5 254.3 334.1 253.7 334.1H250.7C247.8 320.4 235.6 310 221 310C206.5 310 194.4 320.2 191.4 333.8C188.7 331 185.8 328.9 180.7 328.9C175.8 328.9 172.7 331.1 170 333.7C167 320.2 154.8 310 140.4 310C125.8 310 113.6 320.3 110.7 334.1H107.7C107.1 334.1 106.7 334.5 106.7 335.1V345.7C106.7 346.3 107.1 346.7 107.7 346.7H110.7C111.7 351.3 113.7 355.5 116.5 359.1C115.2 360.8 114 362.7 112.9 364.5C112.1 366 112.1 367.7 113 369.2C113.2 369.5 113.5 369.9 113.7 370.1H89.6001L90.7001 304.5H272.1L273.2 370.1H247.6ZM90.8001 291.1H270.7C271 291.1 271.2 291 271.4 290.8C271.6 290.6 271.7 290.4 271.7 290.1L270.6 223.7C270.6 223.2 270.1 222.7 269.6 222.7H91.9001C91.4001 222.7 90.9001 223.1 90.9001 223.7L89.8001 290C89.8001 290.3 89.9001 290.5 90.1001 290.7C90.3001 291 90.6001 291.1 90.8001 291.1ZM241.1 284.5C242.6 286.2 244.4 287.9 246.6 289.1H233.3C236.3 288 238.9 286.4 241.1 284.5ZM255.6 287.9C250.6 289.4 246.8 288 242.5 283.1C244.8 280.7 246.7 277.8 248.1 274.9C252.6 279.8 256 284 257.7 286.1L258.5 285.5L257.7 286.3L257.4 286.6C257.5 286.5 256.9 287.5 255.6 287.9ZM223.6 288.6C197.8 288.6 193.2 274.8 189.9 264.8C188 259 186.3 254 181 254C175.8 254 174.1 259 172.2 264.8C168.8 274.9 164.2 288.7 138.4 288.7C117.6 288.7 113.1 269.5 110.2 256.8C110 255.8 109.7 254.8 109.5 253.9C109 252 107.8 250.5 106.2 250L105.2 249.6L103.2 241.1C140 236.2 159.7 241.1 171.6 244C175.7 245 178.7 245.8 181.1 245.8C183.5 245.8 186.5 245.1 190.6 244C202.4 241.1 222.2 236.2 259 241.1L257 249.6L256 250C254.4 250.6 253.2 252 252.7 253.9C252.5 254.8 252.3 255.8 252 256.8C248.9 269.4 244.4 288.6 223.6 288.6ZM210.2 289.1H151.8C167.5 285 171.3 273.5 174.1 265.4C176.1 259.4 177.4 256 181 256C184.7 256 186 259.4 188 265.5C190.7 273.5 194.5 284.9 210.2 289.1ZM119.6 283.3C115.4 288.1 111.6 289.4 106.7 287.9C105.5 287.5 104.9 286.5 104.9 286.5C104.8 286.4 104.7 286.1 104.6 286.1C106.3 284 109.6 279.9 114 275.2C115.4 278.1 117.3 280.9 119.6 283.3ZM121.1 284.7C123.2 286.5 125.7 288.1 128.6 289.1H115.7C117.9 287.9 119.6 286.3 121.1 284.7ZM92.9001 224.6H268.7L269.7 289H257.7C258.4 288.5 258.9 287.9 259.1 287.6C259.5 287.3 259.7 286.8 259.8 286.3C259.9 285.7 259.7 285.2 259.4 284.7C257.6 282.4 253.9 277.9 249.1 272.7C251.5 267.3 252.8 261.6 253.9 257C254.1 256 254.4 255 254.6 254.1C254.8 253.4 255.3 252 256.6 251.6L258.1 251.1C258.4 251 258.7 250.7 258.7 250.4L261 240.3C261.1 240 261 239.7 260.8 239.5C260.6 239.3 260.4 239.1 260.1 239.1C222.3 233.9 202 238.9 189.9 241.9C185.9 242.9 183.1 243.6 180.9 243.6C178.7 243.6 175.9 242.9 171.9 241.9C159.8 238.9 139.5 233.9 101.7 239.1C101.4 239.1 101.2 239.3 101 239.5C100.8 239.7 100.8 240 100.8 240.3L103.1 250.4C103.2 250.7 103.4 251 103.7 251.1L105.2 251.6C106.5 252.1 107 253.4 107.2 254.1C107.4 255 107.6 256 107.9 257C109 261.7 110.4 267.5 112.8 273C108.1 278.1 104.5 282.5 102.8 284.6C102.4 285 102.3 285.6 102.4 286.2C102.5 286.7 102.7 287.2 103.1 287.5C103.3 287.8 103.8 288.4 104.5 288.9H91.8001L92.9001 224.6ZM92.5001 212.4H269.5C269.8 212.4 270 212.3 270.2 212.1C270.4 211.9 270.5 211.6 270.5 211.4L268.4 145C268.4 144.5 267.9 144 267.4 144H94.6001C94.1001 144 93.6001 144.4 93.6001 145L91.5001 211.4C91.5001 211.7 91.6001 211.9 91.8001 212.1C92.0001 212.3 92.3001 212.4 92.5001 212.4ZM172.3 172.4C172.4 175.3 172.6 188.1 165.7 198.1C158.2 209 150.2 209.9 143.3 209.9C133.5 209.9 120.5 206.5 114.5 190.6C109 176 108.5 175.4 106 174.9C105.8 174.9 105.5 174.8 105.3 174.7V170.2C107 170 110.7 169.6 112.6 168.5C113 168.3 113.6 167.8 114.3 167.3C117.8 164.8 125 159.5 134.3 158.9C145.5 158.2 153 159.2 158.6 162.1C162.6 164.2 165.5 167.1 167.3 169C168.1 169.8 168.6 170.4 169.1 170.7C170.2 171.5 171.5 172.1 172.3 172.4ZM167.3 199.3C167.6 198.8 167.9 198.3 168.2 197.9C170.3 200.3 172.1 202.4 172.6 203.1C173.3 204.1 173.4 206.3 172.8 207.2C172.6 207.4 172.5 207.5 172.4 207.5C171.4 206.9 168.3 201.8 167.1 199.7C167.2 199.5 167.3 199.4 167.3 199.3ZM165.8 201.4C169.5 207.5 170.9 209.3 172.1 209.4H172.5C173.3 209.4 174.1 209 174.6 208.2C175.6 206.6 175.5 203.6 174.4 201.9C173.8 201 171.5 198.3 169.4 196C175.4 184.8 174.4 172.2 174.3 171.6C174.3 171.2 174 170.9 173.6 170.7C173.6 170.7 172.9 170.5 172.1 170.1V168.7C173.4 168.2 176.9 166.9 181 166.9C185.1 166.9 188.6 168.1 189.9 168.7V170.1C189.1 170.5 188.4 170.7 188.4 170.7C188.1 170.8 187.8 171.1 187.7 171.5V171.8C187.6 173.3 187 185.3 192.6 195.9C190.5 198.2 188.2 201 187.5 201.9C186.4 203.6 186.3 206.6 187.3 208.2C187.8 209 188.5 209.4 189.4 209.4H189.8C191 209.2 192.4 207.4 196.1 201.3C200 206.3 204 209 207.9 210.4H154C158 209 161.9 206.3 165.8 201.4ZM218.7 210C211.8 210 203.8 209.1 196.3 198.2C189.4 188.2 189.6 175.3 189.7 172.5C190.4 172.2 191.7 171.6 192.8 170.8C193.3 170.4 193.8 169.9 194.6 169.1C196.5 167.2 199.3 164.3 203.3 162.2C209 159.2 216.5 158.2 227.6 159C236.9 159.6 244.1 164.9 247.6 167.4C248.3 167.9 248.9 168.3 249.3 168.6C251.2 169.7 254.9 170.2 256.6 170.3V174.8C256.3 174.9 256.1 174.9 255.9 175C253.4 175.5 252.9 176.1 247.4 190.7C244.7 197.8 240.4 203 234.7 206.2H234.6C230.3 208.6 225.2 209.9 219.4 210H218.7ZM194.7 199.3C194.8 199.4 194.8 199.5 194.9 199.5C193.7 201.5 190.5 206.8 189.5 207.4C189.4 207.4 189.3 207.4 189.1 207.1C188.5 206.2 188.6 204 189.3 203C189.7 202.3 191.6 200.1 193.7 197.7C194 198.3 194.3 198.8 194.7 199.3ZM95.6001 146H266.6L268.6 210.4H229.9C232 209.8 234 208.9 235.8 207.9H235.9C242.1 204.5 246.6 198.9 249.5 191.3C254.8 177.2 255.2 177.1 256.6 176.8C256.9 176.7 257.2 176.7 257.6 176.5C257.8 176.4 258.1 176.3 258.3 176.2C258.7 176 258.9 175.7 258.9 175.3V172.6H261.4C262 172.6 262.4 172.2 262.4 171.6C262.4 171 262 170.6 261.4 170.6H258.9V169.2C258.9 168.7 258.5 168.2 258 168.2C256.5 168.1 252.4 167.7 250.7 166.7C250.4 166.5 249.8 166.1 249.2 165.6C245.6 163 238 157.4 228.2 156.8C216.6 156 208.8 157.1 202.8 160.3C198.5 162.6 195.5 165.6 193.6 167.6C193.1 168.2 192.6 168.6 192.2 168.9V168.1C192.2 167.7 192 167.4 191.6 167.2C191.4 167.1 187 165 181.2 165C175.4 165 171 167.1 170.8 167.2C170.5 167.4 170.2 167.7 170.2 168.1V168.9C169.9 168.6 169.4 168.1 168.8 167.6C167 165.7 163.9 162.6 159.6 160.3C153.6 157.1 145.7 156.1 134.2 156.8C124.4 157.5 116.8 163 113.2 165.6C112.5 166.1 112 166.5 111.7 166.7C110 167.7 105.8 168.2 104.4 168.2C103.9 168.2 103.5 168.7 103.5 169.2V170.6H101C100.4 170.6 100 171 100 171.6C100 172.2 100.4 172.6 101 172.6H103.5V175.3C103.5 175.7 103.7 176.1 104.1 176.2C104.8 176.5 105.4 176.6 105.8 176.7C107.1 177 107.5 177.1 112.9 191.2C117.2 202.6 124.8 208 132.4 210.3H93.6001L95.6001 146ZM339.4 221.6C339.5 221.6 339.6 221.6 339.7 221.5L350.6 211.1C350.8 210.9 350.8 210.6 350.6 210.4C350.4 210.2 350.1 210.2 349.9 210.4L339 220.7C338.8 220.9 338.8 221.2 339 221.4C339.1 221.5 339.2 221.6 339.4 221.6ZM360.2 208.5L336.6 231.5C336.4 231.7 336.4 232 336.6 232.2C336.7 232.3 336.8 232.4 337 232.4C337.1 232.4 337.3 232.4 337.3 232.3L360.9 209.3C361.1 209.1 361.1 208.8 360.9 208.6C360.7 208.3 360.4 208.3 360.2 208.5ZM436.8 206.8L413.3 229.5C413.1 229.7 413.1 230 413.3 230.2C413.4 230.3 413.5 230.4 413.7 230.4C413.8 230.4 413.9 230.4 414 230.3L437.5 207.6C437.7 207.4 437.7 207.1 437.5 206.9C437.3 206.6 437 206.6 436.8 206.8ZM431.5 219.8L423.5 227.6C423.3 227.8 423.3 228.1 423.5 228.3C423.6 228.4 423.7 228.5 423.9 228.5C424 228.5 424.2 228.5 424.2 228.4L432.2 220.6C432.4 220.4 432.4 220.1 432.2 219.9C432 219.6 431.7 219.6 431.5 219.8Z" fill="black"/>
<path d="M464.7 207.3H462.2V205.9C462.2 205.4 461.8 204.9 461.3 204.9C459.9 204.8 455.8 204.4 454.1 203.4C453.8 203.2 453.2 202.8 452.6 202.3C449.8 200.3 444.8 196.6 438.1 194.7V194.3C429 166.5 408.4 148.5 385.6 148.5C362.6 148.5 341.9 166.6 332.9 194.7C326.3 196.6 321.3 200.3 318.6 202.3C317.9 202.8 317.4 203.2 317.1 203.4C315.4 204.4 311.3 204.8 309.9 204.9C309.4 204.9 309 205.4 309 205.9V207.3H306.5C305.9 207.3 305.5 207.7 305.5 208.3C305.5 208.9 305.9 209.3 306.5 209.3H309V211.9C309 212.3 309.2 212.7 309.6 212.8C310.3 213.1 310.9 213.2 311.3 213.3C312.6 213.6 313 213.6 318.3 227.6C321.2 235.3 325.6 240.2 330.6 243.3C332.7 252.9 336.3 262.2 340.9 270.5C340.8 270.7 340.8 271 341.1 271.2C341.2 271.3 341.3 271.3 341.5 271.4C351 288.1 364.4 300.8 377.6 304.7V304.8C375.6 339.2 371.8 360.4 371.3 363.1H369.6C367.2 363.1 365.2 365.1 365.2 367.5C365.2 368.4 365.5 369.2 365.9 369.9H347C334 369.9 321.4 374.6 311.7 383.3C310.3 384.6 309.8 386.5 310.5 388.3C311.2 390.1 312.8 391.2 314.8 391.2H456.6C458.5 391.2 460.2 390 460.9 388.3C461.6 386.5 461.1 384.5 459.7 383.3C449.9 374.7 437.4 369.9 424.4 369.9H405.8C406.2 369.2 406.5 368.4 406.5 367.5C406.5 365.1 404.5 363.1 402.1 363.1H400.4C399.9 360.4 396.1 339.5 394.1 305.5C394.1 305.2 393.9 304.9 393.7 304.8C413.6 299.1 434.4 272.9 440.9 243.6V243.2C446.5 239.8 450.6 234.5 453.3 227.5C458.5 213.6 458.9 213.5 460.3 213.2C460.6 213.1 460.9 213.1 461.3 213C461.5 212.9 461.8 212.8 462 212.7C462.4 212.5 462.6 212.2 462.6 211.8V209.2H465.1C465.7 209.2 466.1 208.8 466.1 208.2C466.1 207.6 465.3 207.3 464.7 207.3ZM385.5 150.5C407.2 150.5 426.9 167.6 435.9 194.2C434.6 193.9 433.2 193.7 431.8 193.6C420.4 192.8 412.7 193.9 406.7 197C402.4 199.2 399.5 202.2 397.6 204.2L396.3 205.5V204.7C396.3 204.3 396.1 204 395.7 203.8C395.5 203.7 391.2 201.6 385.5 201.6C379.8 201.6 375.5 203.7 375.3 203.8C375 204 374.7 204.3 374.7 204.7V205.5L373.4 204.2C371.6 202.4 368.6 199.3 364.3 197C358.4 193.9 350.6 192.8 339.2 193.6C337.8 193.7 336.4 193.9 335.1 194.2C344.1 167.6 363.7 150.5 385.5 150.5ZM320 226.9C314.6 212.5 314 211.9 311.6 211.4C311.4 211.4 311.1 211.3 310.9 211.2V206.8C312.6 206.6 316.2 206.2 318.1 205.1C318.5 204.9 319.1 204.4 319.8 203.9C323.2 201.4 330.4 196.2 339.5 195.6C350.5 194.9 357.9 195.9 363.5 198.8C367.5 200.9 370.3 203.7 372.1 205.6C372.9 206.4 373.4 206.9 373.9 207.3C375 208.1 376.3 208.7 377 209C377.1 211.9 377.3 224.5 370.5 234.4C363.1 245.1 355.3 246 348.5 246C338.7 246 326 242.7 320 226.9ZM348.4 248C355.7 248 364.2 247 372.1 235.5C380.2 223.8 379 208.8 378.9 208.2C378.9 207.8 378.6 207.5 378.2 207.3C378.2 207.3 377.6 207.1 376.8 206.7V205.3C378.1 204.8 381.5 203.6 385.6 203.6C389.7 203.6 393.1 204.8 394.4 205.3V206.7C393.6 207.1 393 207.3 393 207.3C392.7 207.4 392.4 207.7 392.3 208.1V208.4C392.2 210 391.5 224.4 399.1 235.5C400.3 237.3 401.6 238.8 402.8 240.1C401 245.3 397.6 250 394.3 254.6C392.9 256.6 391.6 258.5 390.3 260.4C388.9 262.6 387.9 264.9 386.9 267.1C385.3 270.8 383.8 274.2 380.5 277.1C369.1 287.1 357.6 280.2 346.6 273.4C345.7 272.8 344.7 272.2 343.7 271.7C338.8 263.3 335 254.1 332.7 244.6C338 247.2 343.6 248 348.4 248ZM354.1 286C350.7 282.2 347.6 278 344.9 273.5C345.3 273.7 345.7 274 346.1 274.2C353 278.4 360.6 283 368.2 283C372.5 283 376.9 281.5 381.2 277.8C384.6 274.8 386.2 271.2 387.8 267.5C388.8 265.3 389.7 263.1 391.1 260.9C392.3 259 393.6 257.1 395 255.2C398.2 250.7 401.5 246 403.4 240.8C405.3 242.6 407.2 244 409.1 245C401.6 252.2 397.7 260.2 393.5 268.7C391.9 272 390.2 275.4 388.2 278.9C382 289.8 374 289.9 362.8 290C361.3 290 359.7 290 358.1 290.1H358C356.8 288.9 355.4 287.5 354.1 286ZM433.9 258.3C431.8 261.7 427.9 264.6 423.8 267.6C415.8 273.5 406.7 280.2 410.4 292.7C407.5 295.2 404.6 297.4 401.6 299.1C401.5 287.7 402.1 280.1 409.3 270.4C412.5 266.1 418.3 262.6 423.9 259.3C428.6 256.5 433.4 253.7 436.8 250.2C435.9 253 435 255.7 433.9 258.3ZM437.4 248.1C434.1 252.1 428.6 255.4 423.4 258.5C417.7 261.9 411.9 265.3 408.5 269.9C401.1 279.9 400.5 288.1 400.6 299.5C400.6 299.6 400.6 299.7 400.7 299.7C395.6 302.5 390.5 304.1 385.5 304.1C379.5 304.1 372.9 301.7 366.4 297.2C370.8 296.6 374.6 296.7 378 296.9C386.6 297.3 392.8 297.6 397.6 283.5C403 267.8 410.8 256.5 422.2 248H423.4C428.9 247.9 433.9 246.8 438.2 244.7C438 245.8 437.7 246.9 437.4 248.1ZM396.7 283.1C392.1 296.4 386.8 296.2 378.1 295.8C374.5 295.6 370.4 295.4 365.6 296.2C365.5 296.2 365.4 296.3 365.4 296.3C363.3 294.8 361.2 293.1 359.2 291.2C360.5 291.2 361.7 291.2 362.9 291.1C374 291 382.7 290.9 389.1 279.5C391.1 276 392.8 272.6 394.4 269.3C398.6 260.8 402.6 252.8 410.1 245.6C413.7 247.3 417.3 247.8 420.6 247.9C409.6 256.5 402 267.7 396.7 283.1ZM379.3 305.3C381.4 305.8 383.5 306 385.5 306C386.2 306 386.9 306 387.6 305.9C378.6 326.1 376.7 345.4 382.1 363.1H373C373.8 359.3 377.4 338.4 379.3 305.3ZM396.6 372C396.7 372.1 396.7 372.1 396.8 372.1C410.5 375.7 417.8 378.8 418.9 381.7C419.1 382.3 419.1 382.8 419 383.3H411.5C411.4 383.2 411.3 383 411.2 382.8C409.8 381.1 393.2 375.4 390.5 375.1C388.3 374.9 381.1 375.6 377.7 378.5C376.5 379.5 375.9 380.7 375.8 382C375.8 382.4 376 382.8 376.3 383.2H363.6C362.5 380.8 365.1 378.6 368.9 375.9C370.9 374.5 372.6 373.2 373.1 371.9H396.6V372ZM409.1 389.3C409.1 389.2 409 389.1 409 389C409 388.5 409.6 388 410.1 387.5C410.7 386.9 411.5 386.2 411.7 385.3H417.9C417.2 386.5 416.4 387.9 417.1 389.3H409.1ZM392.8 389.3C391.6 388.6 389.4 387.9 386.8 387C385.5 386.5 383.8 385.9 382.1 385.3H410.7C410.5 385.8 410 386.2 409.5 386.8C408.8 387.5 408.1 388.2 408.1 389V389.3H392.8ZM382.2 389.3C378.8 388.6 371.2 386.7 366.9 385.3H379.5C381.3 386.1 383.7 387 386.5 388C387.9 388.5 389.3 389 390.4 389.4H382.2V389.3ZM364.7 389.3C361.7 388.7 356 387.1 352.7 385.3H364.2C366.9 386.6 373.1 388.2 377.7 389.3H364.7ZM347.3 389.3C346.2 387.8 345.4 386.5 344.8 385.3H350.9C353.1 387 357.2 388.4 360.6 389.3H347.3ZM340.8 389.3C337.2 387.9 334.8 386.6 333.5 385.3H343.6C344.2 386.5 344.9 387.9 346 389.3H340.8ZM323.6 389.3C322.6 387.7 322.3 386.4 322.6 385.3H332.2C333.2 386.7 335.1 388 338.2 389.3H323.6ZM326.4 380.3C328.2 378.7 330.2 376.8 331.7 374.2C334.5 373.3 337.3 372.7 340.2 372.3C339 373.6 337.8 374.7 336.6 375.9C333.8 378.5 331.3 380.8 331.5 383.2H323.6C324.3 382.3 325.3 381.4 326.4 380.3ZM322.4 383.3H314.8C319.4 379.6 324.7 376.7 330.2 374.8C328.8 376.7 327.2 378.3 325.7 379.6C324.4 380.8 323.2 382 322.4 383.3ZM343.8 380.2C344.4 377.3 347.8 375.4 352.4 372.9C352.9 372.6 353.5 372.3 354.1 372H362.1C360 373.4 357.3 376 354.7 378.5C352.7 380.4 350.8 382.3 349.6 383C349.5 383.1 349.4 383.2 349.4 383.3H344C343.7 382.1 343.6 381.1 343.8 380.2ZM376.7 382.2C376.8 381.2 377.3 380.2 378.3 379.4C381.3 376.8 387.8 375.9 390.4 376.2C392.9 376.4 408.1 381.8 410.2 383.3H377.8C377.1 382.9 376.7 382.5 376.7 382.2ZM368.2 375.1C365.1 377.3 361.4 380.1 362.4 383.2H350.8C352 382.3 353.5 380.8 355.3 379.1C358.6 375.9 362.6 372 364.5 371.9H371.8C371.3 372.9 369.7 374 368.2 375.1ZM352.1 372C352.1 372 352 372 352 372.1C347.3 374.7 343.6 376.7 342.9 380.1C342.7 381.1 342.7 382.2 343 383.3H332.6C332.5 381.4 334.8 379.2 337.4 376.7C338.8 375.4 340.4 373.9 341.8 372.2C343.5 372 345.3 371.9 347 371.9H352.1V372ZM312.3 387.6C312 386.9 312 386 312.6 385.2H321.6C321.4 386.4 321.6 387.7 322.5 389.2H314.7C313.3 389.3 312.6 388.4 312.3 387.6ZM458.8 387.6C458.5 388.4 457.7 389.3 456.4 389.3H418.3C417.4 388.2 417.9 387.2 418.8 385.7C418.9 385.6 419 385.4 419.1 385.2H458.5C459.1 386.1 459.1 387 458.8 387.6ZM456.3 383.3H420C420.1 382.7 420.1 382 419.8 381.3C419 379.2 415.9 376.4 400.2 372H424.2C435.9 372 447.2 376 456.3 383.3ZM404.2 367.6C404.2 368.9 403.1 370 401.8 370H369.2C367.9 370 366.8 368.9 366.8 367.6C366.8 366.3 367.9 365.2 369.2 365.2H401.8C403.1 365.2 404.2 366.3 404.2 367.6ZM390.4 363.2C385.4 354.5 385.3 344 385.9 334.8C386.1 331.3 387.8 327 389.5 322.9C390.6 320.2 391.7 317.4 392.4 314.8C392.6 317.1 392.7 319.3 392.9 321.5C392.6 324.7 392 327.7 391.4 330.7C389.4 340.6 387.6 350 397.5 360.1C397.7 361.6 397.9 362.6 398 363.2H390.4ZM393.3 325.9C394.7 341.1 396.2 352.1 397.2 358.3C388.8 349 390.5 340.6 392.4 330.9C392.7 329.3 393 327.6 393.3 325.9ZM392.1 311C391.7 314.5 390.1 318.6 388.5 322.5C386.8 326.7 385.1 331 384.9 334.7C384.3 343.8 384.4 354.3 389.3 363.1H383.2C377.7 345.3 379.6 326 388.8 305.7C389.8 305.6 390.8 305.4 391.9 305.2C391.8 305.3 391.8 305.5 391.8 305.7C391.9 307.5 392 309.3 392.1 311ZM411.2 292C408 280.5 416.3 274.4 424.4 268.5C427.4 266.3 430.2 264.2 432.4 261.9C431 264.9 429.5 267.9 427.9 270.7C427.2 271.3 426.2 272 425.1 272.7C420.4 275.9 414.1 280.4 417.3 285.7C415.4 288 413.3 290.1 411.2 292ZM418.1 284.9C415.8 280.5 421.3 276.6 425.8 273.5L426.7 272.9C424 277.2 421.2 281.3 418.1 284.9ZM460.2 211.2C459.9 211.3 459.7 211.3 459.5 211.4C457 211.9 456.5 212.5 451.1 226.9C448.5 233.9 444.2 239.1 438.6 242.2H438.5C434.3 244.6 429.2 245.8 423.5 245.9H422.7C415.9 245.9 408 245 400.6 234.3C393.8 224.4 394 211.8 394.1 208.9C394.8 208.6 396.1 208 397.2 207.2C397.7 206.9 398.2 206.3 399 205.5C400.8 203.6 403.6 200.8 407.6 198.7C413.2 195.8 420.6 194.8 431.6 195.5C440.7 196.1 447.9 201.3 451.3 203.8C452 204.3 452.6 204.7 453 205C454.9 206.1 458.5 206.6 460.2 206.7V211.2Z" fill="black"/>
<path d="M371.6 212.1C370.7 208.9 365 202.1 356.9 199.7C348.6 197.3 336.7 198.7 332.9 200.1C329.9 201.2 324.5 204 322.4 210.4C320.3 216.7 322.7 226.4 328.6 234.5C332.4 239.8 339.6 242.7 347.2 242.7C352.1 242.7 357.1 241.5 361.4 238.9C372.6 232.2 372.5 215.2 371.6 212.1ZM330.9 202.1C330 205.8 329.4 209.6 329 213.4L323.4 211.7H323C323.1 211.4 323.2 211 323.3 210.7C324.8 206.3 327.9 203.6 330.9 202.1ZM322.7 213.6L322.8 213.7L328.8 215.5C328.5 218.5 328.4 221.5 328.4 224.6C328.4 227.4 328.6 230.7 328.9 233.3C324.3 226.7 322 219.2 322.7 213.6ZM330.5 235.3C330.8 235.1 331 234.7 331 234.3C330.6 231 330.4 227.2 330.4 224.4C330.4 216.7 331.3 209.2 333 202C333.1 201.7 333 201.4 332.8 201.2C333 201.1 333.1 201.1 333.3 201C335.5 200.2 340.7 199.3 346.2 199.3C349.8 199.3 353.5 199.6 356.6 200.6C364.8 203 370 209.9 370.7 212.3C371.5 215.3 371.7 231.6 360.8 238C351.1 243.8 337 242.4 330.5 235.3ZM313.2 207.6C312.7 207.6 312.3 207.8 312 208.1C311.7 208.4 311.5 208.9 311.5 209.3C311.5 209.8 311.7 210.2 312 210.5C312.3 210.8 312.8 211 313.2 211C313.7 211 314.1 210.8 314.4 210.5C314.7 210.2 314.9 209.7 314.9 209.3C314.9 208.8 314.7 208.4 314.4 208.1C314.1 207.7 313.7 207.6 313.2 207.6ZM313.4 209.5C313.4 209.5 313.3 209.6 313.2 209.6C313.1 209.6 313.1 209.6 313 209.5C313 209.5 312.9 209.4 312.9 209.3C312.9 209.2 312.9 209.2 313 209.1C313 209.1 313.1 209 313.2 209C313.3 209 313.3 209 313.4 209.1C313.5 209.2 313.5 209.4 313.4 209.5ZM438.4 199.9C434.6 198.5 422.6 197 414.2 199.5C406 201.9 400.2 208.8 399.3 212C398.4 215.2 398.3 232.3 409.7 239.1C414 241.7 419.1 242.9 424 242.9C431.6 242.9 438.9 240 442.7 234.6C448.6 226.4 451.1 216.6 448.9 210.3C446.8 203.9 441.4 201.1 438.4 199.9ZM410.2 238.3C399.3 231.8 399.4 215.4 400.2 212.3C400.9 209.9 406.1 202.9 414.4 200.5C417.6 199.6 421.3 199.2 424.9 199.2C430.5 199.2 435.7 200 438 200.9C438.2 201 438.3 201 438.5 201.1C438.2 201.3 438.1 201.7 438.1 202.1C439.8 209.3 440.7 216.9 440.7 224.5C440.7 227.2 440.5 231 440.1 234.4C440 234.9 440.3 235.3 440.8 235.4C434.3 242.6 420 244.1 410.2 238.3ZM442.3 233.6C442.6 231 442.8 227.5 442.8 224.5C442.8 221.5 442.7 218.5 442.4 215.6L447.8 213.8C448.3 213.6 448.6 213.1 448.4 212.5C448.2 212 447.7 211.7 447.1 211.9L442.1 213.5C441.7 209.5 441 205.6 440.1 201.8C443.1 203.3 446.4 206 448 210.6C450.1 216.6 447.8 225.8 442.3 233.6ZM457.8 211.1C457.9 211.1 457.9 211.1 457.8 211.1C458.3 211.1 458.7 210.9 459 210.6C459.3 210.3 459.5 209.8 459.5 209.4C459.5 208.9 459.3 208.5 459 208.2C458.7 207.9 458.2 207.7 457.8 207.7C457.3 207.7 456.9 207.9 456.6 208.2C456.3 208.5 456.1 209 456.1 209.4C456.1 209.9 456.3 210.3 456.6 210.6C456.9 210.9 457.4 211.1 457.8 211.1ZM457.7 209.1C457.7 209.1 457.8 209 457.9 209C458 209 458 209 458.1 209.1C458.1 209.1 458.2 209.2 458.2 209.3C458.2 209.4 458.2 209.4 458.1 209.5C458.1 209.5 458 209.6 457.9 209.6C457.8 209.6 457.8 209.6 457.7 209.5C457.6 209.4 457.6 209.2 457.7 209.1ZM374.3 212.5C375.1 212.5 375.8 211.8 375.8 211C375.8 210.2 375.1 209.5 374.3 209.5C373.5 209.5 372.8 210.2 372.8 211C372.8 211.8 373.5 212.5 374.3 212.5ZM374.3 210.5C374.6 210.5 374.8 210.7 374.8 211C374.8 211.3 374.6 211.5 374.3 211.5C374 211.5 373.8 211.3 373.8 211C373.7 210.7 374 210.5 374.3 210.5ZM396.6 209.6C395.8 209.6 395.1 210.3 395.1 211.1C395.1 211.9 395.8 212.6 396.6 212.6C397.4 212.6 398.1 211.9 398.1 211.1C398.1 210.3 397.4 209.6 396.6 209.6ZM396.6 211.6C396.3 211.6 396.1 211.4 396.1 211.1C396.1 210.8 396.3 210.6 396.6 210.6C396.9 210.6 397.1 210.8 397.1 211.1C397.2 211.3 396.9 211.6 396.6 211.6Z" fill="black"/>
</svg>
