<svg width="526" height="526" viewBox="0 0 526 526" fill="none" xmlns="http://www.w3.org/2000/svg">
<path d="M463.2 317C463.2 316.5 462.7 316 462.2 316H444.2C444.5 315.2 444.4 314.4 443.8 313.7L440 309.3C436.2 304.8 429.1 302.1 421.7 302.1H390.8C390.8 302 390.9 301.9 390.9 301.8C390.9 298.9 389.3 296.4 386.9 295.1C387 295 387.1 294.8 387.1 294.6V220.8C387.1 220.4 386.9 220.1 386.6 220C402.3 220.8 412.9 227.3 422.3 233.1C428.3 236.8 434 240.3 440.3 241.9C440.8 242 441.4 242.1 441.9 242.1C443.4 242.1 444.9 241.6 446.1 240.6C447.8 239.3 448.8 237.3 448.8 235.1V210.2C449.1 210.3 449.4 210.3 449.6 210.3C450.3 210.3 451.1 210.1 451.7 209.7C453 208.9 453.7 207.5 453.7 206C452.7 187 445.3 126.8 391 122.1C390.7 119 388.1 117.1 384.1 117.1C380.1 117.1 377.6 119 377.2 122.1C322.1 126.7 314.6 187 313.6 206C313.5 207.5 314.3 208.9 315.5 209.7C316.4 210.3 317.5 210.4 318.5 210.2V234.7C318.5 237 319.6 239.1 321.5 240.4C323.3 241.7 325.6 242 327.7 241.3C332.7 239.6 337.7 236.6 343 233.5C353.3 227.5 364.9 220.8 380.1 219.9C379.8 220.1 379.6 220.4 379.6 220.7V294.5C379.6 294.7 379.7 294.9 379.8 295C377.4 296.3 375.8 298.8 375.8 301.7C375.8 301.8 375.8 301.9 375.9 302H349C348.9 302 348.7 302 348.6 302.1L348 298C346.7 289.9 341.1 283.2 333.7 280.9C327.5 279 318.7 276.8 308.3 275.8C308.1 271 304.8 266.9 300.3 265.6C298.9 262.2 294.1 260.1 288.8 260.7C281.8 261.5 274.1 266.7 269.8 278.4C266.5 279.1 263.2 280 260 281C252.4 283.3 246.7 290.1 245.5 298.4L242.9 316.3H218.4C218 316.3 217.6 316.6 217.6 317.1V384.6C217.6 385 217.9 385.4 218.4 385.4C218.9 385.4 219.2 385.1 219.2 384.6V317.8H242.8L233.7 380.3H231.6C231.3 380.3 231.1 380.5 231.1 380.8C231.1 381.1 231.3 381.3 231.6 381.3H233.6L232.6 388.2C226.8 386.3 220.6 385.3 214.4 385.3H193.7C194.2 384.5 194.6 383.6 194.6 382.6C194.6 380 192.5 377.9 189.9 377.9H187.9C187.4 375.4 183.2 352.3 181 314.5C181 314.1 180.7 313.8 180.4 313.6C185.9 312.1 191.5 309.1 196.8 305H196.9C197 304.9 197.2 304.8 197.2 304.7C213 292.4 227.1 270.3 232.4 246.3C232.5 245.8 232.2 245.2 231.6 245.1C231.1 245 230.5 245.3 230.4 245.9C229.6 249.3 228.7 252.7 227.6 256C226.8 256.5 226 256.9 225.2 257.4C208 267.7 188.5 279.4 195.7 303.2C187.6 309.4 179.3 312.8 171.9 312.8C165.1 312.8 157.7 310 150.6 305.1C154.8 304.5 158.4 305 162 305.5C164.1 305.8 166.2 306.1 168.1 306.1C172.7 306.1 176.9 304.6 181 298.3C184.2 293.4 186 287.4 187.8 281.7C189.5 276 191.3 270.1 194.5 265C198 259.5 202.3 256.7 207 253.7C210.6 251.4 214.3 249 217.6 245.2C219.1 243.5 219.9 241.3 220.7 239.2C221.4 237.2 222.1 235.3 223.3 234C225.3 231.7 227.1 230.9 229 230.2C230.2 229.7 231.5 229.2 232.8 228.2C232.7 230.8 232.5 233.7 232.2 236.3C232.1 236.8 232.5 237.3 233.1 237.4H233.2C233.7 237.4 234.1 237 234.2 236.5C234.5 233.6 234.9 229.1 234.9 225.4C234.9 224 234.9 222.5 234.8 221.1C234.8 220.8 234.7 220.6 234.5 220.4C240.5 219.3 263.8 214.8 272.6 211.2C285.7 205.9 289.7 201.5 289.9 201.3C290 201.2 290 201.1 290.1 201C290.1 200.9 290.2 200.8 290.2 200.7C290.2 200.6 290.1 197.3 286.8 194.9C282.2 191.6 274.1 191.8 262.6 195.4C241.4 202.1 234.9 202.1 233.3 201.9C233.2 201.7 233.1 201.4 233 201C232.4 198.9 231.2 195 229.5 190.3C230.1 190.1 230.4 190.1 230.5 190C231 189.9 231.4 189.3 231.2 188.8C231.1 188.3 230.5 187.9 230 188.1L228.8 188.4C226.3 181.7 222.7 173.7 218.1 166.7C208.2 151.6 200.4 140.1 198.2 137C195.1 132.5 184.3 122 172.2 127.2C167.9 129 164.3 131.1 160.9 133.1C160.3 133.5 159.7 133.8 159 134.2C154.3 137 148.4 140.5 141.3 143.5L139.8 144.1C138.6 144.6 137.3 145 136.1 145.3C132.4 146.4 128.8 147.1 124.9 147.8C121.5 148.4 117.9 149.1 114.3 150C111.7 150.6 109 151.3 106.2 152.2C93.7 156.4 92.6 171.4 93.3 176.9C93.4 177.6 93.5 178.5 93.6 179.6C93.6 179.7 93.6 179.7 93.7 179.8V185.1C92.5 182.3 91 179.4 89.8 178.6C87.7 177.3 79.4 176.7 77.8 176.5C77.5 176.5 77.3 176.6 77.1 176.7C76.9 176.9 76.8 177.1 76.8 177.4C76.8 177.9 76.1 188.9 79.7 193.7C79.8 193.9 80 194 80.2 194C82.6 194.8 85.4 195.8 87 196.6L84.1 197.7C83.8 197.8 83.6 198 83.5 198.3C83.4 198.6 83.4 198.9 83.6 199.1C83.8 199.4 87.2 205.5 96.6 207.4L93.2 210.3C93 210.5 92.8 210.8 92.8 211.1C92.8 211.4 93 211.7 93.3 211.9C93.5 212 95.7 213.3 98.8 214.6C98.8 214.7 98.7 214.9 98.8 215C100.2 222.5 102.7 229.9 105 235.9C104.5 236.1 104 236.4 103.5 236.6C103 236.8 102.8 237.4 103.1 237.9C103.3 238.3 103.6 238.5 104 238.5C104.1 238.5 104.3 238.5 104.4 238.4C104.9 238.2 105.3 238 105.8 237.7C107.6 242.2 109.2 245.7 110.1 247.5C110.2 247.8 110.3 248 110.4 248.2C108.5 249.8 100.8 255.8 80 265.1C69.2 270 63.3 275.1 62.5 280.3C62 283.4 63.5 285.6 64.3 286.5C64.5 286.8 64.7 286.9 64.8 287C64.8 287 64.9 287 64.9 287.1C64.9 287.1 65 287.1 65 287.2C65.1 287.2 65.2 287.3 65.3 287.3C65.8 287.3 72.6 287.2 81.7 283.7C91.4 280 111.5 267.6 113.6 266.3C115.1 266 116.6 265.7 118.1 265.3V265.4C128.5 289.6 146.5 308.2 163.4 313.2C163.4 313.3 163.3 313.4 163.3 313.4C161.1 351.6 156.8 375 156.3 377.6H154.3C151.7 377.6 149.6 379.7 149.6 382.3C149.6 383.3 149.9 384.2 150.5 385H129.8C115.5 385 101.7 390.2 91 399.7C89.5 401.1 88.9 403.2 89.7 405.1C90.4 407 92.2 408.3 94.3 408.3H250.2C252.3 408.3 254.1 407.1 254.8 405.1C255.5 403.2 255 401 253.5 399.7C252.7 399 251.8 398.3 251 397.6H362.8C363.1 397.6 363.4 397.5 363.6 397.3C363.8 397.1 363.9 396.8 363.8 396.5L362.7 389.6H463.4C463.7 389.6 463.9 389.5 464.1 389.3C464.3 389.1 464.4 388.9 464.4 388.6L463.2 317ZM384 119C385.7 119 388.3 119.4 388.8 121.8C387.2 121.7 385.6 121.6 384 121.6H383.9C382.3 121.6 380.7 121.7 379.1 121.7C379.7 119.4 382.3 119 384 119ZM316.5 207.9C315.8 207.5 315.5 206.8 315.5 206C315.9 198.8 317.2 185.4 321.9 171.4C321.8 174.4 321.8 177.5 321.9 180.5C321.9 180.8 322.1 181 322.4 181C322.7 181 322.9 180.8 322.9 180.5C322.8 176.4 322.8 172.2 323.1 168.2C323.9 165.9 324.9 163.7 325.9 161.4C325.1 168.9 324.4 183.8 327.9 200.4C327.9 200.6 328.2 200.8 328.4 200.8H328.5C328.8 200.7 328.9 200.5 328.9 200.2C324.9 181.2 326.5 164.4 327.3 158.6C336.7 140.1 353.5 123.8 383.6 123.6V192.3C383.6 192.6 383.8 192.8 384.1 192.8C384.4 192.8 384.6 192.6 384.6 192.3V123.6C414.1 123.8 430.6 139.9 439.9 158.2C440.7 163.7 442.4 180.8 438.3 200.2C438.2 200.5 438.4 200.7 438.7 200.8H438.8C439 200.8 439.2 200.6 439.3 200.4C442.9 183.5 442.1 168.3 441.3 160.9C442.4 163.2 443.3 165.5 444.2 167.8C444.4 171.3 444.5 174.8 444.4 178.4C444.4 178.7 444.6 178.9 444.9 178.9C445.2 178.9 445.4 178.7 445.4 178.4C445.5 175.9 445.4 173.5 445.4 171C450.1 185 451.4 198.5 451.8 205.7C451.8 206.5 451.5 207.2 450.8 207.6C450.1 208 449.3 208 448.7 207.6C440.1 202.7 420.3 194.5 383.8 194.5C347.3 194.5 327.5 202.7 318.9 207.6C318 208.3 317.2 208.3 316.5 207.9ZM341.9 231.7C336.7 234.7 331.7 237.6 326.9 239.3C325.4 239.8 323.8 239.6 322.5 238.7C321.2 237.8 320.4 236.2 320.4 234.6V210C320.4 209.8 320.3 209.5 320.2 209.4C328.9 204.6 348.3 196.9 383.5 196.9C418.8 196.9 438.1 204.6 446.8 209.4C446.7 209.6 446.6 209.8 446.6 210V235C446.6 236.5 445.9 238 444.7 238.9C443.5 239.8 442 240.1 440.6 239.8C434.6 238.3 429.1 234.9 423.2 231.3C413 225 401.3 217.8 383.2 217.8C365.9 217.8 353.1 225.2 341.9 231.7ZM381 219.8C381.8 219.8 382.5 219.7 383.3 219.7C384.1 219.7 384.8 219.7 385.5 219.8C385.2 220 385 220.3 385 220.7V294.4C384.4 294.3 383.9 294.2 383.3 294.2C382.7 294.2 382.1 294.3 381.6 294.4V220.7C381.6 220.3 381.4 220 381 219.8ZM377.7 301.8C377.7 298.7 380.2 296.2 383.3 296.2C386.4 296.2 388.9 298.7 388.9 301.8C388.9 301.9 388.9 302 389 302.1H377.6C377.6 302 377.7 301.9 377.7 301.8ZM348.9 304.1H421.8C428.7 304.1 435.2 306.6 438.6 310.6L442.4 315C442.5 315.2 442.5 315.3 442.5 315.3C442.4 315.5 441.9 315.9 441 315.9C440.9 315.9 440.7 315.9 440.6 316H350.8L348.9 304.1C348.8 304.1 348.8 304.1 348.9 304.1ZM306.1 275.6C303.2 275.4 300.2 275.2 297 275.2C294 275.2 290.9 275.3 287.9 275.5C288.2 270.8 292.2 267 297 267C301.8 267.1 305.8 270.9 306.1 275.6ZM283.5 276C284.9 272.6 286.7 270.6 288.3 269.3C286.9 271.1 286 273.3 285.9 275.8C285.1 275.9 284.3 275.9 283.5 276ZM247.3 298.6C248.4 291.2 253.5 285 260.4 282.9C263.2 282 266 281.3 268.9 280.6C267.7 284.6 266.8 289.3 266.4 294.8C264.3 327.4 259.2 349.1 251.7 357.6C251.3 358 251.4 358.6 251.8 359C252 359.2 252.2 359.3 252.5 359.3C252.8 359.3 253.1 359.2 253.2 359C263 347.9 266.9 318.1 268.4 295C268.8 289.1 269.8 284.2 271.1 280.1C271.5 279.9 271.7 279.5 271.6 279C271.6 279 271.6 278.9 271.5 278.9C275.5 268.2 282.4 263.4 288.7 262.7C292.3 262.3 295.8 263.4 297.4 265.2H297C296.8 265.2 296.3 265.1 295.7 265C293.7 263.9 290.4 263.3 286.9 264.4C283.3 265.5 276.6 269.3 272.7 282.1C270.8 288.3 270.4 294.8 270 303C269.8 306.7 269.6 310.5 269.2 314.7C269.2 315 269.4 315.2 269.7 315.2C270 315.2 270.2 315 270.2 314.7C270.6 310.4 270.8 306.6 271 302.9C271.5 294.7 271.9 288.3 273.7 282.2C277.5 269.8 283.8 266.2 287.3 265.1C289.5 264.4 291.6 264.4 293.2 264.8H293C290.9 264.6 288.2 265.1 285.4 266.8C281 269.7 275.4 276.8 273.9 294.5C273.9 294.8 274.1 295 274.4 295C274.7 295 274.9 294.8 274.9 294.5C276.4 277.2 281.8 270.3 286 267.6C286.9 267 287.8 266.6 288.7 266.3C288.2 266.6 287.8 266.9 287.3 267.2C281.2 271.9 278.1 282 278.1 297.2C278.1 300 278.1 302.8 278 305.5C278 306.1 278.4 306.5 279 306.5C279.5 306.5 280 306.1 280 305.5C280 302.8 280.1 300 280.1 297.2C280.1 288.1 281.2 281.7 282.9 277.3C283.1 277.5 283.4 277.7 283.8 277.7C288.2 277.2 292.7 277 297 277C312 277 324.8 280 332.9 282.6C339.6 284.7 344.7 290.8 345.9 298.1L358.6 379.9H259C267.3 370 272.1 352.3 273 345.6C273 345.3 272.8 345.1 272.6 345C272.3 345 272.1 345.2 272 345.4C271 352.9 265.8 370.6 257.9 379.7C257.8 379.8 257.8 379.8 257.8 379.9H235.6L247.3 298.6ZM249.8 399.9H208.7C208.4 398.4 207.5 396.8 204.7 394.4C201.1 391.4 193.2 388.5 188.4 387.3H214.1C227.1 387.3 239.7 391.7 249.8 399.9ZM208.2 406.5H198.7C198.2 405.7 198.5 404.9 199 403.7C199.2 403.1 199.5 402.5 199.7 401.9H207.9V402.2C207.8 403.4 207.7 404.7 208.2 406.5ZM184.2 406.5C183 405.8 180.9 405 178.5 404C177 403.4 175 402.6 173.3 401.8H198.6C198.5 402.3 198.3 402.7 198.1 403.2C197.7 404.2 197.2 405.3 197.6 406.4H184.2V406.5ZM168.2 406.5C163.3 405.6 154.3 403.6 150.3 401.9H171C172.8 402.8 175.3 403.8 178.2 405C179.6 405.5 180.9 406.1 182 406.5H168.2ZM129.3 406.5C128.2 405.8 126.1 403.6 124.7 401.9H148.3C150.7 403.6 157.9 405.4 163.2 406.5H129.3ZM122.6 406.5C121.9 406.2 121.1 406 120.4 405.8C117.8 405 115.6 404.4 114.5 401.9H123.5C124.5 403.3 126.3 405.3 127.7 406.5H122.6ZM93.6 399.9C102.3 392.9 112.8 388.6 123.9 387.5C120.8 389.2 116.4 393.4 114.2 396.9C113.5 398 113.1 399 113 399.8H93.6V399.9ZM153.8 387.3H156.8C156.3 388.6 154.4 389.9 152.4 391.2C149.7 393 146.9 394.9 146.5 397.5C146.4 398.3 146.5 399.1 146.8 399.9H124.7C126.9 398.4 129.1 396.3 131.1 394.2C133.9 391.4 136.8 388.6 139.8 387.3H153.8ZM147.9 399.9C147.5 399.1 147.4 398.4 147.5 397.6C147.9 395.4 150.5 393.7 153 392C155.3 390.5 157.4 389 157.8 387.3H173.8C173 387.5 172.2 387.8 171.5 388.2C170 388.9 160.7 394.6 160.3 398.6C160.3 399.1 160.4 399.5 160.6 400H147.9V399.9ZM168.5 398.6C168.6 397.3 169.1 396.2 170.2 395.4C172.9 393.1 178.5 392.7 181.4 393C184.4 393.4 196.7 397.3 197.9 398.9C198.2 399.3 198.4 399.6 198.5 399.9H169.6C168.9 399.4 168.5 399 168.5 398.6ZM199.6 399.9C199.5 399.4 199.2 398.8 198.7 398.2C197.1 396.3 184.6 392.4 181.5 392C179 391.7 172.8 391.9 169.6 394.6C168.3 395.7 167.6 397 167.6 398.5C167.6 399 167.8 399.4 168.2 399.9H161.9C161.5 399.6 161.3 399.1 161.3 398.6C161.6 395.4 169.7 390 171.9 389C176.2 387.1 181.7 386.7 187.4 388C192 389.1 200.4 392.1 204 395.1C206.4 397.2 207.3 398.5 207.6 399.8H199.6V399.9ZM184.7 372.6C172.7 360.1 174.5 354.7 177.5 346C178.5 343.1 179.6 339.9 180.3 336C181.8 353.3 183.6 365.8 184.7 372.6ZM179.9 331.6C179.3 337.4 177.8 341.7 176.5 345.6C173.4 354.6 171.4 360.6 185 374.3C185.3 376 185.5 377.1 185.6 377.8H171.3C164.6 356.2 166 334.9 175.2 314.5C176.4 314.3 177.7 314.1 178.9 313.8C178.8 314 178.7 314.2 178.7 314.5C179 320.6 179.4 326.3 179.9 331.6ZM202.2 297.3C200.6 291.3 202.3 284.4 206.7 279.4C208.7 277.2 211.7 275.8 214.7 274.4C217 273.4 219.3 272.3 221.2 270.8C219.5 274.2 217.6 277.5 215.5 280.7C214.9 281.1 214.2 281.6 213.4 282C210.3 283.9 206.7 286.1 206.1 289.1C205.9 290.2 206.1 291.3 206.7 292.4C206.5 292.6 206.3 292.9 206.1 293.1C204.9 294.6 203.5 296 202.2 297.3ZM207.4 291.7C207 290.9 206.9 290.2 207.1 289.4C207.6 286.9 211.1 284.7 213.9 283C214 283 214 282.9 214.1 282.9C212.1 285.9 209.8 288.9 207.4 291.7ZM225.5 258.2C226 257.9 226.4 257.7 226.9 257.4C225.6 261.1 224.2 264.7 222.5 268.3C220.6 270.7 217.5 272.1 214.3 273.6C211.2 275 208.1 276.4 206 278.8C201.3 284.1 199.5 291.7 201.4 298.1C199.8 299.7 198.1 301.1 196.4 302.4C189.7 279.7 208.7 268.3 225.5 258.2ZM228.3 229C226.4 229.8 224.4 230.6 222.3 233.1C221 234.6 220.3 236.6 219.5 238.6C218.8 240.6 218 242.7 216.6 244.3C213.5 248 209.8 250.3 206.2 252.6C201.7 255.5 197 258.5 193.4 264.2C190.1 269.4 188.3 275.4 186.6 281.2C184.8 287.2 183.1 292.8 179.9 297.6C174.3 306.1 168.8 305.3 161.8 304.4C158.2 303.9 154.1 303.4 149.6 304.1C149.5 304.1 149.3 304.2 149.3 304.3C146.9 302.6 144.6 300.6 142.3 298.5C144 298.5 145.8 298.5 147.7 298.6C149.3 298.6 151 298.7 152.7 298.7C158.1 298.7 163.5 298.2 167.8 295.7C173.6 292.2 176.1 285.6 178.5 279.3C179.3 277.3 180 275.3 180.8 273.5C185.4 263.6 191 255.6 197.4 249.7C199.1 248.1 201.3 246.7 203.6 245.2C209.2 241.6 215.5 237.5 215.5 230.5C221.3 227.2 227 223.9 232.5 220.6C232.5 220.7 232.4 220.8 232.5 220.9C232.6 222.3 232.6 223.7 232.6 225.2V226.7C231 227.9 229.7 228.5 228.3 229ZM271.5 209.1C264.4 212 247 215.6 238 217.4C255.3 207.1 270.1 198.3 277.4 198.3H277.5C283.7 198.3 286.3 199.7 287.3 200.4C285.8 201.8 281.2 205.2 271.5 209.1ZM230.7 201.3C230.8 201.5 230.8 201.6 230.8 201.8C228.2 202.5 221 204.4 210.9 207.6L212.8 194.8C219.3 192.8 224.2 191.4 227.1 190.6C228.8 195.3 230 199.1 230.7 201.3ZM186.7 215.5L188.6 202.8C190.3 202.2 192.1 201.6 193.7 201L191.8 213.7L186.7 215.5ZM162.1 212.6L160.2 225.4C158.4 226.1 156.7 226.8 155 227.5L156.9 214.6C158.6 213.9 160.4 213.3 162.1 212.6ZM163.1 212.2C163.8 211.9 164.5 211.7 165.1 211.4L163.2 224.2C162.5 224.5 161.8 224.7 161.2 225L163.1 212.2ZM166.3 211C168 210.3 169.8 209.7 171.5 209L169.6 221.8C167.9 222.5 166.1 223.1 164.4 223.8L166.3 211ZM172.5 208.6C177.8 206.6 182.8 204.8 187.5 203.1L185.6 215.8C180.8 217.5 175.7 219.3 170.6 221.3L172.5 208.6ZM194.8 200.6C195.5 200.4 196.2 200.1 196.8 199.9L194.9 212.6C194.2 212.8 193.6 213.1 192.9 213.3L194.8 200.6ZM197.9 199.6C198.7 199.3 199.5 199.1 200.3 198.8L198.4 211.5C197.6 211.8 196.8 212 196 212.3L197.9 199.6ZM201.3 198.4C203.9 197.5 206.4 196.7 208.7 196L206.8 208.8C204.5 209.5 202 210.3 199.4 211.2L201.3 198.4ZM209.7 195.7C210.4 195.5 211.1 195.3 211.7 195.1L209.8 207.9C209.1 208.1 208.5 208.3 207.8 208.5L209.7 195.7ZM96.1 164.9C98 159.2 101.4 155.5 106.4 153.9C112 152 117.8 153 123.8 154.1C127.5 154.8 131.2 155.4 135 155.4C138 155.4 141.1 155 144.2 153.8C144.7 153.6 145 153 144.8 152.5C144.6 152 144 151.7 143.5 151.9C137 154.4 130.4 153.2 124.1 152.1C121.9 151.7 119.6 151.3 117.3 151.1L121.8 150.2C126.1 149.4 130.4 148.6 135.2 147.2L136.1 146.9C137.4 146.5 138.6 146.1 139.9 145.6C140.3 145.5 140.6 145.4 141 145.2C148.1 142.5 153.4 139.3 158.5 136.1C159.4 135.5 160.4 135 161.3 134.4C161.7 134.2 162 134 162.4 133.8L161.439 134.015C158 139 158 139 154.561 143.985C155.7 144 155.9 144 156.1 144C156.4 144 156.7 143.9 156.9 143.6C157.8 142.5 158.7 141.4 159.6 140.2C163.4 135.4 167 130.8 172.4 128.5C185.3 123 195.9 137.5 196 137.6C198.2 140.7 206 152.2 215.9 167.3C220.4 174.1 223.8 181.9 226.3 188.5C216.8 191.1 186.4 200 148.1 215.9V211.7C148.1 211.3 147.8 210.9 147.4 210.7C147 210.6 146.5 210.7 146.3 211.1L144.1 214.6L141.4 207.1C141.3 206.7 140.9 206.5 140.5 206.4C140.1 206.4 139.7 206.6 139.5 206.9L136.9 211.5C136.1 209.1 135 205.4 134.7 204.3C132.9 198.4 126.5 194.9 119.7 191.3C118 190.4 116.3 189.5 114.7 188.5C114.3 188.3 113.9 188.3 113.6 188.6C113.3 188.9 113.2 189.3 113.3 189.7L117.3 200.7C115.4 198.5 112.8 194.7 110.1 188.4C108.6 184.9 97.7 179.4 95.1 178.2C95 177.4 94.9 176.7 94.8 176.1C94.5 174.4 94.5 169.6 96.1 164.9ZM131.6 223.1C131.5 223 131.3 223 131.1 223L130 223.1L132.3 220.6C132.6 220.3 132.6 219.8 132.4 219.4C132.2 219 131.7 218.9 131.2 219C123.9 221.5 117.7 222.1 113.4 222.2C120.4 219.9 125.6 216.7 126.5 216.1C127 216.3 127.4 216.4 127.9 216.6C128 216.6 128 216.6 128.1 216.7C129.1 217 130.2 217.3 131.2 217.6C131.3 217.6 131.3 217.7 131.4 217.7C134.1 218.4 137 219.1 140 219.6C137.3 220.6 134.5 221.9 131.6 223.1ZM105.4 204.7C100 196.9 98.1 186 97.6 182.1C98.6 182.7 99.7 183.2 100.7 183.8C101 187 102.5 198.5 109 206.9C107.8 206.2 106.6 205.5 105.4 204.7ZM111.6 208.4C104.2 200.7 102.3 188.7 101.8 184.4C104.9 186.3 107.6 188.2 108.2 189.5C113.7 202.1 118.9 205.3 119.1 205.4C119.5 205.6 119.9 205.6 120.2 205.3C120.5 205 120.6 204.6 120.5 204.2L116 191.8L118.7 193.3L119.3 193.6C121.4 196.6 127.3 206.1 127.7 215.4C121.7 213.5 116.3 211.1 111.6 208.4ZM126 197.4C127.4 200.3 131.3 208.9 131.1 216.4C130.3 216.2 129.5 215.9 128.8 215.7C128.6 207.2 123.9 198.8 121.3 194.6C122.9 195.6 124.5 196.5 126 197.4ZM141.7 218.8C141.6 218.7 141.5 218.7 141.4 218.7C138.1 218.2 135 217.5 132.1 216.7C132.3 210 129.4 202.5 127.7 198.6C130.2 200.5 132.1 202.6 132.9 205.1C133.4 206.8 135.7 214.2 135.8 214.5C135.9 214.9 136.3 215.2 136.6 215.2C137 215.2 137.4 215 137.6 214.7L140.3 210L143 217.4C143.1 217.7 143.3 217.9 143.6 218C142.9 218.3 142.3 218.5 141.7 218.8ZM146.2 216.9C145.7 217.1 145.3 217.3 144.8 217.5L146.2 215.4V216.9ZM93.3 190.5C93.5 191 93.9 191.2 94.4 191.1C94.9 191 95.2 190.6 95.2 190.1L95.1 180.8C95.5 181 96 181.2 96.4 181.5C96.8 184.5 98.4 195 103.2 203.3C97.3 199.1 92.8 194.9 89.7 191.5C89 190.4 85.4 184.3 85 179.3C86.4 179.6 87.6 179.8 88.1 180.1C89.3 180.8 91.7 186 93.3 190.5ZM86.9 188.1C85.5 186.3 84.7 185.2 84.7 185.2C84.7 185.2 83 182.7 82.1 178.9L84.2 179.2C84.4 182.2 85.7 185.5 86.9 188.1ZM78.2 178.4C79.1 178.5 80 178.6 81 178.7C82 182.9 83.7 185.6 83.8 185.7C83.9 185.8 85.3 187.9 88.2 191.2C85.8 190.6 80.9 188.9 78.4 184.7C78.1 182.1 78.1 179.7 78.2 178.4ZM85.4 199.1L89 197.7C89.3 197.6 89.5 197.3 89.6 197C89.7 196.7 89.6 196.4 89.4 196.1C88.3 194.6 82.7 192.7 80.6 192C79.7 190.6 79.1 188.7 78.7 186.7C82.4 191.1 88.4 192.2 89.4 192.4C91.9 195 95.2 198.2 99.4 201.5C97.5 202 93 202.9 88.5 202C87 200.9 86 199.8 85.4 199.1ZM98.9 207.5C99.2 207.2 99.3 206.8 99.2 206.4C99.1 206 98.8 205.7 98.4 205.7C95.1 205.3 92.5 204.4 90.5 203.3C91.2 203.4 91.8 203.4 92.5 203.4C96.4 203.4 99.6 202.5 100.4 202.3C101.8 203.3 103.2 204.4 104.8 205.4C104.9 205.5 105 205.6 105.1 205.6C106.9 206.8 108.9 208 111 209.2C111.1 209.3 111.2 209.3 111.3 209.3C115.5 211.6 120.2 213.8 125.4 215.5C123.3 216.8 117.5 220 110.2 221.9C109.4 221.8 108.7 221.8 108.2 221.7L112.9 215.4C113.2 215.1 113.2 214.6 112.9 214.2C112.6 213.8 112.2 213.7 111.8 213.8C105.8 215.7 97.9 212.1 94.9 210.5L98.9 207.5ZM100.3 215.3C103.2 216.2 106.5 216.9 109.8 216.6L105.7 222.1C105.5 222.4 105.4 222.7 105.6 223C105.8 223.3 106 223.6 106.3 223.6C106.7 223.7 115.2 225.7 128.5 221.9L127 223.6C126.7 223.9 126.7 224.3 126.8 224.7C126.9 224.9 127 225 127.1 225.1C120.3 228.2 113.3 231.5 106.2 234.9C104 229.3 101.7 222.4 100.3 215.3ZM106.9 236.9C124.1 228.4 140.7 221.2 155.8 215.1L153.9 228C131.8 237.1 115.4 245.2 111.4 247.3C111.3 247.2 111.3 247 111.2 246.9C110.3 244.9 108.7 241.4 106.9 236.9ZM63.8 280.8C64.3 277.7 67.6 272.8 80.2 267.1C80.3 267 80.4 267 80.6 266.9C86.6 264.7 95.5 262.3 106.4 259.7C106.7 259.6 106.8 259.4 106.8 259.1C106.7 258.8 106.5 258.7 106.2 258.7C99.2 260.4 93.1 261.9 88.1 263.4C105.2 255.1 110.7 250.2 111.6 249.3C113.6 248.3 138.4 235.7 170.8 223.3C178.3 220.4 185.6 217.8 192.3 215.6C214 208.2 230 203.9 232.1 203.4C233.4 203.7 238.4 203.9 253.8 199.6C249 202.1 244 205.1 238.7 208.2L235.8 209.9C235.6 210 235.5 210.3 235.6 210.6C235.7 210.8 235.9 210.8 236 210.8C236.1 210.8 236.2 210.8 236.3 210.7L239.2 209C246.5 204.7 253.2 200.7 259.5 197.8C260.5 197.5 261.6 197.2 262.7 196.8C276.2 192.6 282.3 194 285.1 196C285.8 196.5 286.4 197.1 286.8 197.7C285 196.9 282.1 196.2 277.5 196.2H277.4C269.5 196.2 254.9 204.9 236.4 215.8C218 226.7 197.2 239.1 176.3 247.1C153.6 255.8 125.9 261.5 103.7 266.1C84.5 270.1 70.7 273 67.3 276.2C65.8 277.9 64.6 279.4 63.8 280.8ZM80.4 281.9C72.7 284.9 66.7 285.3 65.1 285.4C65 285.2 64.8 284.8 64.8 284.3C64.8 283.3 65.3 281.2 68.8 277.8C71.8 275 86.8 271.8 104.2 268.2C105.1 268 106.1 267.8 107.1 267.6C100.1 271.8 87.3 279.3 80.4 281.9ZM119.5 265C138.4 260.9 159.2 255.9 177.1 249.1C189.8 244.3 202.4 237.8 214.5 231.1C214.2 237.2 208.6 240.9 203.1 244.4C200.7 245.9 198.5 247.4 196.7 249C190.2 255 184.5 263.1 179.9 273.1C179.1 274.9 178.3 276.9 177.5 278.9C175.1 285.1 172.7 291.5 167.2 294.8C161.9 298 154.4 297.8 147.7 297.6C145.5 297.5 143.5 297.5 141.5 297.5C141.4 297.5 141.3 297.5 141.3 297.6C132.9 289.3 125.1 278 119.5 265ZM164.8 313.9C167.1 314.5 169.5 314.8 171.7 314.8C172.5 314.8 173.3 314.8 174 314.7C164.9 335.1 163.7 356.3 170.2 377.8H157.8C158.6 373.8 162.6 350.7 164.8 313.9ZM151.1 382.5C151.1 381 152.3 379.8 153.8 379.8H189.6C191.1 379.8 192.3 381 192.3 382.5C192.3 384 191.1 385.2 189.6 385.2H153.8C152.3 385.3 151.1 384 151.1 382.5ZM137.7 387.3C135.2 388.8 132.8 391.2 130.5 393.5C128 396 125.4 398.5 122.8 399.9H114C114.1 399.2 114.5 398.4 115.1 397.5C117.6 393.4 123.4 388.2 126 387.8C126.2 387.8 126.4 387.6 126.4 387.4C127.3 387.4 128.3 387.3 129.3 387.3H137.7ZM91 404.7C90.7 403.9 90.7 402.8 91.4 401.9H113.4C114.6 404.9 116.7 405.8 119.3 406.5H93.7C92.2 406.5 91.3 405.6 91 404.7ZM252.4 404.7C252.1 405.6 251.2 406.6 249.7 406.6H209.2C208.7 404.8 208.7 403.5 208.8 402.3V402H252C252.7 402.8 252.7 403.9 252.4 404.7ZM248.3 395.8C248.1 395.8 248 395.8 247.9 395.9C243.7 392.9 239.1 390.5 234.3 388.8V388.7L235.4 381.3H358.8L361.1 395.9H248.3V395.8ZM362.3 387.8C362.1 387.8 362 387.9 361.8 387.9L360.8 381.2H362.6C362.9 381.2 363.1 381 363.1 380.7C363.1 380.4 362.9 380.2 362.6 380.2H360.6L351 318H461.3L461.8 387.8H362.3Z" fill="black"/>
<path d="M410.5 137.5C412.3 137.5 413.8 136 413.8 134.2C413.8 132.4 412.3 130.9 410.5 130.9C408.7 130.9 407.2 132.4 407.2 134.2C407.2 136 408.7 137.5 410.5 137.5ZM410.5 132C411.7 132 412.8 133 412.8 134.3C412.8 135.6 411.8 136.6 410.5 136.6C409.3 136.6 408.2 135.6 408.2 134.3C408.2 133 409.3 132 410.5 132ZM357.5 137.5C359.3 137.5 360.8 136 360.8 134.2C360.8 132.4 359.3 130.9 357.5 130.9C355.7 130.9 354.2 132.4 354.2 134.2C354.2 136 355.7 137.5 357.5 137.5ZM357.5 132C358.7 132 359.8 133 359.8 134.3C359.8 135.6 358.8 136.6 357.5 136.6C356.2 136.6 355.2 135.6 355.2 134.3C355.2 133 356.2 132 357.5 132ZM437.2 233.7C435.4 233 433.5 232 431.3 230.9C431.1 230.8 430.8 230.9 430.6 231.1C430.5 231.3 430.6 231.6 430.8 231.8C433 233 434.9 233.9 436.8 234.7C437.4 234.9 438 235.1 438.7 235.1C439.6 235.1 440.6 234.8 441.4 234.3C442.7 233.4 443.5 231.9 443.5 230.3V210.7C443.5 210.4 443.3 210.2 443 210.2C442.7 210.2 442.5 210.4 442.5 210.7V230.3C442.5 231.5 441.9 232.7 440.8 233.4C439.8 234 438.4 234.2 437.2 233.7ZM415.4 222.2C415.5 222 415.4 221.7 415.2 221.5C407.9 217.6 397.6 213.2 383 213.2C365 213.2 351.8 220.6 340.2 227.2C336.7 229.2 333.3 231.1 330.1 232.6C328.9 233.2 327.5 233.1 326.4 232.4C325.3 231.7 324.6 230.5 324.6 229.2V210.6C324.6 210.3 324.4 210.1 324.1 210.1C323.8 210.1 323.6 210.3 323.6 210.6V229.2C323.6 230.8 324.4 232.3 325.8 233.2C326.6 233.7 327.5 234 328.4 234C329.1 234 329.8 233.8 330.5 233.5C333.8 231.9 337.1 230.1 340.7 228.1C352.2 221.6 365.3 214.3 383 214.3C397.3 214.3 407.5 218.7 414.7 222.5C415 222.5 415.3 222.4 415.4 222.2Z" fill="black"/>
<path d="M327.8 216.8C328.1 216.8 328.3 216.6 328.3 216.3V209.2C328.3 208.9 328.1 208.7 327.8 208.7C327.5 208.7 327.3 208.9 327.3 209.2V216.3C327.3 216.5 327.5 216.8 327.8 216.8ZM328.7 228.3C329.2 228.6 329.8 228.8 330.3 228.8C330.7 228.8 331.2 228.7 331.6 228.5C333.9 227.4 336.3 226.2 338.5 225C338.7 224.9 338.8 224.6 338.7 224.3C338.6 224.1 338.3 224 338 224.1C335.8 225.2 333.5 226.4 331.2 227.5C330.6 227.8 329.8 227.7 329.2 227.4C328.6 227 328.3 226.4 328.3 225.7V219.7C328.3 219.4 328.1 219.2 327.8 219.2C327.5 219.2 327.3 219.4 327.3 219.7V225.7C327.3 226.8 327.8 227.7 328.7 228.3ZM351.1 218.6C358.8 215 369.4 210.8 383.1 210.8C401.5 210.8 413.4 217.5 423.9 223.4C427.9 225.6 431.7 227.8 435.6 229.4C436 229.6 436.4 229.6 436.8 229.6C437.4 229.6 438 229.4 438.5 229.1C439.3 228.5 439.8 227.6 439.8 226.6V209.1C439.8 208.8 439.6 208.6 439.3 208.6C439 208.6 438.8 208.8 438.8 209.1V226.6C438.8 227.3 438.5 227.9 437.9 228.2C437.3 228.6 436.6 228.7 435.9 228.4C432.1 226.8 428.3 224.7 424.3 222.5C413.7 216.6 401.7 209.8 383.1 209.8C369.2 209.8 358.4 214 350.6 217.6C350.4 217.7 350.2 218 350.4 218.3C350.5 218.6 350.8 218.7 351.1 218.6ZM387.5 151.9C387.8 151.9 388 151.7 388 151.4V125.8C388 125.5 387.8 125.3 387.5 125.3C387.2 125.3 387 125.5 387 125.8V151.4C387 151.7 387.3 151.9 387.5 151.9ZM380.6 184.6C380.9 184.6 381.1 184.4 381.1 184.1V164.5C381.1 164.2 380.9 164 380.6 164C380.3 164 380.1 164.2 380.1 164.5V184.1C380.1 184.4 380.3 184.6 380.6 184.6ZM443.4 194.3C443.7 194.3 443.9 194.1 444 193.9C444.5 190.8 444.8 187.6 445 184.4C445 184.1 444.8 183.9 444.5 183.9C444.2 183.9 444 184.1 444 184.4C443.8 187.6 443.4 190.7 443 193.8C442.9 194 443.1 194.2 443.4 194.3ZM323.6 194.2C323.9 194.2 324.1 193.9 324.1 193.6C323.7 190.8 323.4 187.9 323.2 184.9C323.2 184.6 322.9 184.4 322.7 184.4C322.4 184.4 322.2 184.7 322.2 184.9C322.4 187.8 322.7 190.8 323.1 193.6C323.1 194.1 323.3 194.2 323.6 194.2ZM274 357.1C273.7 357 273.5 357.2 273.4 357.5C271.7 364.3 269.6 369.9 267.1 374.9C267 375.1 267.1 375.4 267.3 375.6C267.4 375.6 267.5 375.7 267.5 375.7C267.7 375.7 267.9 375.6 267.9 375.4C270.5 370.4 272.6 364.6 274.3 357.8C274.4 357.4 274.2 357.1 274 357.1ZM274.8 353.4H274.9C275.1 353.4 275.3 353.2 275.4 353C277.6 342.4 278.9 329.5 279.4 313.5C279.4 313.2 279.2 313 278.9 313C278.6 313 278.4 313.2 278.4 313.5C277.9 329.4 276.6 342.3 274.4 352.8C274.4 353.1 274.5 353.3 274.8 353.4ZM269.5 320.5C269.5 320.2 269.3 320 269 320C268.7 320 268.5 320.2 268.5 320.5C265.1 357.4 252.4 364.1 252.3 364.1C252.1 364.2 252 364.5 252.1 364.8C252.2 365 252.4 365.1 252.5 365.1C252.6 365.1 252.6 365.1 252.7 365C253.3 364.7 266 358.1 269.5 320.5Z" fill="black"/>
<path d="M267 351C267.5 349.2 268 347.4 268.2 345.9C268.2 345.6 268.1 345.4 267.8 345.3C267.5 345.2 267.3 345.4 267.2 345.7C266 352.6 261.5 365.1 254.5 369.1C254.3 369.2 254.2 369.5 254.3 369.8C254.4 370 254.6 370 254.7 370C254.8 370 254.9 370 255 369.9C258.2 368 260.9 364.6 263 360.7C261.2 365.7 258.8 370.8 255.9 374.6C255.7 374.8 255.8 375.1 256 375.3C256.1 375.4 256.2 375.4 256.3 375.4C256.5 375.4 256.6 375.3 256.7 375.2C261.7 368.8 265.3 358.5 267 351ZM270.5 340.6C270.5 340.6 270.6 340.6 270.5 340.6C270.8 340.6 271 340.4 271.1 340.2C273.4 327.6 274.1 316.2 274.5 308.7C274.6 306 274.8 303.8 274.9 302.1C274.9 301.8 274.7 301.6 274.5 301.6C274.2 301.6 274 301.8 274 302C273.8 303.7 273.7 306 273.6 308.7C273.2 316.2 272.6 327.5 270.2 340C270 340.3 270.2 340.6 270.5 340.6ZM315.2 285.3C317.1 286.1 319 287 320.8 288C325 290.4 328.2 297.2 328.9 305.5L329.4 311.1C329.4 311.4 329.6 311.6 329.9 311.6C330.2 311.6 330.4 311.3 330.4 311.1L329.9 305.5C329.1 296.8 325.9 289.7 321.3 287.2C319.4 286.1 317.5 285.2 315.6 284.4C315.3 284.3 315.1 284.4 314.9 284.7C314.8 284.9 314.9 285.2 315.2 285.3ZM299 281.9C302.6 281.9 306.3 282.4 310 283.5H310.1C310.3 283.5 310.5 283.4 310.6 283.1C310.7 282.8 310.5 282.6 310.3 282.5C306.5 281.4 302.7 280.9 299 280.9C298.7 280.9 298.5 281.1 298.5 281.4C298.5 281.7 298.7 281.9 299 281.9ZM176.8 138.8C181.3 137.9 186.3 139.7 189.2 143.3C190.6 145.1 191.6 147.3 192.5 149.4C192.7 149.8 192.9 150.2 193.1 150.7C196.7 158.6 199.3 162.3 205.8 168.4C205.9 168.5 206 168.5 206.1 168.5C206.2 168.5 206.4 168.4 206.5 168.3C206.7 168.1 206.7 167.8 206.5 167.6C200.1 161.6 197.5 158 194 150.3C193.8 149.9 193.6 149.5 193.4 149C192.4 146.8 191.5 144.6 189.9 142.7C186.8 138.8 181.4 136.9 176.5 137.9C176.2 138 176.1 138.2 176.1 138.5C176.3 138.7 176.6 138.9 176.8 138.8ZM122.5 256.9H122.6C138.2 253.5 158.4 248.7 176.3 241.9C184.3 238.9 192.8 234.9 202.4 229.8C202.6 229.7 202.7 229.4 202.6 229.1C202.5 228.9 202.2 228.8 201.9 228.9C192.3 234 183.8 237.9 175.9 240.9C158.1 247.7 137.9 252.5 122.3 255.9C122 256 121.9 256.2 121.9 256.5C122.1 256.8 122.3 256.9 122.5 256.9ZM209.2 226.2C209.3 226.2 209.4 226.2 209.4 226.1C216.7 222.1 223.8 217.9 229.9 214.3C230.1 214.2 230.2 213.9 230.1 213.6C230 213.4 229.7 213.3 229.4 213.4C223.3 217 216.2 221.2 208.9 225.2C208.7 225.3 208.6 225.6 208.7 225.9C208.8 226.1 209 226.2 209.2 226.2Z" fill="black"/>
</svg>
