<svg width="526" height="526" viewBox="0 0 526 526" fill="none" xmlns="http://www.w3.org/2000/svg">
<path d="M123.3 254.9H101.5C101.2 254.9 101 255.1 101 255.4C101 255.7 101.2 255.9 101.5 255.9H123.3C123.6 255.9 123.8 255.7 123.8 255.4C123.8 255.1 123.6 254.9 123.3 254.9ZM155.9 231.5C156.4 234 156.3 236.3 155.6 238.3C155.5 238.6 155.7 238.8 155.9 238.9H156.1C156.3 238.9 156.5 238.8 156.6 238.6C157.3 236.4 157.4 233.9 156.9 231.3C156.3 228.2 155.6 225 154.8 221.7C154.7 221.4 154.5 221.3 154.2 221.3C153.9 221.4 153.8 221.6 153.8 221.9C154.6 225.2 155.3 228.4 155.9 231.5ZM152.6 214.2H152.7C153 214.1 153.1 213.9 153.1 213.6C151.3 205.4 149.3 195.5 148 184.4C148 184.1 147.7 183.9 147.4 184C147.1 184 146.9 184.3 147 184.6C148.3 195.7 150.3 205.6 152.1 213.9C152.1 214.1 152.4 214.2 152.6 214.2ZM292 201.4C273.4 199.8 247.6 197.6 230.6 195.7C228.5 195.5 226.6 196.9 226.3 199C226.1 200.1 226.4 201.2 227.1 202C227.8 202.8 228.8 203.4 229.9 203.4C234.6 203.6 265.2 204.9 276.8 205.2C277.1 205.2 277.3 205 277.3 204.7C277.3 204.4 277.1 204.2 276.8 204.2C265.1 203.8 234.6 202.6 229.9 202.4C229.1 202.4 228.3 202 227.8 201.3C227.3 200.7 227.1 199.8 227.2 199C227.4 197.5 228.8 196.4 230.4 196.6C247.4 198.5 273.2 200.7 291.8 202.3C292.1 202.3 292.3 202.1 292.3 201.8C292.5 201.7 292.3 201.5 292 201.4ZM91.1001 326.8C90.9001 326.6 90.6001 326.7 90.4001 326.9C90.4001 327 90.3001 327 90.3001 327.1C90.1001 326.9 89.8001 326.9 89.6001 327.1C85.0001 332.2 87.5001 346.2 92.8001 353C95.0001 355.8 97.4001 357.2 99.9001 357.2C101 357.2 102.2 356.9 103.3 356.3C104.8 355.5 105.6 354.2 105.8 352.5C106.5 344.6 94.2001 329.2 91.1001 326.8ZM104.8 352.3C104.7 353.8 104 354.8 102.9 355.4C98.8001 357.5 95.6001 354.9 93.6001 352.3C88.1001 345.2 86.4001 332.1 90.4001 327.7C90.5001 327.6 90.5001 327.6 90.5001 327.5C93.7001 330.1 105.5 345.2 104.8 352.3Z" fill="black"/>
<path d="M463.3 337C463.4 336.8 463.5 336.5 463.4 336.2L456.9 311.2C456.8 310.7 456.2 310.3 455.7 310.5C455.4 310.6 455.2 310.8 455 311.1C454.7 311.3 454.2 311.5 453.6 311.9C456 294.8 442.2 274.6 434.8 263.6C433.5 261.7 432.4 260.1 431.7 258.9C431.6 258.7 431.3 258.5 431 258.4C430.7 258.3 430.4 258.4 430.2 258.6C430.1 258.7 427 260.9 422.1 264.2V212.9C422.1 210.6 420.2 208.7 417.9 208.7H367.7C395.1 206.5 412 199.9 419.5 188.7C420 187.9 420.5 187.1 420.9 186.3C421.3 185.5 421.1 184.4 420.5 183.9C420 183.5 419.3 183.5 418.8 183.9L418.6 183.3C416.7 179.1 413.4 175.9 409.2 174.3L351.9 150.9L341.5 145.2L342.8 141.6C343 141.1 342.7 140.5 342.2 140.3C341.7 140.1 341.1 140.4 340.9 140.9L339.7 144.2L328.8 138.2L330 134.6C330.2 134.1 329.9 133.5 329.4 133.3C328.9 133.1 328.3 133.4 328.1 133.9L327 137.1L316.3 131.2L317.5 127.6C317.7 127.1 317.4 126.5 316.9 126.3C316.4 126.1 315.8 126.4 315.6 126.9L314.5 130.2L296.5 120.3C292.6 118 288 118 284.4 120.4C281 122.6 279.3 126.4 279.8 130.5L280.8 139.8C274.7 144.6 267.7 147.2 260.7 147.2C254.2 147.2 248.2 145.5 242.6 142.3C238.2 139.7 234.4 136.2 231.3 132C229.9 130.1 227.6 128.4 225.7 128.9C225.1 129.1 224.1 129.6 223.8 131.2V188.5L221 188.2C219.2 188 217.6 189.4 217.1 191.6L215.4 203.1C215.1 204.7 215.4 206.3 216.3 207.5C216.6 207.9 217 208.3 217.4 208.5H211.9C209.6 208.5 207.7 210.4 207.7 212.7V259.8C201 252.8 195.2 239.3 188.4 212.6C183 191.3 177.6 158.3 177.6 157.9C177.6 157.6 177.4 157.4 177.1 157.2C176.9 157 176.6 157 176.3 157.1C173.3 158 170.3 158.7 167.5 159.2C157.9 161.2 149.5 162.9 150.1 176.9C146.8 175.8 136.9 173.3 115.1 175C114.5 172.6 113.5 170.7 112.1 169.2C108.4 165.3 102.7 165.4 97.7 165.5C96.1 165.5 94.6 165.6 93.2 165.5C92.9 165.5 92.6 165.6 92.4 165.8C92.2 166 92.1 166.3 92.1 166.6C92.1 166.8 93.9 187.7 88.4 199.1C82.6 211.2 79.4 228.9 84.6 239.4L85.6 246.3H85C84.7 246.3 84.5 246.5 84.5 246.8C84.5 247.1 84.7 247.3 85 247.3H85.8L86.9 254.6H86.2C85.9 254.6 85.7 254.8 85.7 255.1C85.7 255.4 85.9 255.6 86.2 255.6H87L88.1 262.9H87.4C87.1 262.9 86.9 263.1 86.9 263.4C86.9 263.7 87.1 263.9 87.4 263.9H88.2L89.3 271.2H88.7C88.4 271.2 88.2 271.4 88.2 271.7C88.2 272 88.4 272.2 88.7 272.2H89.4L90.5 279.5H89.9C89.6 279.5 89.4 279.7 89.4 280C89.4 280.3 89.6 280.5 89.9 280.5H90.7L91.8 287.8H91.4C91.1 287.8 90.9 288 90.9 288.3C90.9 288.6 91.1 288.8 91.4 288.8H91.9L93 296.1H92.5C92.2 296.1 92 296.3 92 296.6C92 296.9 92.2 297.1 92.5 297.1H93.2L94.3 304.4H93.7C93.4 304.4 93.2 304.6 93.2 304.9C93.2 305.2 93.4 305.4 93.7 305.4H94.5L95.1 309.8H66.2C63.9 309.8 62 311.7 62 314V396.9C62 397.5 62.4 397.9 63 397.9H226.4L199.7 404.9C199.2 405 198.9 405.5 199 406C199.1 406.5 199.5 406.9 200 406.9H461.2C461.8 406.9 462.2 406.5 462.2 405.9V395.9H462.6C462.9 395.9 463.1 395.7 463.1 395.4C463.1 395.1 462.9 394.9 462.6 394.9H462.2V384.4H462.6C462.9 384.4 463.1 384.2 463.1 383.9C463.1 383.6 462.9 383.4 462.6 383.4H462.2V372.9H462.6C462.9 372.9 463.1 372.7 463.1 372.4C463.1 372.1 462.9 371.9 462.6 371.9H462.2V361.4H462.9C463.2 361.4 463.4 361.2 463.4 360.9C463.4 360.6 463.2 360.4 462.9 360.4H462.2V349.9H462.9C463.2 349.9 463.4 349.7 463.4 349.4C463.4 349.1 463.2 348.9 462.9 348.9H462.2V341.7C462.2 340.4 461.6 339.2 460.6 338.4C460.5 338.3 460.4 338.3 460.2 338.2L462.8 337.5C463 337.4 463.2 337.2 463.3 337ZM327.6 371.4C331.5 369.8 334.5 368.3 336.6 367.1C338.4 366 340.2 364.9 341.9 363.8C353.3 356.8 364 350.1 382.9 342.8L386.3 356L327.6 371.4ZM383.4 340.6H383.3C383.2 340.6 383.2 340.7 383.1 340.7C363.5 348.2 352.5 355 340.8 362.2C339.1 363.3 337.3 364.4 335.5 365.5C326 371.3 294.4 382.7 242.4 384.6C214.1 385.6 201.6 382.5 196.5 380.5C208.2 381.4 219.4 381.9 230.1 381.9C260 381.9 286.5 378.2 313 370.6C328.3 366.2 336.8 361 345.7 355.5C356.5 348.9 368.7 341.4 395.6 333.7C396.2 333.5 396.7 333.4 397.3 333.2H397.5C397.6 333.2 397.6 333.1 397.6 333.1C431.5 323.2 446.8 316.5 452.8 313.5C453 313.5 453.1 313.4 453.2 313.3C454 312.9 454.7 312.5 455.1 312.2L455.9 315.4C434.9 325.7 412.8 331.9 398.2 336C391.9 337.9 386.8 339.3 383.4 340.6ZM216.4 356.9C228.9 350.4 244 345.5 251.6 343.2V344.7C251.6 345 251.8 345.2 252.1 345.2C252.4 345.2 252.6 345 252.6 344.7V342.9C253 342.8 253.4 342.7 253.7 342.6C255 342.2 256.3 341.8 257.5 341.4C257.4 349.5 262.2 370.9 266.7 378.7C264.9 378.9 263 379.1 261.2 379.3C259.1 375.6 256.7 368.4 254.9 360C254.8 359.7 254.6 359.6 254.3 359.6C254 359.7 253.9 359.9 253.9 360.2C255.7 368.4 258 375.5 260.1 379.4C240.4 381.2 219.6 381.2 196.6 379.4C194.9 372.3 201.5 364.7 216.4 356.9ZM256.4 339.3C252.2 337 248.1 338.1 244.2 339.1C242 339.7 239.8 340.2 237.6 340.3C233.9 340.3 231.5 338.9 228.9 337.3C227.1 336.2 225.3 335.1 222.9 334.6C212.2 332.2 202.1 340 197.5 348.9C196.2 351.4 195.7 353.4 195.1 355.2C194.1 358.5 193.5 360.9 189.2 364C187.8 365 186 365.5 184.1 366C181.2 366.8 178.2 367.6 176.5 370.2C172.7 376.1 176.2 380.5 179.6 384.7C182.5 388.3 185.2 391.6 184 395.9H174.7C171 389.4 164.9 386.3 159 383.4C153.3 380.6 148 377.9 145.1 372.4C142.3 367.1 141.7 363 143 359.9C145.2 354.9 152.2 352.9 159 351C159.7 350.8 160.5 350.6 161.2 350.4C169.9 347.9 170.7 343.1 171.7 338C172.4 334.2 173.1 330.3 177.1 326.8C181.6 322.9 187.8 321.9 193.7 320.9C201 319.7 208.5 318.4 213.3 312V311.9H221.6C225.1 312.4 228.3 315.5 231.7 318.7C235.6 322.5 239.6 326.4 244.7 326.9C246.5 327.1 248.2 327.2 249.8 327.3C257 327.7 262.3 328 265.2 336.2C262.2 337.6 259.2 338.7 256.6 339.6C256.7 339.5 256.6 339.3 256.4 339.3ZM159.8 395.9C150.6 392.7 141.3 388.8 135.5 381.2C133.1 378 131.2 374.9 129.4 372C126.5 367.2 123.8 362.7 119 358.2C114.4 353.8 112.8 348.9 111.2 343.7C110 339.9 108.8 335.9 106.3 332C104.7 329.6 102.5 327.4 100.4 325.3C96.5 321.5 92.5 317.6 92.2 311.9H99.7C100.3 315.6 102.7 317.9 105.1 320.1C106.4 321.3 107.7 322.5 108.7 323.9C111 327.1 112.1 330.4 113.3 333.9C114.1 336.3 114.9 338.8 116.2 341.2C118.6 345.9 121 348.5 123.7 349.4C124.4 349.6 125.1 349.7 125.8 349.7C128.5 349.7 131.3 348.3 134.4 346.6C136.6 345.4 139.1 344.1 141.9 343.2C144.1 342.5 145.8 342.2 147.3 342C150.6 341.5 152.9 341.1 156.2 336.5C157.3 334.9 157.6 332.8 157.9 330.8C158.2 328.9 158.4 327.1 159.3 325.6C163.4 319.2 171.6 317.4 179.5 315.6C183.9 314.6 188.5 313.6 192.4 311.7H212.1C207.5 317.3 200.7 318.5 193.5 319.7C187.4 320.7 181.1 321.8 176.4 325.9C172.2 329.6 171.4 333.9 170.7 337.7C169.8 342.7 169 347 161 349.4C160.3 349.6 159.6 349.8 158.8 350C151.8 352 144.5 354 142.1 359.4C140.6 362.9 141.3 367.2 144.2 372.8C147.2 378.6 152.7 381.3 158.5 384.2C164.1 387 169.9 389.9 173.5 395.8H159.8V395.9ZM138.5 395.9C128.3 389.4 126.6 386.5 121.8 378.1C121.2 377.1 120.6 375.9 119.9 374.7C114.9 366 110.4 365.5 104.7 364.9C101.3 364.5 97.5 364.1 92.9 361.8C85.7 358.2 79.5 348.6 79 340.4C78.9 337.9 80.4 334.2 82 330.2C84.8 323.6 87.9 316.1 83.6 311.9H91.1C91.4 318 95.5 322.1 99.6 326C101.7 328 103.8 330.2 105.4 332.5C107.9 336.3 109.1 340.2 110.2 343.9C111.8 349.2 113.4 354.3 118.2 358.9C122.9 363.3 125.6 367.8 128.4 372.5C130.2 375.5 132.1 378.6 134.5 381.8C139.9 388.9 148.3 392.8 156.7 395.9H138.5ZM122.5 395.9C118.3 394 116.6 388.8 114.9 383.7C113.7 380 112.5 376.4 110.5 374.2C107 370.5 102.4 369.9 98 369.3C94.2 368.8 90.3 368.3 86.9 365.9C79.1 360.4 71.5 348.9 72.3 339.1C72.5 336.2 73.7 333.1 74.9 329.8C77.1 323.7 79.4 317.4 75.9 311.7H82.2C87.2 315.2 84 322.9 81.2 329.6C79.5 333.6 77.9 337.5 78.1 340.2C78.6 348.7 85.1 358.7 92.6 362.5C97.3 364.9 101.3 365.3 104.7 365.7C110.1 366.3 114.4 366.8 119.2 375C119.9 376.2 120.5 377.3 121.1 378.4C125.6 386.4 127.5 389.6 136.8 395.7H122.5V395.9ZM131.4 258.8C137.3 263.2 143.2 268.5 148.9 275.1C151.9 278.6 154.5 281.8 156.9 284.7C167.9 298.3 173.9 305.7 192.1 305.7C205.6 305.7 225.8 301.6 259.6 293L260.4 296.2C178.7 315.2 175.6 314.7 153.3 285.5C142.8 271.7 133.3 263.8 131.3 262.1V258.8H131.4ZM189.9 311.9C186.6 313.2 182.9 314 179.3 314.8C171.2 316.6 162.9 318.5 158.5 325.2C157.4 326.8 157.2 328.8 156.9 330.8C156.6 332.8 156.4 334.6 155.4 336C152.4 340.2 150.5 340.5 147.2 341C145.6 341.2 143.9 341.5 141.6 342.3C138.7 343.2 136.2 344.6 133.9 345.7C130 347.7 126.9 349.3 123.9 348.4C121.5 347.6 119.3 345.2 117 340.7C115.8 338.3 114.9 335.9 114.2 333.5C113.1 330.1 111.9 326.6 109.5 323.3C108.4 321.8 107.1 320.6 105.8 319.4C103.5 317.2 101.3 315.2 100.7 311.9H108.3C114.5 313.7 117 318.6 119.4 323.3C122 328.5 124.5 333.5 131.6 333.5C132.8 333.5 134.2 333.4 135.7 333C142.8 331.5 148.5 328.9 152.5 325.2C154.1 323.8 155.4 322.5 156.7 321.2C160.6 317.3 163.8 314.2 170.1 311.8H189.9V311.9ZM156.1 320.5C154.8 321.8 153.5 323.1 151.9 324.5C148 328 142.5 330.6 135.5 332C125.8 334 123.2 328.8 120.2 322.8C118.2 318.7 115.9 314.2 111 311.8H122.2C124.3 312.8 124.9 315 125.5 317.5C126.5 321.1 127.6 325.2 133.7 325.7H134.8C142.8 325.7 151.1 319 154.4 312.3C154.5 312.1 154.4 311.9 154.3 311.7H167.4C162.5 314.2 159.5 317.1 156.1 320.5ZM153.7 312C150.4 318.6 141.9 325.4 133.9 324.8C128.5 324.4 127.6 321 126.6 317.4C126.1 315.4 125.5 313.3 124.1 311.9H131.7C132.2 312.2 132.7 312.5 133.3 313C135.2 314.3 137.4 315.9 140 315.9C142 315.9 144.1 315 146.5 312.4C146.6 312.3 146.6 312.1 146.6 311.9H153.8C153.7 311.9 153.7 311.9 153.7 312ZM133.8 312.1C133.7 312 133.6 311.9 133.5 311.9H145.6C140.7 317 137 314.4 133.8 312.1ZM301.3 308.4L297 304.2C298.8 302 301 299.6 303.7 296.9L308.2 301.3C308.4 301.5 308.6 301.6 308.9 301.6C309.2 301.6 309.4 301.5 309.6 301.3C310 300.9 310 300.3 309.6 299.9L305.1 295.5L306.5 294.1C308.2 292.4 310.1 290.5 312.1 288.4L316.6 292.8C316.8 293 317 293.1 317.3 293.1C317.6 293.1 317.8 293 318 292.8C318.4 292.4 318.4 291.8 318 291.4L313.5 287C315.6 284.8 317.9 282.4 320.3 279.7L324.9 284.2C325.1 284.4 325.3 284.5 325.6 284.5C325.9 284.5 326.1 284.4 326.3 284.2C326.7 283.8 326.7 283.2 326.3 282.8L321.6 278.2C327.9 271.2 334.3 274.6 343.2 279.3C354.2 285.1 367.8 292.4 388.2 284.5C399.8 280 411.5 273.3 419.8 268C420.5 268.8 421.2 269.6 421.9 270.5L423.4 272.3C417.4 276.4 410 281.2 400.3 285.8C400.1 285.9 399.9 286.2 400.1 286.5C400.2 286.7 400.4 286.8 400.6 286.8H400.8C410.6 282.1 418.1 277.3 424.1 273.1C427 276.6 429.5 280.1 428.9 283.3C428.5 285.5 426.7 287.3 423.5 289C423.3 289.1 423.2 289.4 423.3 289.7C423.4 289.9 423.6 290 423.7 290C423.8 290 423.9 290 423.9 289.9C427.4 288.1 429.4 286 429.8 283.5C430.6 279.1 426.6 274.4 422.6 269.9C421.9 269.1 421.2 268.3 420.6 267.5C422 266.6 423.4 265.7 424.6 264.9C424.6 265 424.6 265 424.7 265.1L426.5 267.2C431.1 272.7 436.9 279.6 435.8 285.2C435.3 287.8 433.3 290 429.8 291.8C426 293.8 422.6 295.5 419.7 297C398.2 307.8 394.9 309.5 402.9 330.5C401.2 331 399.4 331.5 397.6 332.1C396.4 328.9 395.5 326.1 394.9 323.6C394.8 323.3 394.6 323.2 394.3 323.2C394 323.2 393.9 323.5 393.9 323.8C394.5 326.3 395.4 329.1 396.6 332.3C396.1 332.4 395.7 332.6 395.3 332.7C394.8 332.8 394.3 333 393.8 333.1C387.5 320.5 377.4 313.5 363.8 312.3C363.5 312.3 363.3 312.5 363.3 312.8C363.3 313.1 363.5 313.3 363.8 313.3C377 314.5 386.8 321.2 392.9 333.4C391.3 333.9 389.7 334.4 388.2 334.8C388.2 334.7 388.2 334.5 388.1 334.4C384.1 326.2 377.9 320.9 369.5 318.6C358.2 315.5 343.3 317.8 325.2 325.6C314 330.4 305 335.9 302.3 337.6C301.5 336.4 300.8 335.3 300.2 334.2C301.4 333.5 302.9 332.6 304.5 331.7C304.7 331.6 304.8 331.3 304.7 331C304.6 330.7 304.3 330.7 304 330.8C302.3 331.8 300.9 332.6 299.6 333.3C295.8 327.1 293.5 322.4 292.7 318.5V318.3C291.7 313.5 292.9 309.8 295.8 305.7L300 309.8C300.2 310 300.4 310.1 300.7 310.1C301 310.1 301.2 310 301.4 309.8C301.7 309.4 301.7 308.8 301.3 308.4ZM331.1 272.2L335.9 267.3C337.7 268.4 342.8 272 345 277.9C344.8 277.8 344.5 277.6 344.3 277.5C339.6 275 335.2 272.7 331.1 272.2ZM301.2 339.6C301.3 339.8 301.6 340 301.8 340H302C302.2 340 302.4 339.9 302.6 339.8C303 339.5 343 313.4 369 320.5C376.8 322.6 382.6 327.6 386.3 335.3C386.3 335.4 386.4 335.4 386.4 335.4C365.5 342.2 354.8 348.7 345.2 354.6C336.3 360 327.9 365.2 312.7 369.5C298.2 373.7 283.8 376.6 268.7 378.5C268.7 378.3 268.7 378.1 268.6 377.9C263.8 369.8 259.1 347.1 259.6 340.7C273.8 335.6 285.3 327.3 291.3 320.7C292.7 325.6 295.9 331.6 301.2 339.6ZM270 330.9C268.8 329.2 268.2 327.6 267.7 326.2C266.5 323.1 265.5 320.6 259.5 318.6C257.4 317.9 255.4 317.6 253.5 317.3C249.4 316.7 245.9 316.2 243.3 311.8H267.9C269.1 311.8 270.1 312.8 270.1 314V330.9H270ZM242 311.9C244.9 317.2 248.9 317.8 253.2 318.4C255.1 318.7 257.1 318.9 259 319.6C264.6 321.5 265.5 323.7 266.6 326.6C267.3 328.3 268.1 330.3 269.9 332.6V333.5C269.9 333.6 269.9 333.8 270 333.9C268.7 334.6 267.4 335.2 266.1 335.8C262.9 327.1 256.9 326.7 249.9 326.4C248.3 326.3 246.6 326.2 244.8 326C240.1 325.5 236.2 321.7 232.4 318C229.9 315.6 227.4 313.2 224.8 311.9H242ZM451.7 312.9C445.8 315.8 432.3 321.7 404.8 329.9V329.8C397.5 310.4 399.2 309.5 420.6 298.7C423.6 297.2 427 295.5 430.8 293.5C434.8 291.4 437.2 288.7 437.8 285.5C438.9 280 434.7 273.9 430.4 268.7C431.6 267.8 433 266.8 434.1 266C441.7 277.2 454.3 296.5 451.6 312.3C451.5 312.5 451.6 312.7 451.7 312.9ZM430.6 260.8C431.3 261.9 432.2 263.2 433.2 264.7C433.3 264.9 433.4 265.1 433.6 265.3C432.5 266.1 431 267.1 429.8 268C429.2 267.3 428.6 266.6 428.1 265.9L426.3 263.8C428.2 262.4 429.7 261.4 430.6 260.8ZM416.7 184L417.2 185.1C416.8 185.4 416.3 185.8 415.9 186.1C393.2 202.5 354.7 199.8 317.5 197.1L283.4 194C283.3 182.8 278 169.2 272.8 161.8C283.4 159.4 293.3 153.5 300.8 144.9L304.8 140.3L310.2 143L308.1 149.1H308C306.9 149.1 305.8 149.5 304.9 150.2C304.1 151 303.6 152 303.5 153.2C303.5 154.3 303.9 155.4 304.6 156.3C305.4 157.1 306.4 157.6 307.6 157.7H307.8C308.9 157.7 309.9 157.3 310.7 156.6C311.5 155.8 312 154.8 312.1 153.6C312.1 153 311.7 152.6 311.1 152.6C310.6 152.6 310.1 153 310.1 153.6C310.1 154.2 309.8 154.8 309.4 155.2C309 155.6 308.4 155.8 307.8 155.8C307.2 155.8 306.6 155.5 306.2 155.1C305.8 154.7 305.6 154.1 305.6 153.5C305.6 152.9 305.9 152.3 306.3 151.9C306.6 151.6 307 151.4 307.5 151.3L306.9 153C306.7 153.5 307 154.1 307.5 154.3C307.6 154.3 307.7 154.4 307.8 154.4C308.2 154.4 308.6 154.1 308.7 153.7L312 144.1L322.9 149.4L321.1 154.8C320 154.7 318.9 155.2 318 155.9C317.2 156.7 316.7 157.7 316.6 158.9C316.6 160 317 161.1 317.7 162C318.5 162.8 319.5 163.3 320.7 163.4H320.9C323.2 163.4 325 161.6 325.1 159.3C325.1 158.7 324.7 158.3 324.1 158.3C323.6 158.3 323.1 158.7 323.1 159.3C323 160.5 322 161.5 320.8 161.5C320.2 161.5 319.6 161.2 319.2 160.8C318.8 160.4 318.6 159.8 318.6 159.2C318.6 158.6 318.9 158 319.3 157.6C319.6 157.3 320 157.2 320.3 157.1L319.8 158.5C319.6 159 319.9 159.6 320.4 159.8C320.5 159.8 320.6 159.9 320.7 159.9C321.1 159.9 321.5 159.6 321.6 159.2L324.5 150.6L335.5 156L333.9 160.6H333.8C332.7 160.6 331.6 161 330.7 161.7C329.9 162.5 329.4 163.5 329.3 164.7C329.2 167 331 169 333.4 169.1H333.6C334.7 169.1 335.7 168.7 336.5 168C337.3 167.2 337.8 166.2 337.9 165C337.9 164.4 337.5 164 336.9 164C336.3 164 335.9 164.4 335.9 165C335.9 165.6 335.6 166.2 335.2 166.6C334.8 167 334.2 167.2 333.6 167.2C332.4 167.1 331.4 166.1 331.4 164.9C331.4 164.3 331.7 163.7 332.1 163.3C332.4 163 332.8 162.8 333.2 162.7L332.8 163.9C332.6 164.4 332.9 165 333.4 165.2C333.5 165.2 333.6 165.3 333.7 165.3C334.1 165.3 334.5 165 334.6 164.6L337.3 157L337.5 157.1L339.1 157.9C345.4 161 352.3 162.6 359.3 162.6C362.8 162.6 366.3 162.2 369.8 161.4C370 161.4 370.1 161.3 370.3 161.1L408.3 176.6C412.1 177.4 415 180.3 416.7 184ZM350.9 152.6H351L367.3 159.3C358.1 161 348.6 159.7 340.1 155.6L338.5 154.8L338 154.6L340.7 147.1L350.9 152.6ZM339 146L336.3 153.6L325.4 148.3L325.3 148.2L328.1 140L339 146ZM326.4 139L323.6 147.3L312.9 142.1L312.7 142L315.7 133.1L326.4 139ZM281.8 130.2C281.4 126.9 282.8 123.8 285.5 122C288.3 120.2 291.7 120.1 294.8 121.6C294.7 121.8 294.7 121.9 294.6 122.1C294.5 122.4 294.3 122.7 294.2 123L293.9 123.6C292.1 127.1 290 130.4 287.4 133.4C285.9 135.2 284.3 136.8 282.7 138.2L281.8 130.2ZM225.8 131.9V131.6C225.9 131.2 226 130.9 226.2 130.9C226.8 130.7 228.4 131.5 229.7 133.3C233 137.8 237 141.4 241.6 144.1C247.4 147.6 253.9 149.3 260.7 149.3C271 149.3 281 144.1 288.9 134.8C291.6 131.7 293.8 128.2 295.7 124.5C295.8 124.3 295.9 124.2 295.9 124C296.1 123.6 296.2 123.3 296.4 123C296.5 122.9 296.5 122.8 296.6 122.7L313.9 132.2L310.8 141.2L304.9 138.3C304.5 138.1 304 138.2 303.7 138.5L299.2 143.7C290 154.2 277.1 160.5 263.9 161.1H261.7C247.4 161.1 233.4 155.5 225.8 146.7V132C225.8 132 225.7 131.9 225.8 131.9ZM225.8 149.6C234 157.8 247.7 163 261.7 163H264C266.3 162.9 268.5 162.6 270.7 162.2C270.7 162.3 270.8 162.4 270.8 162.5C275.8 169.5 281.1 182.7 281.3 193.7L225.8 188.7V149.6ZM219.1 207.1C218.5 207.1 218.1 206.7 217.9 206.4C217.3 205.7 217.1 204.6 217.4 203.5L219.1 192C219.3 191 220 190.2 220.7 190.2H220.8L314.8 198.8L317.4 199C318.9 199.1 320.4 199.2 322 199.3C322.4 199.3 322.7 199.4 323.1 199.4L332.7 200C333.1 200 333.4 200 333.8 200.1C337 200.3 340.1 200.5 343.3 200.6H344.4L353.7 200.9H354.8C357.6 200.9 360.5 201 363.3 200.9H364.4C365.3 200.9 366.2 200.9 367.1 200.8H368.4C369.3 200.8 370.2 200.7 371.1 200.7C371.5 200.7 371.9 200.7 372.2 200.6C374.7 200.5 377.1 200.3 379.5 200C379.9 200 380.2 199.9 380.6 199.9C381.5 199.8 382.3 199.7 383.1 199.6C383.5 199.5 383.9 199.5 384.3 199.4C385.1 199.3 386 199.2 386.8 199C387.2 198.9 387.5 198.9 387.9 198.8C390.2 198.4 392.4 197.9 394.6 197.4C394.9 197.3 395.3 197.2 395.6 197.1C396.4 196.9 397.1 196.7 397.9 196.5C398.3 196.4 398.6 196.3 399 196.2C399.7 196 400.5 195.7 401.2 195.5C401.5 195.4 401.8 195.3 402.2 195.2C404.2 194.5 406.2 193.7 408.1 192.8C408.4 192.7 408.7 192.5 409 192.4C409.7 192.1 410.3 191.7 411 191.4C411.3 191.2 411.6 191.1 412 190.9C412.6 190.5 413.3 190.2 413.9 189.8C414.2 189.6 414.5 189.5 414.7 189.3C415.6 188.7 416.4 188.2 417.3 187.6L418.5 186.7L418.6 186.6C418.4 186.8 418.3 187.1 418.1 187.3C410.9 198.3 393.8 204.6 365.8 206.6C353 207.5 339.3 208.1 325.5 208.4H259.8C242.3 208.2 228 207.6 219.1 207.1ZM209.7 212.8C209.7 211.6 210.7 210.6 211.9 210.6H259.5C269.9 210.8 281.4 211 293.3 211C303.7 211 314.5 210.9 325.1 210.6H417.8C419 210.6 420 211.6 420 212.8V265.4C411.7 270.7 399.5 277.9 387.4 282.6C369.8 289.4 357.4 284.4 347.3 279.2C345.1 270.1 336.4 265.4 336 265.2C335.6 265 335.1 265.1 334.8 265.4L328.3 272.2C328.3 272.2 328.3 272.3 328.2 272.3C325.4 272.6 322.7 273.9 320.1 276.8L318.8 275.5C318.4 275.1 317.8 275.1 317.4 275.5C317 275.9 317 276.5 317.4 276.9L318.7 278.2C316.3 280.8 314 283.3 311.9 285.5L310.4 284C310 283.6 309.4 283.6 309 284C308.6 284.4 308.6 285 309 285.4L310.5 286.9C308.5 289 306.6 290.9 304.9 292.6L303.5 294L302.1 292.6C301.7 292.2 301.1 292.2 300.7 292.6C300.3 293 300.3 293.6 300.7 294L302.1 295.4C299.4 298.1 297.2 300.5 295.3 302.7L293.7 301.1C293.3 300.7 292.7 300.7 292.3 301.1C291.9 301.5 291.9 302.1 292.3 302.5L294.1 304.2C290.8 308.7 289.4 312.8 290.4 318.2C286 324 279.1 329 272 332.8V314C272 311.7 270.1 309.8 267.8 309.8H205C218.4 307.9 236.5 303.8 261.9 297.9C262.2 297.8 262.4 297.7 262.5 297.4C262.6 297.2 262.7 296.9 262.6 296.6L261.5 292.3C261.4 291.8 260.8 291.4 260.3 291.6C260.2 291.6 260.2 291.7 260.1 291.7C259.6 291.8 259.1 291.9 258.7 292.1C258.8 290.6 258.9 283.2 253.3 276.8C248.4 271.1 240.6 268 230 267.5C221.8 267.1 215.3 266.4 209.5 261.4C209.6 261.2 209.7 261 209.7 260.8V212.8ZM150.1 178.2C151.2 194.9 154.6 209.5 157.3 221.3C158.1 224.9 158.9 228.4 159.6 231.5C160.6 236.2 159.1 240.1 155.5 242.3C149.6 245.8 137.4 244.6 120.6 230.6C112.3 223.6 112.8 218.4 114.3 202.8C114.8 198.2 115.3 192.5 115.7 185.7C115.9 182 115.8 178.9 115.2 176.2C137.6 174.5 147.5 177.2 150.1 178.2ZM90.2 200.2C95.2 189.7 94.5 172.4 94.2 167.8H97.7C102.5 167.7 107.5 167.6 110.6 170.9C113.2 173.6 114.2 178.4 113.8 185.6C113.4 192.4 112.8 198 112.4 202.6C110.8 218.5 110.2 224.5 119.4 232.1C130.9 241.7 146.7 249.9 156.6 244C160.9 241.5 162.7 236.6 161.6 231.1C160.9 227.9 160.2 224.4 159.3 220.8C156.6 209.1 153.3 194.5 152.2 178C151.3 164.9 157.9 163.5 168 161.4C170.5 160.9 173.2 160.3 175.9 159.5C176.9 165.5 181.8 194.1 186.6 213.2C199.9 265.8 210.6 268.7 230 269.6C239.9 270.1 247.3 273 251.8 278.2C257.3 284.5 256.7 292.2 256.7 292.3C256.7 292.4 256.7 292.6 256.8 292.7C180.4 312.1 176.3 307.1 157.7 284.1C155.4 281.2 152.7 278 149.7 274.5C123.3 244 92 239.6 86.4 239C81.5 229 84.6 212 90.2 200.2ZM86.6 240C89.6 240.3 98.7 241.7 110.2 246.6H87.6L86.6 240ZM88.9 255.9H92.9C93.2 255.9 93.4 255.7 93.4 255.4C93.4 255.1 93.2 254.9 92.9 254.9H88.7L87.6 247.6H112.3C117.7 250.1 123.5 253.3 129.5 257.5C129.4 257.7 129.3 257.9 129.3 258.1V263.1H90L88.9 255.9ZM91.3 272.4H109C109.3 272.4 109.5 272.2 109.5 271.9C109.5 271.6 109.3 271.4 109 271.4H91.2L90.1 264.1H129.3V271.4H114.5C114.2 271.4 114 271.6 114 271.9C114 272.2 114.2 272.4 114.5 272.4H129.3V279.7H92.3L91.3 272.4ZM93.8 288.9H123.3C123.6 288.9 123.8 288.7 123.8 288.4C123.8 288.1 123.6 287.9 123.3 287.9H93.6L92.5 280.6H129.3V296.1H94.8L93.8 288.9ZM102.2 304.4H96L94.9 297.1H129.3V304.4H108.6C108.3 304.4 108.1 304.6 108.1 304.9C108.1 305.2 108.3 305.4 108.6 305.4H129.3V309.7H96.8L96.2 305.4H102.2C102.5 305.4 102.7 305.2 102.7 304.9C102.7 304.6 102.4 304.4 102.2 304.4ZM131.4 264.8C134.7 267.6 142.8 275 151.8 286.8C161.6 299.7 168 307.1 178.5 309.9H131.4V264.8ZM66.2 311.9H74.6C78.3 317.3 76.1 323.6 73.9 329.6C72.7 332.8 71.5 336.1 71.3 339.2C70.5 349.3 78.3 361.3 86.4 366.9C90 369.4 94 369.9 97.9 370.4C102.4 371 106.6 371.5 109.8 375C111.7 377.1 112.8 380.5 114 384.1C115.5 388.6 117 393.4 120.5 396H108.9C109.1 390.2 106 384.1 100.9 380.6C98 378.6 94.9 378.4 91.9 378.3C89.4 378.2 87 378.1 84.9 376.8C81.5 374.9 80.2 372 78.7 369C77.9 367.3 77.1 365.6 75.9 363.9C74.8 362.4 73.1 360.7 71.4 359C68.5 356.2 65.4 353.1 64.1 349.8V314.2C64 312.8 65 311.9 66.2 311.9ZM100.3 395.9C98.2 388.5 93.8 387.7 89 386.8C86.2 386.3 83.3 385.8 80.6 384C77.8 382.1 76.3 379.5 74.8 377C72.5 373.1 70.4 369.5 63.9 369.4V352C65.5 354.8 68.1 357.3 70.5 359.6C72.2 361.3 73.8 362.9 74.9 364.3C76.1 365.9 76.9 367.6 77.6 369.2C79.1 372.4 80.5 375.3 84.2 377.4C86.5 378.7 89.1 378.9 91.7 379C94.6 379.1 97.5 379.3 100.2 381.2C105 384.5 107.9 390.3 107.7 395.8H100.3V395.9ZM64 370.5C70 370.6 71.9 373.8 74.1 377.6C75.6 380.2 77.2 382.8 80.2 384.9C83.1 386.9 86.1 387.4 88.9 387.9C93.4 388.7 97.4 389.4 99.3 396H64V370.5ZM233.4 395.9H185.1C186.2 391.2 183.3 387.6 180.5 384.1C177.2 380 174 376 177.4 370.7C178.9 368.4 181.7 367.6 184.4 366.9C186.3 366.4 188.3 365.8 189.8 364.7C194.4 361.4 195.1 358.8 196.1 355.4C196.6 353.7 197.2 351.7 198.4 349.3C204.1 338 214.9 333.8 222.6 335.5C224.8 336 226.5 337 228.3 338.1C230.8 339.6 233.4 341.2 237.4 341.2H237.5C239.9 341.2 242.2 340.6 244.4 340C248.2 339 251.8 338.1 255.6 339.9C254.7 340.2 253.9 340.4 253.1 340.7C238.3 344.9 190.9 360 194.5 379.2H193.9C193.6 379 193.5 378.9 193.4 378.9C193 378.5 192.4 378.5 192 378.9C191.6 379.3 191.6 379.9 192 380.3C192.3 380.6 199.1 386.6 231.6 386.6C234.9 386.6 238.5 386.5 242.3 386.4C259 385.8 273.7 384.2 286.2 382.1L233.8 396C233.7 395.9 233.5 395.9 233.4 395.9ZM460.1 404.9H207.7L243.1 395.6C243.2 395.8 243.3 395.9 243.5 395.9H460.1V404.9ZM460.1 360.4H428.3C428 360.4 427.8 360.6 427.8 360.9C427.8 361.2 428 361.4 428.3 361.4H460.1V371.9H402.7C402.4 371.9 402.2 372.1 402.2 372.4C402.2 372.7 402.4 372.9 402.7 372.9H460.1V383.4H439.8C439.5 383.4 439.3 383.6 439.3 383.9C439.3 384.2 439.5 384.4 439.8 384.4H460.1V394.9H245.9L286 384.4H431.4C431.7 384.4 431.9 384.2 431.9 383.9C431.9 383.6 431.7 383.4 431.4 383.4H289.9L330.6 372.8C330.7 372.9 330.8 372.9 330.9 372.9H392.5C392.8 372.9 393 372.7 393 372.4C393 372.1 392.8 371.9 392.5 371.9H333.9L374.4 361.3C374.5 361.4 374.6 361.4 374.7 361.4H418.8C419.1 361.4 419.3 361.2 419.3 360.9C419.3 360.6 419.1 360.4 418.8 360.4H377.9L418 349.9H460.1V360.4ZM460.1 348.9H421.8L457.3 339.6C458 339.4 458.7 339.6 459.2 340C459.7 340.4 460.1 341.1 460.1 341.7V348.9ZM388.1 354.8L384.8 342.2C388.1 341 392.9 339.7 398.8 338C413.4 333.9 435.4 327.7 456.5 317.4L458.3 324.4L433.6 330.8C433.3 330.9 433.2 331.1 433.2 331.4C433.3 331.6 433.5 331.8 433.7 331.8H433.8L458.5 325.4L460 331.1L402.9 346C402.6 346.1 402.5 346.3 402.5 346.6C402.6 346.8 402.8 347 403 347H403.1L460.2 332.1L461.2 335.9L388.1 354.8Z" fill="black"/>
<path d="M392.7 318.1C392.7 318.4 392.9 318.5 393.2 318.5H393.3C393.6 318.5 393.8 318.2 393.7 317.9C392.1 305.6 400.6 301.4 416.1 293.7C417.3 293.1 418.6 292.5 419.9 291.8C420.1 291.7 420.2 291.4 420.1 291.1C420 290.9 419.7 290.8 419.4 290.9C418.1 291.6 416.8 292.2 415.6 292.8C399.8 300.7 391 305.1 392.7 318.1ZM307.4 330.1C307.5 330.1 307.6 330.1 307.6 330C327.5 319.1 344.6 313.4 358.6 313.2C358.9 313.2 359.1 313 359.1 312.7C359.1 312.4 358.9 312.2 358.6 312.2C344.5 312.4 327.1 318.1 307.1 329.1C306.9 329.2 306.8 329.5 306.9 329.8C307.1 330 307.2 330.1 307.4 330.1ZM339.9 290.1C342.5 289.3 345.4 289.5 347.9 290.5C350.2 291.5 360.2 295.3 371.1 295.3C374.2 295.3 377.4 295 380.5 294.2C385.4 293 390.6 291.2 396 288.8C396.3 288.7 396.4 288.4 396.3 288.1C396.2 287.8 395.9 287.7 395.6 287.8C390.2 290.1 385.1 291.9 380.3 293.1C366.5 296.5 351.2 290.7 348.2 289.5C345.5 288.4 342.4 288.2 339.5 289.1C339.2 289.2 339.1 289.5 339.2 289.7C339.4 290.1 339.7 290.2 339.9 290.1ZM318.9 306.9C319 306.9 319.1 306.9 319.2 306.8L335.2 292.7C335.5 292.4 335.8 292.2 336.2 291.9C336.4 291.7 336.5 291.4 336.3 291.2C336.1 291 335.8 290.9 335.6 291.1C335.2 291.4 334.9 291.6 334.5 291.9L318.5 306C318.3 306.2 318.3 306.5 318.5 306.7C318.6 306.8 318.8 306.9 318.9 306.9ZM313.1 321L313.7 322.5C313.8 322.7 314 322.8 314.2 322.8H314.4C314.7 322.7 314.8 322.4 314.7 322.1L314.1 320.6C312.4 316.6 313.5 311.9 316.8 309C317 308.8 317 308.5 316.8 308.3C316.6 308.1 316.3 308.1 316.1 308.3C312.4 311.5 311.2 316.6 313.1 321ZM253.9 357.9C254.3 357.8 254.4 357.6 254.4 357.3C253.7 353.8 253.2 350.4 252.9 347.6C252.9 347.3 252.6 347.1 252.4 347.2C252.1 347.2 251.9 347.5 252 347.7C252.3 350.5 252.8 353.9 253.5 357.4C253.4 357.7 253.6 357.9 253.9 357.9ZM258.4 363.6C259.7 363.6 259.7 361.6 258.4 361.6C257.1 361.6 257.1 363.6 258.4 363.6ZM256.2 350.4C257.5 350.4 257.5 348.4 256.2 348.4C254.9 348.4 254.9 350.4 256.2 350.4ZM261.6 375.1C262.9 375.1 262.9 373.1 261.6 373.1C260.3 373.1 260.3 375.1 261.6 375.1ZM305.3 334.7C306.6 334.7 306.6 332.7 305.3 332.7C304 332.7 304 334.7 305.3 334.7Z" fill="black"/>
<path d="M317.4 326.4C316.1 326.4 316.1 328.4 317.4 328.4C318.7 328.4 318.7 326.4 317.4 326.4ZM329.1 321.1C327.8 321.1 327.8 323.1 329.1 323.1C330.4 323.1 330.4 321.1 329.1 321.1ZM342.9 316.6C341.6 316.6 341.6 318.6 342.9 318.6C344.2 318.6 344.2 316.6 342.9 316.6ZM358.4 314.6C357.1 314.6 357.1 316.6 358.4 316.6C359.7 316.6 359.7 314.6 358.4 314.6ZM373.1 318.9C374.4 318.9 374.4 316.9 373.1 316.9C371.8 316.9 371.8 318.9 373.1 318.9ZM385.1 327.1C386.4 327.1 386.4 325.1 385.1 325.1C383.8 325.1 383.8 327.1 385.1 327.1ZM397.6 323.1C396.3 323.1 396.3 325.1 397.6 325.1C398.9 325.1 398.9 323.1 397.6 323.1ZM395.9 312.4C394.6 312.4 394.6 314.4 395.9 314.4C397.2 314.4 397.2 312.4 395.9 312.4ZM402.4 303.1C401.1 303.1 401.1 305.1 402.4 305.1C403.7 305.1 403.7 303.1 402.4 303.1ZM413.4 296.6C412.1 296.6 412.1 298.6 413.4 298.6C414.7 298.6 414.7 296.6 413.4 296.6ZM425.6 292.4C426.9 292.4 426.9 290.4 425.6 290.4C424.3 290.4 424.3 292.4 425.6 292.4ZM432.4 280.9C433.7 280.9 433.7 278.9 432.4 278.9C431.1 278.9 431.1 280.9 432.4 280.9ZM425.1 268.6C423.8 268.6 423.8 270.6 425.1 270.6C426.4 270.6 426.4 268.6 425.1 268.6ZM411.1 277.9C412.4 277.9 412.4 275.9 411.1 275.9C409.8 275.9 409.8 277.9 411.1 277.9ZM396.6 285.1C397.9 285.1 397.9 283.1 396.6 283.1C395.3 283.1 395.3 285.1 396.6 285.1ZM381.1 290.6C382.4 290.6 382.4 288.6 381.1 288.6C379.8 288.6 379.8 290.6 381.1 290.6ZM365.6 291.9C366.9 291.9 366.9 289.9 365.6 289.9C364.3 289.9 364.3 291.9 365.6 291.9ZM349.4 287.9C350.7 287.9 350.7 285.9 349.4 285.9C348.1 285.9 348.1 287.9 349.4 287.9ZM332.4 291.1C333.7 291.1 333.7 289.1 332.4 289.1C331.1 289.1 331.1 291.1 332.4 291.1ZM322.9 299.9C324.2 299.9 324.2 297.9 322.9 297.9C321.6 297.9 321.6 299.9 322.9 299.9ZM313.1 308.4C314.4 308.4 314.4 306.4 313.1 306.4C311.8 306.4 311.8 308.4 313.1 308.4Z" fill="black"/>
</svg>
