<svg width="526" height="526" viewBox="0 0 526 526" fill="none" xmlns="http://www.w3.org/2000/svg">
<path d="M439.9 310.8C439.7 311 439.8 311.3 440 311.5L453.2 320.2C453.3 320.3 453.4 320.3 453.5 320.3C453.7 320.3 453.8 320.2 453.9 320.1C454.1 319.9 454 319.6 453.8 319.4L440.6 310.7C440.3 310.5 440 310.6 439.9 310.8Z" fill="black"/>
<path d="M463.4 235C464.5 225.6 462.4 216.4 458.3 213.4C456.6 212.2 454.7 212.1 452.9 213.1L452.6 213.4L446.5 203.6L446.4 203.5L445.6 195.4C445.4 193.5 443.9 192.1 442 192.1H409C407.4 159.1 395 116.3 365 116.2H364.9C357.1 116.2 350 119.3 343.8 125.5C331.3 138 322.8 163.6 321.5 192H300.8V189.5C300.8 188 299.6 186.8 298.1 186.8H294.3C292.8 186.8 291.6 188 291.6 189.5V192H288C286.1 192 284.6 193.4 284.4 195.3L283.6 203.7L277.7 213.2C277.6 213.1 277.4 212.9 277.2 212.9C276.4 212.7 275 212.6 273.6 213.7C273.2 214 272.9 214.3 272.5 214.8C264 224.3 266 247.4 271.7 266H237.2C237.3 263.9 237.4 261.4 237.6 258.7C238.2 248.4 238.9 235.6 237.7 228.4C236 218.3 228.8 206.9 224.4 201.8C220.5 197.3 215.1 191 213.3 188.9C219.5 184.9 222.9 179.3 223.4 172.3V171.7C223.7 168.7 223 164.6 220.6 162C219.1 160.3 217.2 159.5 214.9 159.5H175.3C175 148 169 136.5 156 136.5C151.7 136.5 147.8 138.2 144.6 141L144.4 140.9C144.4 141 144.3 141.1 144.3 141.3C139.8 145.5 136.9 152.1 136.7 159.6H101.8C99.5001 159.6 97.5 160.4 96.1 162.1C93.8 164.7 93.0001 168.8 93.3001 171.8V172.4C93.8001 179.4 97.2001 185 103.4 189C101.5 191.2 96.1001 197.4 92.3001 201.9C86.9001 208.2 80.4 219.2 79 228.5C77 241.4 78.2 251.5 79.2 260.5C80.1 268.3 80.9 275.1 79.5 282.1C78.7001 283.8 77.8 285.7 77.1 287.7C73.9 296.1 72.7 306.6 73.5 311.2C74.2 315.1 77.8001 317.9 82.4001 319.5H62.8C62.2 319.5 61.8 319.9 61.8 320.5V389C61.8 389.6 62.2 390 62.8 390H122.5C122.7 390.4 122.9 390.8 123 391.2C124.1 393.6 125.2 396.2 126.5 399.4C126.6 399.6 126.7 399.9 126.8 400.1C129.1 405.3 134.3 408.9 140.3 408.9H311.6C317.6 408.9 322.8 405.3 325.1 400.1V400L325.4 399.4C326.7 396.2 327.9 393.5 328.9 391.1C329.1 390.7 329.3 390.3 329.4 389.9H442C442.9 389.9 443.7 389.4 444.1 388.6C444.5 387.8 444.4 386.9 443.9 386.2L435.5 375.4C432.5 371.6 428.1 369.4 423.2 369.4H370.2V338.9C370.2 338.6 370.1 338.4 369.9 338.2C376.2 337.8 383.2 336.6 390.9 334.2C398.7 331.8 405.6 328.5 411.8 324.7H452C453.7 324.7 455.4 324 456.5 322.7C457.6 321.4 458.2 319.7 458 318L453.8 275.6C453.8 275.5 453.7 275.3 453.7 275.2C459.5 262 463 248 463.4 234.7C463.5 235.1 463.5 235 463.4 235ZM454 214.8C455.1 214.2 456.2 214.2 457.2 215C459.1 216.4 460.7 220 461.4 224.7C459.9 223.1 457.6 222.7 455.7 222.4L454.2 222.1C452.8 221.8 452 221.1 451.7 220C451.4 219 451.7 217.8 452.4 216.7L453.4 218.3C453.6 218.6 453.9 218.8 454.2 218.8C454.4 218.8 454.6 218.8 454.7 218.6C455.2 218.3 455.3 217.7 455 217.2L453.6 215C453.8 214.9 453.9 214.9 454 214.8ZM451.2 214.8C449.7 216.5 449.2 218.6 449.7 220.5C450.2 222.3 451.6 223.5 453.7 224C454.2 224.1 454.8 224.2 455.3 224.3C458.4 224.9 460.4 225.4 460.8 228.1C460.9 228.6 461.3 228.9 461.7 228.9C461.8 231.9 461.5 235.3 460.8 238.7C458.9 247.5 456.2 256 452.6 264.2L446.9 208.1L451.2 214.8ZM401.1 207.3H409.4L412.5 234.9C412.6 235.4 412.4 235.8 412.1 236.1C411.8 236.4 411.4 236.6 410.9 236.6H399.5C399 236.6 398.6 236.4 398.3 236.1C398 235.8 397.9 235.3 397.9 234.9L401.1 207.3ZM411.3 206.9L411.2 206.2C411.1 205.7 410.7 205.3 410.2 205.3H400.1C399.6 205.3 399.2 205.7 399.1 206.2L399 206.9V199.2H401.3V199.8C401.3 201.1 402.4 202.2 403.7 202.2H406.9C408.2 202.2 409.3 201.1 409.3 199.8V199.2H411.3V206.9ZM362.1 192.2V140C363.1 140.3 364.1 140.5 365.2 140.5C366.3 140.5 367.3 140.3 368.3 140V192.2H362.1ZM329.5 192.2C330.7 165.6 338.3 142.1 349.4 130.9C352 128.3 354.8 126.4 357.8 125.2C356.5 126.8 355.7 128.8 355.7 131.1C355.7 134.5 357.5 137.4 360.2 139.1C360.2 139.2 360.1 139.3 360.1 139.5V192.2H329.5ZM321.3 207.4H329.6L332.7 235C332.8 235.5 332.6 235.9 332.3 236.2C332 236.5 331.6 236.7 331.1 236.7H319.7C319.2 236.7 318.8 236.5 318.5 236.2C318.2 235.9 318.1 235.4 318.1 235L321.3 207.4ZM331.5 207L331.4 206.3C331.3 205.8 330.9 205.4 330.4 205.4H320.3C319.8 205.4 319.4 205.8 319.3 206.3L319.2 207V199.3H321.3V199.8C321.3 201.1 322.4 202.2 323.7 202.2H326.7C328 202.2 329.1 201.1 329.1 199.8V199.2H331.4V207H331.5ZM365.1 123.8C365.7 123.8 366.3 123.8 366.8 123.9C370.1 124.7 372.6 127.6 372.6 131.1C372.6 135.2 369.3 138.5 365.2 138.5C361.1 138.5 357.8 135.2 357.8 131.1C357.8 127.6 360.2 124.7 363.5 123.9C364 123.8 364.5 123.8 365.1 123.8ZM370.1 139.1C372.8 137.4 374.5 134.5 374.5 131.1C374.5 128.8 373.7 126.8 372.4 125.1C389.8 131.7 399.7 161.8 401.1 192.2H370.1V139.5C370.2 139.3 370.2 139.2 370.1 139.1ZM345.3 127.1C351.1 121.3 357.8 118.3 365 118.3H365.1C396.1 118.4 407.3 167.1 407.3 199.8C407.3 200 407.1 200.2 406.9 200.2H403.7C403.5 200.2 403.3 200 403.3 199.8C403.3 197.7 403.3 195.7 403.2 193.6C403.3 193.5 403.3 193.3 403.3 193.1C403.3 192.9 403.2 192.7 403.1 192.6C401.6 158.1 389.1 123.8 367 121.8C366.4 121.7 365.7 121.6 365 121.6C364.3 121.6 363.6 121.7 363 121.8C357.5 122.3 352.4 124.9 347.8 129.4C335.2 141.9 327.1 169.5 327.1 199.7C327.1 199.9 326.9 200.1 326.7 200.1H323.7C323.5 200.1 323.3 199.9 323.3 199.7C323.4 168.9 332 140.4 345.3 127.1ZM299 208H293.7L295.4 194.5H297.2L299 208ZM293.6 192V189.7C293.6 189.3 293.9 189 294.3 189H298.1C298.5 189 298.8 189.3 298.8 189.7V192.2H293.4C293.6 192.1 293.6 192.1 293.6 192ZM286.5 195.7C286.6 194.9 287.3 194.2 288.1 194.2H293.4L291.5 208.9C291.5 209.2 291.6 209.5 291.7 209.7C291.9 209.9 292.2 210 292.5 210H300.1C300.4 210 300.7 209.9 300.9 209.7C301.1 209.5 301.2 209.2 301.1 208.9L299.2 194.2H321.5C321.5 195.2 321.4 196.2 321.4 197.3H318.3C317.7 197.3 317.3 197.7 317.3 198.3V210.1C317.3 210.7 317.7 211.1 318.3 211.1C318.5 211.1 318.7 211 318.9 210.9L316.2 234.8C316.1 235.8 316.4 236.8 317.1 237.6C317.8 238.4 318.7 238.8 319.8 238.8H331.2C332.2 238.8 333.2 238.4 333.9 237.6C334.6 236.8 334.9 235.8 334.8 234.8L332.1 210.9C332.3 211 332.4 211.1 332.7 211.1C333.3 211.1 333.7 210.7 333.7 210.1V198.3C333.7 197.7 333.3 197.3 332.7 197.3H329.4C329.4 196.3 329.4 195.2 329.5 194.2H401.4C401.4 195.2 401.5 196.2 401.5 197.2H398.2C397.6 197.2 397.2 197.6 397.2 198.2V210C397.2 210.6 397.6 211 398.2 211C398.4 211 398.6 210.9 398.8 210.8L396.1 234.7C396 235.7 396.3 236.7 397 237.5C397.7 238.3 398.6 238.7 399.7 238.7H411.1C412.1 238.7 413.1 238.3 413.8 237.5C414.5 236.7 414.8 235.7 414.7 234.7L412 210.8C412.2 210.9 412.3 211 412.6 211C413.2 211 413.6 210.6 413.6 210V198.2C413.6 197.6 413.2 197.2 412.6 197.2H409.6C409.6 196.2 409.6 195.2 409.5 194.1H442.4C443.2 194.1 443.9 194.7 444 195.6L451.3 267.7C439.6 292.4 420.7 312.7 398.8 323H332.5C332.5 322.6 332.4 322.1 332.4 321.7C331.9 316.9 331.5 312.2 331.1 307.6H412.7C413 307.6 413.2 307.4 413.2 307.1C413.2 306.8 413 306.6 412.7 306.6H331C330.4 299.1 329.9 291.8 329.9 284.6V269.5C329.9 267.7 328.4 266.2 326.6 266.2H304.4V260.5C304.4 259.9 304 259.5 303.4 259.5H286.2C285.6 259.5 285.2 259.9 285.2 260.5V266.2H279.7L286.5 195.7ZM362.1 329.9V325H368.2V330.1C366.1 330.2 364.1 330.1 362.1 329.9ZM343.5 325H360.1V329.6C354.4 328.9 348.8 327.4 343.5 325ZM370.2 325H393.8C385.9 328.1 378 329.8 370.2 330.1V325ZM360.1 369.6H334.8C334.9 368.4 334.9 367.1 334.9 365.8V359.6C336 358.5 337 357.3 338 356C338.2 355.8 338.2 355.5 338.2 355.2L336.4 344C336.3 343.6 336 343.3 335.6 343.2C335.2 343.1 334.8 343.3 334.6 343.7C334.5 343.9 334.3 344.2 334.2 344.4C333.8 339.4 333.4 334.5 333 329.6C338.8 333.3 347.8 337.4 360.3 338.4C360.3 338.5 360.2 338.6 360.2 338.7V369.6H360.1ZM278.6 376.4H279.3V386H278.6V376.4ZM276.6 392.7H265.7V376.4H270.2V385.3C270.2 385.9 270.6 386.3 271.2 386.3C271.8 386.3 272.2 385.9 272.2 385.3V376.4H276.7V392.7H276.6ZM175.4 393.7H186.3V402.4L180.8 406.8L175.3 402.4V393.7H175.4ZM173.4 385.9H172.7V376.3H173.4V385.9ZM175.4 386.9V376.3H179.9V385.2C179.9 385.8 180.3 386.2 180.9 386.2C181.5 386.2 181.9 385.8 181.9 385.2V376.3H186.4V391.6H175.5V386.9H175.4ZM175.4 356.2H186.3V374.4H181.8V373.4C181.8 372.8 181.4 372.4 180.8 372.4C180.2 372.4 179.8 372.8 179.8 373.4V374.4H175.3V356.2H175.4ZM188.3 376.4H189V386H188.3V376.4ZM187.9 403.7C188.1 403.5 188.3 403.2 188.3 402.9V393.7H189.6C190.2 393.7 190.6 393.3 190.6 392.7C190.6 392.1 190.2 391.7 189.6 391.7H188.3V387.9H190C190.6 387.9 191 387.5 191 386.9V375.3C191 374.7 190.6 374.3 190 374.3H188.3V370.2C188.5 370.4 188.7 370.5 189 370.5H263.4C263.5 370.5 263.6 370.5 263.7 370.4V374.2H262C261.4 374.2 261 374.6 261 375.2V386.8C261 387.4 261.4 387.8 262 387.8H263.7V392.6H262.4C261.8 392.6 261.4 393 261.4 393.6C261.4 394.2 261.8 394.6 262.4 394.6H263.7V402.8C263.7 403.1 263.8 403.4 264.1 403.6L268.4 407H183.6L187.9 403.7ZM263.7 385.9H263V376.3H263.7V385.9ZM265.7 402.5V394.8H276.6V402.5L271.1 406.9L265.7 402.5ZM272.2 374.4V373.4C272.2 372.8 271.8 372.4 271.2 372.4C270.6 372.4 270.2 372.8 270.2 373.4V374.4H265.7V356.2H276.6V374.4H272.2ZM278.6 356.2H281.4C282 356.2 282.4 355.8 282.4 355.2C282.4 354.6 282 354.2 281.4 354.2H260.8C260.2 354.2 259.8 354.6 259.8 355.2C259.8 355.8 260.2 356.2 260.8 356.2H263.6V368.7C263.5 368.7 263.4 368.6 263.3 368.6H189C188.7 368.6 188.4 368.7 188.3 368.9V356.1H191.1C191.7 356.1 192.1 355.7 192.1 355.1C192.1 354.5 191.7 354.1 191.1 354.1H170.5C169.9 354.1 169.5 354.5 169.5 355.1C169.5 355.7 169.9 356.1 170.5 356.1H173.3V368.7C173.2 368.6 173 368.6 172.8 368.6H135.6C129.4 368.6 124.4 363.6 124.4 357.4V269.4C124.4 268.7 125 268.1 125.7 268.1H177.4C179.4 271.4 184.2 277.7 195.3 285.7L194.2 287.1C194 287.3 194 287.6 194 287.8C194 288.1 194.2 288.3 194.4 288.5L198.4 291.6L197.8 292.4C197.5 292.8 197.5 293.5 198 293.8C198.2 293.9 198.4 294 198.6 294C198.9 294 199.2 293.9 199.4 293.6L200 292.8L204 295.9C204.2 296 204.4 296.1 204.6 296.1C204.9 296.1 205.2 296 205.4 295.7L206.5 294.3L211.2 297.9C211.1 298 211 298 210.9 298.1C210.1 299.2 209.7 300.6 209.9 301.9C210.1 303.3 210.8 304.5 211.9 305.4L260.6 342.7C261.5 343.4 262.6 343.8 263.8 343.8H264.5C265.9 343.6 267.1 342.9 268 341.8C268.2 341.6 268.2 341.3 268.2 341.1C290.1 355.7 306.6 366 319.6 366C321.1 366 322.6 365.8 324.1 365.5C322 367.4 319.3 368.5 316.5 368.5H278.8V356.2H278.6ZM152.6 197V202H146.1V197H152.6ZM146.1 203H152.6V206.2H146.1V203ZM153.6 208.2C154.2 208.2 154.6 207.8 154.6 207.2V197H160.8V207.2C160.8 207.8 161.2 208.2 161.8 208.2H164.7C164.9 218.3 165.8 226.3 167.7 232.6H148.8C150.5 224.8 151.4 216.3 151 208.2H153.6ZM162.8 206.2V203H169.3V206.2H162.8ZM169.4 202H162.9V197H169.4V202ZM168.4 234.6C168.9 236.2 169.5 237.6 170.2 238.9C170.4 239.2 170.7 239.5 171.1 239.5C171.3 239.5 171.4 239.5 171.5 239.4C172 239.2 172.2 238.6 171.9 238.1C171.4 237.1 170.9 235.9 170.5 234.7H208V243.3H182.6C182.3 243.3 182.1 243.5 182.1 243.8C182.1 244.1 182.3 244.3 182.6 244.3H208V248.3H180.9C180.2 248 177.5 245.7 176.7 244.8C176.3 244.4 175.7 244.3 175.3 244.7C174.9 245.1 174.8 245.7 175.2 246.1C175.6 246.5 176.5 247.4 177.6 248.3H143.6C144.2 247 144.8 245.7 145.3 244.3H164.7C165 244.3 165.2 244.1 165.2 243.8C165.2 243.5 165 243.3 164.7 243.3H145.7C146.7 240.6 147.6 237.7 148.3 234.7H168.4V234.6ZM199 260.1H194.4L195.9 250.6H197.5L199 260.1ZM143.6 243.1H108.7V234.5H146.3C145.5 237.6 144.6 240.5 143.6 243.1ZM108.7 244.1H143.2C142.6 245.5 142 246.9 141.4 248.1H108.7V244.1ZM113 250.2H140.3C139.6 251.5 138.8 252.7 138 253.8C137.7 254.2 137.8 254.9 138.2 255.2C138.4 255.3 138.6 255.4 138.8 255.4C139.1 255.4 139.4 255.3 139.6 255C140.6 253.6 141.6 252 142.5 250.2H193.8L192.1 261C192.1 261.3 192.1 261.6 192.3 261.8C192.5 262 192.8 262.2 193.1 262.2H200C200.3 262.2 200.6 262.1 200.8 261.8C201 261.6 201.1 261.3 201 261L199.3 250.2H204.1V266.2H192.2C189.7 263.5 188.6 261.7 188.5 261.6C188.3 261.2 187.8 261 187.4 261.2L176.7 264.3C176.4 264.4 176.2 264.5 176.1 264.8C176 265 175.9 265.3 176 265.6L176.2 266.2H167.4V260.5C167.4 259.9 167 259.5 166.4 259.5H149.2C148.6 259.5 148.2 259.9 148.2 260.5V266.2H125.6C123.8 266.2 122.3 267.7 122.3 269.5V284.6C122.3 290.1 122 295.6 121.6 301.2H118.9C113.5 300.8 112.8 298.4 112.8 296.3V250.2H113ZM320.4 268.2V353.5C309.1 354 294.3 343.6 277.2 331.7C276.9 331.5 276.6 331.3 276.3 331C278 328.7 277.6 325.5 275.3 323.7L226.7 286.4C225.6 285.6 224.2 285.2 222.8 285.4C221.4 285.6 220.2 286.3 219.3 287.4C219.3 287.4 219.2 287.5 219.2 287.6L214.5 284L215.5 282.7C215.7 282.5 215.7 282.2 215.7 282C215.7 281.7 215.5 281.5 215.3 281.3L211.3 278.2L211.9 277.4C212.2 277 212.2 276.3 211.7 276C211.3 275.7 210.6 275.7 210.3 276.2L209.7 277L205.7 273.9C205.3 273.6 204.6 273.6 204.3 274.1L203.2 275.5C199.4 273 196.4 270.5 194.2 268.3H320.4V268.2ZM302.1 266.2H286.9V261.5H302.1V266.2ZM327.6 351.2C326.2 352.1 324.6 352.7 323 353.1C322.5 353.2 322 353.3 321.4 353.3V268.1H326.2C326.9 268.1 327.5 268.7 327.5 269.4V351.1C327.5 351.2 327.6 351.2 327.6 351.2ZM330.1 321.9C330.9 330 331.7 338.4 332.3 347C331.4 348.1 330.5 349 329.6 349.8V316.6C329.7 318.4 329.9 320.1 330.1 321.9ZM261.9 337.1C263.6 338.2 265.2 339.3 266.8 340.4C266.6 340.5 266.4 340.6 266.3 340.7C265.8 341.4 265 341.8 264.2 341.9C263.4 342 262.5 341.8 261.8 341.3L259.6 339.6C259.8 339.6 260.1 339.5 260.2 339.2L261.9 337.1ZM258.6 338.1C258.4 338.3 258.4 338.6 258.4 338.8L250.6 332.8C250.8 332.8 251.1 332.7 251.2 332.4L253.6 329.3L260.5 320.3L263.2 316.8L270.6 322.5L258.6 338.1ZM178.5 265.9L187.4 263.3C188.7 265.2 193.1 271 202.1 276.9L196.5 284.2C183.9 275.1 179.7 268.3 178.5 265.9ZM196.9 287L200.1 289.5L199.6 290.1L196.4 287.6L196.9 287ZM201.7 290.7L204.9 293.2L204.4 293.8L201.2 291.3L201.7 290.7ZM198.1 285.4L203.7 278.1L211.8 284.3L206.2 291.6L198.1 285.4ZM213 282.7L209.8 280.2L210.2 279.7L213.4 282.2L213 282.7ZM208.2 279L205 276.5L205.4 276L208.6 278.5L208.2 279ZM213.4 285.5L223.7 293.4L218 300.8L207.7 292.9L213.4 285.5ZM224.9 291.8L220.8 288.6L220.9 288.5C221.4 287.8 222.2 287.4 223 287.3C223.9 287.2 224.7 287.4 225.4 287.9L227 289.1L224.9 291.8ZM212.5 299.5C212.6 299.4 212.6 299.3 212.7 299.2L216.8 302.4L214.6 305.2L213.1 304C212.4 303.5 212 302.7 211.9 301.9C211.8 301.1 212 300.2 212.5 299.5ZM225.9 293.8L228.6 290.3L236 296L226.4 308.5L223.6 312.1L216.2 306.4L225.9 293.8ZM252.6 327.3L228.6 308.9L234.3 301.5L258.3 319.9L252.6 327.3ZM259.5 318.3L235.5 299.9L237.6 297.2L261.6 315.6L259.5 318.3ZM227.4 310.5L251.4 328.9L249.7 331.2C249.5 331.4 249.5 331.7 249.5 331.9L225.3 313.3L227.4 310.5ZM272.1 323.8L274.1 325.3C275.5 326.4 275.8 328.4 274.7 329.8V329.9C273.2 328.8 271.6 327.7 270 326.6L272.1 323.8ZM150.4 266.2V261.5H165.6V266.2H150.4ZM263.1 335.5L268.8 328.1C271.3 329.8 273.7 331.5 276.1 333.2C295.6 346.9 311 357.6 323.4 355C327.5 354.1 331 351.8 334 348L334.3 347.7C334.5 347.4 334.7 347.2 334.9 346.9L336.2 355.1C321.2 374.3 300.5 360.6 263.1 335.5ZM278.2 257.7C273.2 249.9 271.1 240.3 270.9 232.2C271.1 232.6 271.4 232.8 271.8 232.8C271.9 232.8 272 232.8 272.2 232.7C272.7 232.5 273 231.9 272.8 231.4C272 229.4 274.4 227.3 276.9 225C279.3 222.8 281.7 220.6 281.6 218.1C281.5 216.8 280.8 215.6 279.4 214.5L283.2 208.4L278.2 257.7ZM276.7 214.9L275.3 217.1C275 217.6 275.2 218.2 275.6 218.5C275.8 218.6 275.9 218.7 276.1 218.7C276.4 218.7 276.8 218.5 276.9 218.2L278.2 216.1C279 216.8 279.4 217.4 279.4 218.1C279.5 219.7 277.4 221.6 275.3 223.4C273.5 225 271.5 226.8 270.8 228.8C271 223.4 272.1 219 273.7 216.6C273.8 216.4 273.9 216.3 274 216.1C274.3 215.8 274.5 215.5 274.8 215.3C275.5 214.9 276.1 214.8 276.7 214.9ZM269 232.6C269 233.6 269.1 234.6 269.2 235.7C270 245.3 273.2 254.2 278 260.8L277.5 266.2H274C270.4 255.1 268.4 242.7 269 232.6ZM222.9 203.3C227.2 208.3 234.1 219.2 235.7 228.9C236.9 235.9 236.1 249.1 235.6 258.8C235.4 261.5 235.3 264 235.2 266.1H206.2V250.1H209C209.6 250.1 210 249.7 210 249.1V233.5C210 232.9 209.6 232.5 209 232.5H169.8C167.9 226.4 166.9 218.2 166.7 208.1H170.3C170.9 208.1 171.3 207.7 171.3 207.1V197H174.1C190.8 197 203.2 194.7 211.5 190.1C213.2 192 218.9 198.6 222.9 203.3ZM212.9 163C214.6 164.8 215.1 167.8 214.8 169.8V170.3C213.8 183 199.6 189.4 172.4 189.4H144.3C117.2 189.4 102.9 183 101.9 170.3V169.8C101.7 167.7 102.2 164.8 103.8 163C104.3 162.4 104.9 162 105.6 161.7H211C211.7 162 212.3 162.4 212.9 163ZM173.3 159.7H167.3C168 157 169.4 150.5 168.5 144.5C171.8 148.6 173.2 154.3 173.3 159.7ZM165.8 141.7C168.1 148.2 165.9 157.3 165.2 159.7H146.8C146.2 157.4 144.1 149 146 142.5C148.8 140 152.2 138.6 156 138.6C160.1 138.5 163.3 139.7 165.8 141.7ZM143.4 145.3C142.7 151.1 144.1 157.1 144.7 159.7H138.7C138.9 154 140.6 149 143.4 145.3ZM95.3001 172.3C95.3001 172.1 95.3 171.8 95.2 171.6C95 169.1 95.6 165.5 97.5 163.4C98.6 162.2 100 161.6 101.8 161.6H103.8C103.6 161.8 103.3 162 103.1 162.2C101.2 164.3 100.7 167.5 100.9 169.8V170.3C101.9 183.6 116.5 190.3 144.3 190.3H172.4C200.1 190.3 214.7 183.6 215.8 170.3V169.8C216 167.5 215.5 164.2 213.6 162.2C213.4 162 213.2 161.8 212.9 161.6H214.9C216.6 161.6 218.1 162.2 219.2 163.4C221.1 165.5 221.7 169.1 221.5 171.6C221.5 171.8 221.5 172 221.4 172.3C220.3 187.3 204.4 195 174.1 195H142.5C112.3 195 96.4001 187.4 95.3001 172.3ZM81.2 260.4C80.2 251.6 79 241.5 81 228.9C82.5 219.4 89.5001 208.3 93.8001 203.3C97.8001 198.6 103.5 192 105.2 190.1C113.4 194.7 125.9 197 142.6 197H144.2V207.2C144.2 207.8 144.6 208.2 145.2 208.2H149C149.4 216.3 148.5 224.8 146.8 232.6H107.8C107.2 232.6 106.8 233 106.8 233.6V249.2C106.8 249.8 107.2 250.2 107.8 250.2H111.1V287.2H79.5C82.5 279.8 86.3001 274.6 86.4001 274.5C86.7001 274.1 86.6 273.4 86.2 273.1C85.8 272.8 85.1001 272.9 84.8001 273.3C84.7001 273.4 83.7001 274.9 82.3001 277.2C82.6001 271.8 81.9 266.4 81.2 260.4ZM75.4001 311C74.7001 306.9 75.8 297 78.7 289.2H111V296.3C111 300.5 113.7 302.8 119 303.2H121.7C121.3 308.6 120.8 314.1 120.2 319.7H94.6C82.5 319.6 76.2001 315.1 75.4001 311ZM63.8 388.1V321.6H120C118.6 335.7 117.1 350.3 117.2 365.7C117.2 376.4 119 381.7 121.7 388H63.8V388.1ZM119.1 365.8C119.1 350.5 120.5 336 121.9 321.9C122.1 320.1 122.2 318.4 122.4 316.7V357.5C122.4 360.7 123.6 363.7 125.5 366V392.2C125.3 391.7 125 391.1 124.8 390.6C121.3 382.6 119.2 377.8 119.1 365.8ZM128.6 399.5C128.5 399.3 128.4 399 128.3 398.8C127.8 397.4 127.5 395.9 127.5 394.3V367.8C129.7 369.6 132.6 370.6 135.6 370.6H172.8C173 370.6 173.1 370.5 173.3 370.5V374.4H171.6C171 374.4 170.6 374.8 170.6 375.4V387C170.6 387.6 171 388 171.6 388H173.3V391.8H172C171.4 391.8 171 392.2 171 392.8C171 393.4 171.4 393.8 172 393.8H173.3V403C173.3 403.3 173.4 403.6 173.7 403.8L178 407.2H140.3C135.1 407.1 130.6 404 128.6 399.5ZM311.6 407.1H274L278.3 403.7C278.5 403.5 278.7 403.2 278.7 402.9V394.7H280C280.6 394.7 281 394.3 281 393.7C281 393.1 280.6 392.7 280 392.7H278.7V387.9H280.4C281 387.9 281.4 387.5 281.4 386.9V375.3C281.4 374.7 281 374.3 280.4 374.3H278.7V370.6H316.4C319.4 370.6 322.2 369.6 324.5 367.8V394.3C324.5 395.9 324.2 397.4 323.7 398.8L323.4 399.4C321.4 404 316.9 407.1 311.6 407.1ZM326.5 392.1V365.9C326.8 365.5 327.1 365.2 327.3 364.8C327.3 364.7 327.3 364.7 327.4 364.6C329.3 363.8 331.1 362.8 332.9 361.4V365.8C332.9 377.8 330.7 382.6 327.2 390.6C326.9 391.1 326.7 391.6 326.5 392.1ZM433.9 376.8L442.3 387.6C442.4 387.7 442.4 387.9 442.3 387.9C442.3 388 442.2 388.1 442 388.1H330.4C332.6 383 334.1 378.6 334.6 371.6H423.4C427.4 371.6 431.3 373.5 433.9 376.8ZM368.2 339.1V369.6H362.1V338.5C363.2 338.6 364.3 338.6 365.5 338.6C366.5 338.6 367.5 338.6 368.5 338.5C368.3 338.7 368.2 338.9 368.2 339.1ZM390.3 332.6C360.6 341.8 341.5 333.2 332.5 327.1C332.4 326.4 332.4 325.7 332.3 325.1H338.7C347.8 329.9 357.7 332.3 367.9 332.3H368.8C368.9 332.3 369 332.4 369.1 332.4C369.2 332.4 369.3 332.4 369.4 332.3C379.2 332.1 389.3 329.7 399.1 325C426.4 312.2 448.5 285.2 459 252.8C456 266.6 450.1 280.4 442.1 292.5C433 306.3 416.6 324.5 390.3 332.6ZM456.1 318.6C456.2 319.8 455.9 320.9 455.1 321.7C454.3 322.6 453.2 323 452.1 323H415C428.4 314.1 437.8 302.8 444 293.5C447.1 288.9 449.8 284 452.2 279L456.1 318.6Z" fill="black"/>
<path d="M322.1 233.3H328.6C328.9 233.3 329.1 233.1 329.1 232.8C329.1 232.5 328.9 232.3 328.6 232.3H322.7L324.9 211C324.9 210.7 324.7 210.5 324.5 210.5C324.2 210.5 324 210.7 324 210.9L321.8 232.8C321.8 232.9 321.8 233.1 321.9 233.2C321.8 233.2 321.9 233.3 322.1 233.3ZM401.8 234.1H410.1C410.4 234.1 410.6 233.9 410.6 233.6C410.6 233.3 410.4 233.1 410.1 233.1H402.3L404.4 211C404.4 210.7 404.2 210.5 403.9 210.5C403.6 210.5 403.4 210.7 403.4 211L401.2 233.6C401.2 233.7 401.2 233.9 401.3 234C401.5 234 401.7 234.1 401.8 234.1ZM169.5 242.7C169.8 242.8 170.2 242.8 170.5 242.8C171.7 242.8 173 242.3 173.8 241.4C174.8 240.4 175.2 239.1 174.9 237.8C174.8 237.3 174.2 236.9 173.7 237C173.2 237.1 172.8 237.7 172.9 238.2C173.1 239 172.6 239.7 172.4 240C171.8 240.6 170.8 240.9 169.9 240.7C169.4 240.6 168.8 240.9 168.7 241.5C168.6 242 169 242.6 169.5 242.7Z" fill="black"/>
<path d="M171.4 243.4C170.9 243.4 170.4 243.8 170.4 244.4C170.4 245 170.8 245.4 171.4 245.4H171.6C174.2 245.4 176.6 243.4 177.1 240.9C177.2 240.4 176.9 239.8 176.3 239.7C175.8 239.6 175.2 239.9 175.1 240.5C174.8 242.2 173.1 243.5 171.4 243.4ZM139.1 259.2C139.4 259.2 139.8 259.2 140.1 259.1C140.6 259 141 258.5 140.9 257.9C140.8 257.4 140.3 257 139.7 257.1C138.8 257.3 137.9 257 137.2 256.4C136.9 256.1 136.5 255.5 136.7 254.6C136.8 254.1 136.5 253.5 135.9 253.4C135.4 253.3 134.8 253.6 134.7 254.2C134.4 255.5 134.8 256.8 135.8 257.8C136.6 258.7 137.8 259.2 139.1 259.2Z" fill="black"/>
<path d="M138 261.9H138.2C138.8 261.9 139.2 261.4 139.2 260.9C139.2 260.3 138.7 259.9 138.2 259.9C136.5 260 134.8 258.6 134.5 257C134.4 256.5 133.9 256.1 133.3 256.2C132.8 256.3 132.4 256.8 132.5 257.4C133 259.9 135.4 261.9 138 261.9Z" fill="black"/>
<path d="M131 264.5C131.1 264.5 131.2 264.5 131.4 264.4C132.6 264 133.6 263.3 134.4 262.4C134.8 262 134.7 261.4 134.3 261C133.9 260.6 133.3 260.7 132.9 261.1C132.3 261.8 131.6 262.3 130.7 262.6C130.2 262.8 129.9 263.4 130.1 263.9C130.2 264.2 130.6 264.5 131 264.5ZM164.7 363.7H138.6C134.3 363.7 130.7 360.2 130.7 355.8V273.8C130.7 273.5 130.5 273.3 130.2 273.3C129.9 273.3 129.7 273.5 129.7 273.8V355.8C129.7 360.7 133.7 364.7 138.6 364.7H164.7C165 364.7 165.2 364.5 165.2 364.2C165.2 363.9 165 363.7 164.7 363.7ZM256.3 363.7H195.7C195.4 363.7 195.2 363.9 195.2 364.2C195.2 364.5 195.4 364.7 195.7 364.7H256.3C256.6 364.7 256.8 364.5 256.8 364.2C256.8 363.9 256.5 363.7 256.3 363.7Z" fill="black"/>
</svg>
