<svg width="526" height="526" viewBox="0 0 526 526" fill="none" xmlns="http://www.w3.org/2000/svg">
<path d="M316.4 319.8C316.2 319.5 315.9 319.4 315.6 319.4H296.3C295.7 319.4 295.3 319.8 295.3 320.4C295.3 321 295.7 321.4 296.3 321.4H298.4C298.8 322.3 299.1 323.3 299.5 324.2C301.2 328.5 302.9 333 305.2 337.1C305.3 337.3 305.5 337.4 305.6 337.4C305.7 337.4 305.8 337.4 305.8 337.3C306 337.2 306.1 336.9 306 336.6C303.8 332.6 302.1 328.1 300.4 323.8C300.1 323 299.8 322.2 299.4 321.3H309.6C310.2 326.6 313.2 330 316.6 334L316.8 334.3C316.9 334.4 317 334.5 317.2 334.5C317.3 334.5 317.4 334.5 317.5 334.4C317.7 334.2 317.7 333.9 317.5 333.7L317.3 333.4C314 329.6 311.1 326.4 310.5 321.4H315.5C316.1 321.4 316.5 321 316.5 320.4C316.9 321.5 317.3 322.7 317.6 323.8C318.1 325.6 318.6 327.5 318.9 329.4C320.6 338.6 319.2 348.1 314.9 356.8C314.8 357 314.9 357.3 315.1 357.5C315.2 357.5 315.2 357.6 315.3 357.6C315.5 357.6 315.7 357.5 315.7 357.3C320.1 348.3 321.6 338.6 319.8 329.2C319.4 327.3 319 325.4 318.4 323.5C315.4 313.3 309.5 302.9 302.7 295.7C302.5 295.5 302.2 295.5 302 295.7C301.8 295.9 301.8 296.2 302 296.4C308.1 302.5 313.2 311.1 316.4 319.8ZM142.6 351.3C139.8 351.3 137.6 353.6 137.6 356.3C137.6 359 139.9 361.3 142.6 361.3C145.3 361.3 147.6 359.1 147.6 356.3C147.6 353.5 145.4 351.3 142.6 351.3ZM142.6 360.3C140.4 360.3 138.6 358.5 138.6 356.3C138.6 354.1 140.4 352.3 142.6 352.3C144.8 352.3 146.6 354.1 146.6 356.3C146.6 358.5 144.8 360.3 142.6 360.3Z" fill="black"/>
<path d="M458.5 319.4H409.9V311.6C409.9 311 409.5 310.6 408.9 310.6H374.6V137.8C374.6 135.4 376.5 133.5 378.9 133.5H427.5C429.9 133.5 431.8 135.4 431.8 137.8V146.1H426C425.4 146.1 425 146.5 425 147.1V173.2C425 173.7 425.4 174.1 425.9 174.2V174.5C426.6 179.2 426.7 179.4 419.6 184.6C408 193 402.6 202.2 403 212.7C403.3 220.4 406.2 227.6 411.3 233C416.8 238.9 424.2 242 432.8 242C450.3 242 462.6 229.4 462.6 211.3C462.6 204.3 459.7 194 446 184.6C438.8 179.7 438.9 179 439.6 174.5V174.2C440.1 174.1 440.5 173.7 440.5 173.2V147.1C440.5 146.5 440.1 146.1 439.5 146.1H433.7V137.8C433.7 134.3 430.9 131.5 427.4 131.5H378.8C375.3 131.5 372.5 134.3 372.5 137.8V310.5H338.6C338 310.5 337.6 310.9 337.6 311.5V319.3H324.5C321.6 310.4 316.5 301.8 309.3 293.7L308.9 293.3C307.7 292 306.6 290.7 305.4 289.3L284.4 263.8H285.9C287.3 263.8 288.5 262.6 288.5 261.2V258C288.5 256.6 287.3 255.4 285.9 255.4H274.9V246.5H310.8C310.7 246.6 310.7 246.8 310.7 246.9V263C309.8 264.5 306 271.3 306 273.9C306 277 308.6 279.6 311.7 279.6C314.8 279.6 317.4 277 317.4 273.9C317.4 271.3 313.6 264.5 312.7 263V246.9C312.7 246.7 312.7 246.6 312.6 246.5H354.3C354.9 246.5 355.3 246.1 355.3 245.5V149.3C355.3 148.7 354.9 148.3 354.3 148.3H275C274.5 145.1 271.7 142.6 268.3 142.6C264.9 142.6 262.1 145.1 261.7 148.3H182.3C181.7 148.3 181.3 148.7 181.3 149.3V208.5L153.3 186.1L154 185.2C154.3 184.8 154.2 184.2 153.8 183.8L141.3 173.6C141.3 173.6 141.2 173.6 141.2 173.5C141 169.9 139 166.7 136.2 164.8L139 159.8C139.3 159.3 139.1 158.7 138.6 158.4C138.1 158.1 137.5 158.3 137.2 158.8L134.4 163.8C133.1 163.2 131.7 162.9 130.3 162.8C127.3 162.7 124.4 163.7 122.1 165.8C119.9 167.9 118.6 170.7 118.5 173.7C118.4 175.3 118.7 176.8 119.2 178.2L115.6 184.7L110.3 182C110 181.8 105 179 97.2 185.1L96.3 184.7C95.8 184.5 95.2 184.7 95 185.1C94.8 185.6 95 186.2 95.4 186.4L95.5 186.5C93.9 188 92.2 189.8 90.5 192.1C79.6 206.3 62.3 229.3 62.1 229.5C61.9 229.7 61.9 230 61.9 230.3C62 230.6 62.2 230.8 62.4 231L119.7 260.8C119.8 260.9 120 260.9 120.2 260.9C120.3 260.9 120.5 260.9 120.6 260.8C120.9 260.7 121.1 260.5 121.2 260.2C121.2 260.2 130.3 232.8 136 215.6C137 212.5 137.6 209.8 137.9 207.5L138.1 207.6C138.2 207.7 138.4 207.7 138.5 207.7C138.9 207.7 139.2 207.5 139.4 207.1C139.6 206.6 139.4 206 139 205.8L138.1 205.4C138.5 196.2 133.5 193.9 133.3 193.8L128.1 191.1L131.2 185.7C131.2 185.6 131.2 185.6 131.3 185.5C132.1 185.4 132.9 185.2 133.6 185L145.6 194.8C145.8 194.9 146 195 146.2 195H146.3C146.6 195 146.8 194.8 147 194.6L147.9 193.3L181.4 220.1V245.4C181.4 246 181.8 246.4 182.4 246.4H208.5C208.9 246.4 209.3 246.2 209.4 245.8L214.5 250.2C214.5 250.4 214.4 250.7 214.4 250.9C214.4 252.4 214.6 253.8 215 255L214.9 255.1L205.2 267C205 267.2 204.9 267.5 205 267.8C205 268.1 205.2 268.3 205.4 268.5L206.5 269.3L154.9 333L153.7 332.1C153.3 331.8 152.7 331.9 152.3 332.3L142.2 345.3C142.1 345.4 142.1 345.4 142.1 345.5C141.6 345.5 141 345.6 140.5 345.7C134.6 346.9 130.9 352.7 132.1 358.5C132.6 360.8 133.7 362.7 135.3 364.2V373.3H127C126.4 373.3 126 373.7 126 374.3V380.1H92.6C92 380.1 91.6 380.5 91.6 381.1V392.4C91.6 393 92 393.4 92.6 393.4H191.8C192.4 393.4 192.8 393 192.8 392.4V381.1C192.8 380.5 192.4 380.1 191.8 380.1H158.4V374.3C158.4 373.7 158 373.3 157.4 373.3H149.1V365C152.4 362.5 154.1 358.3 153.2 354.1C153.2 354 153.1 353.8 153.1 353.7C153.2 353.7 153.2 353.6 153.3 353.6L163.4 340.6C163.6 340.4 163.6 340.1 163.6 339.8C163.6 339.5 163.4 339.3 163.2 339.1L162 338.2L213.6 274.6L214.9 275.6C215.1 275.7 215.3 275.8 215.5 275.8C215.8 275.8 216.1 275.7 216.3 275.4L226 263.5C226.2 263.3 226.2 263 226.2 262.7C229.3 262.5 232.1 261.2 234 259L239.4 263.1C239.6 263.2 239.8 263.3 240 263.3C240.3 263.3 240.6 263.2 240.8 262.9C241.1 262.5 241 261.8 240.6 261.5L235.2 257.4C236.2 255.8 236.9 253.8 236.9 251.8C237 249.9 236.6 248.1 235.8 246.6H261.5V255.5H250.5C249.1 255.5 247.9 256.7 247.9 258.1V261.3C247.9 262.7 249.1 263.9 250.5 263.9H251.9L230.9 289.4C229.8 290.7 228.6 292.1 227.5 293.4L227.1 293.9C219.5 302.5 214.2 311.6 211.4 321.1C210.8 323.2 210.3 325.3 209.9 327.5C205.7 349.9 217.9 373.1 241.1 386.6C242.1 389.2 244.6 393.5 248 393.5H409.2C409.3 393.6 409.4 393.7 409.6 393.7C409.7 393.7 409.8 393.7 409.9 393.6L410 393.5H458.5C461.4 393.5 463.7 391.1 463.7 388.3V324.8C463.8 321.7 461.4 319.4 458.5 319.4ZM433.7 197.4V218.1H432V197.4L432.8 193L433.7 197.4ZM431 197.3L426.7 220.3C426.7 220.5 426.7 220.7 426.9 220.8L432 224.7L429.8 226.4L422.4 220.2L427.6 192.5H431V197.3ZM427.8 220.2L431.1 202.7V218.5C431.1 218.8 431.3 219 431.6 219H434.3C434.6 219 434.8 218.8 434.8 218.5V202.7L438.1 220.2L433 224.1L427.8 220.2ZM438.8 220.8C438.9 220.7 439 220.5 439 220.3L434.7 197.3V192.5H438.1L443.3 220.2L435.9 226.4L433.7 224.7L438.8 220.8ZM433.2 191.5H432V174.2H433.7V191.5H433.2ZM431 191.5H427.2C427 191.5 426.8 191.7 426.7 191.9L421.4 220.3C421.4 220.5 421.4 220.7 421.6 220.8L429.6 227.4C429.7 227.5 429.8 227.5 429.9 227.5C430 227.5 430.1 227.5 430.2 227.4L432.9 225.3L435.6 227.4C435.7 227.5 435.8 227.5 435.9 227.5C436 227.5 436.1 227.5 436.2 227.4L444.2 220.8C444.3 220.7 444.4 220.5 444.4 220.3L439.1 191.9C439.1 191.7 438.8 191.5 438.6 191.5H434.8V174.2H437.8C437.8 174.5 437.7 174.7 437.7 175C437.6 174.9 437.5 174.9 437.4 174.9C437.1 174.9 436.9 175.1 436.9 175.4L436.4 182.7C436.3 184.7 437.3 186.6 439 187.6C444.2 190.6 456.2 198.9 456.2 211.9C456.2 218.7 453.3 225.1 448.1 229.5C443 233.9 436.2 235.9 429.4 234.9C418.5 233.3 410.2 224.1 409.6 213C408.9 198.8 421.3 190.5 426.7 187.6C428.5 186.6 429.6 184.7 429.4 182.6L428.9 175.4C428.9 175.1 428.6 174.9 428.4 174.9C428.3 174.9 428.2 175 428.1 175C428.1 174.7 428 174.5 428 174.2H431V191.5ZM445 186.2C452.2 191.1 460.7 199.4 460.7 211.3C460.7 228.2 449.3 240 432.9 240C415.4 240 405.7 226.2 405.1 212.6C404.7 202.9 409.9 194.3 420.9 186.2C425.8 182.6 427.7 180.9 428.2 178.8L428.4 182.6C428.5 184.3 427.6 185.9 426.2 186.7C420.7 189.7 407.9 198.3 408.6 213.1C409.2 224.7 417.8 234.3 429.2 235.9C430.4 236.1 431.6 236.2 432.8 236.2C438.6 236.2 444.3 234.1 448.7 230.3C454 225.7 457.1 219 457.1 211.9C457.1 198.4 444.7 189.8 439.4 186.8C438 186 437.2 184.4 437.3 182.8L437.5 178.9C438.1 181 440 182.8 445 186.2ZM438.7 172.2H427.1V148.1H438.7V172.2ZM311.8 277.6C309.8 277.6 308.1 275.9 308.1 273.9C308.1 272.7 309.6 269.4 311.1 266.6C311.3 266.8 311.5 266.9 311.8 266.9C312.1 266.9 312.3 266.8 312.5 266.6C314 269.4 315.5 272.7 315.5 273.9C315.5 275.9 313.8 277.6 311.8 277.6ZM190.8 391.4H93.6V382.1H190.8V391.4ZM156.4 379.8H127.9V375.4H156.4V379.8ZM444.9 390.2C444.6 390.6 444.4 391 444.4 391.4H424.5C420.9 389.5 420.5 388.3 420.6 387.8C421.1 385.2 431.7 383.8 436.8 383.2C439.2 382.9 440.4 382.7 440.8 382.6C444.9 380.8 447.5 375.9 450 371.3C453.2 365.5 456.2 360 461.7 360.1V377.2C457.9 377.9 447 387.1 444.9 390.2ZM409.2 391.4C407 387.7 406.4 384.6 407.4 382.5C409.3 378.3 416.6 377.3 423.1 376.3C426.3 375.8 429.3 375.4 431.5 374.6C438.1 372.3 441.3 366.8 444.4 361.5C448.3 354.8 451.9 348.5 461.8 347.9V359C455.7 358.9 452.4 364.9 449.2 370.8C446.7 375.3 444.2 380 440.4 381.7C440.1 381.8 438.4 382 436.7 382.3C428.3 383.3 420.1 384.6 419.6 387.7C419.4 388.9 420.3 390.1 422.5 391.5H409.2V391.4ZM461.8 346.8C451.3 347.5 447.3 354.3 443.5 360.9C440.4 366.3 437.4 371.4 431.2 373.6C429.1 374.3 426.1 374.8 423 375.2C416.3 376.2 408.7 377.3 406.6 382C405.5 384.4 406 387.5 408.2 391.4H387.9C392.2 377.2 399.7 374.8 410 371.6C413.8 370.4 418.1 369 422.8 366.9C430 363.6 434.8 357.2 439.4 351C445.4 342.9 451.2 335.2 461.9 333.9V346.8H461.8ZM461.8 324.6V332.8C450.6 334.1 444.5 342.3 438.5 350.3C434 356.4 429.3 362.7 422.3 365.9C417.7 368 413.4 369.3 409.6 370.5C398.9 373.9 391.2 376.3 386.7 391.3H378.8C378.8 381.6 382.1 378.1 387 373C388.3 371.7 389.6 370.3 391 368.7C393.9 365.3 395 363.1 394.6 361.3C394.1 359.3 391.9 358.3 388.7 357C386.9 356.2 384.9 355.4 382.8 354.1C380 352.4 377.4 350.4 375 348.4C371.2 345.4 367.2 342.2 362.2 340.3C350.1 335.8 346 333.7 341.3 321.2H349.8C352.2 328.6 359.6 330.3 366.8 331.9C370.1 332.6 373.3 333.3 375.8 334.6C380.4 336.8 384 340.3 387.5 343.7C391.6 347.6 395.8 351.7 401.5 354C405.7 355.7 409.7 356.5 413.4 356.5C420.9 356.5 427.3 353 432.3 346.1C434 343.8 435.4 340.8 437 337.7C440.4 330.8 444.1 323.2 450.9 321.2H458.3C460.3 321.4 461.8 322.8 461.8 324.6ZM315.4 391.4C314.5 389.5 315.2 388.2 316 386.9C316.8 385.5 317.8 383.9 315.7 382C313.7 380.2 311.2 380.7 308.9 381.2C306.8 381.7 305 382 303.6 380.9C307.7 377.7 311.4 374.1 314.5 370.3C316.5 371.2 318.8 371.7 321 372.2C325.5 373.2 329.7 374.1 331.5 378.2C333 381.8 331.9 383.7 330.5 385.8C329.5 387.4 328.6 389 328.6 391.3H315.4V391.4ZM302.8 381.5C304.6 383.1 306.9 382.6 309.1 382.1C311.3 381.6 313.4 381.2 315 382.6C316.5 384 316 384.8 315.1 386.3C314.3 387.6 313.4 389.2 314.2 391.3H292.3C293.7 389.8 294.8 387.8 295.3 386.4C298 384.9 300.5 383.3 302.8 381.5ZM331.4 386.4C332.7 384.2 334.1 381.9 332.4 377.8C330.4 373.2 325.7 372.2 321.2 371.2C319.1 370.8 317 370.3 315.2 369.5C318 366 320.3 362.3 322.2 358.4C325.2 362.1 329.5 363.8 333.6 365.5C337.2 367 340.9 368.5 343.6 371.2C347.8 375.4 347.1 378.6 346.2 382.4C345.6 385 344.9 387.9 345.9 391.4H329.7C329.6 389.3 330.5 387.9 331.4 386.4ZM346.8 391.2C345.9 387.9 346.5 385.2 347.1 382.6C348 378.8 348.8 375.1 344.2 370.5C341.3 367.6 337.5 366.1 333.9 364.6C329.5 362.8 325.4 361.1 322.6 357.4C324.4 353.4 325.7 349.3 326.5 345.1C326.5 345.2 326.6 345.2 326.6 345.3C330.9 349.5 336.5 352 341.9 354.4C347.6 357 352.9 359.4 356.8 363.5C363.2 370.3 360.8 374.8 358.1 380.1C356.4 383.5 354.6 387 355 391.3H346.8V391.2ZM359 380.6C361.6 375.5 364.4 370.2 357.5 362.8C353.5 358.5 347.8 355.9 342.3 353.4C337 351 331.5 348.5 327.3 344.5C327.1 344.3 326.8 344.3 326.6 344.5C327.6 338.8 327.6 333 326.5 327.2C326.1 325.2 325.6 323.2 325.1 321.3H330C329.9 321.4 329.9 321.5 329.9 321.6C328 337.9 344.4 343.4 357.6 347.8C361.8 349.2 365.7 350.5 368.8 352.1C374.1 354.7 377.2 357.6 378.3 360.9C379.8 365.6 377.1 370.9 374.2 376.5C371.8 381.2 369.3 386 368.6 391.4H356.1C355.6 387.3 357.3 383.9 359 380.6ZM375.1 377C378.1 371.2 380.9 365.7 379.3 360.6C378.1 357 374.9 354 369.3 351.2C366.2 349.6 362.2 348.3 358 346.9C344.5 342.4 329.2 337.2 331 321.8C331 321.7 331 321.5 330.9 321.4H340.5V321.6C345.3 334.6 349.5 336.7 362 341.4C366.9 343.2 370.6 346.2 374.6 349.3C377.1 351.3 379.7 353.3 382.6 355C384.7 356.3 386.8 357.2 388.6 357.9C391.5 359.1 393.5 360 393.9 361.6C394.2 363 393.1 365 390.5 368.1C389.1 369.7 387.8 371 386.5 372.4C381.6 377.5 378 381.3 378 391.4H369.7C370.3 386.3 372.7 381.5 375.1 377ZM423.7 321.4C420.8 326.5 417.6 329.4 413.9 330.2C407.8 331.7 401.2 327.3 394.8 323.1C393.9 322.5 393 321.9 392.1 321.4H423.7ZM390.3 321.4C391.6 322.2 393 323.1 394.3 324C400 327.7 405.8 331.6 411.5 331.6C412.4 331.6 413.3 331.5 414.2 331.3C418.2 330.3 421.6 327.2 424.7 321.7C424.7 321.6 424.8 321.5 424.8 321.5H434.4C433.5 323.1 432.6 324.7 431.6 326.4C424.9 338.5 417.3 352.3 402.1 344.7C398.5 342.9 395.4 340.1 392.4 337.4C389.5 334.8 386.6 332.1 383.1 330.3C380.5 328.9 377.6 328 374.7 327C370.6 325.7 366.4 324.3 363.1 321.5H390.3V321.4ZM361.6 321.4C365.1 324.9 369.8 326.4 374.4 327.9C377.2 328.8 380.1 329.7 382.6 331.1C386 332.9 388.9 335.5 391.7 338.1C394.7 340.9 397.9 343.7 401.7 345.6C404.9 347.2 407.7 347.9 410.3 347.9C420.9 347.9 427.2 336.5 432.5 326.9C433.5 325 434.5 323.2 435.5 321.6V321.5H448.3C442.6 324.5 439.3 331.3 436.2 337.6C434.7 340.7 433.2 343.6 431.6 345.9C424.6 355.7 414.3 358.3 402.1 353.4C396.5 351.2 392.4 347.2 388.4 343.3C384.8 339.9 381.1 336.3 376.4 334C373.7 332.7 370.5 332 367.2 331.2C360.4 329.7 353.4 328.1 351 321.5H361.6V321.4ZM339.7 312.5H407.9V319.3H339.7V312.5ZM307.5 294.7L307.9 295.1C315.3 303.5 320.4 312.3 323.2 321.5C323.8 323.5 324.3 325.6 324.7 327.7C328.8 349.4 316.8 371.8 294.2 384.9C294 385 293.8 385.2 293.8 385.4C292.8 388.3 290.5 391.3 288.7 391.3H275V387.6H286.4C289.2 387.6 291.4 383.7 292.2 381.5C299.4 377.3 305.4 372.2 310.1 366.1C310.3 365.9 310.2 365.6 310 365.4C309.8 365.2 309.5 365.3 309.3 365.5C304.6 371.5 298.6 376.6 291.5 380.7C291.4 380.8 291.3 380.9 291.3 381C290.3 383.7 288.3 386.6 286.3 386.6H286.1C286.1 386.5 286.2 386.4 286.2 386.2V372.4C286.2 371.8 285.8 371.4 285.2 371.4C284.6 371.4 284.2 371.8 284.2 372.4V386.2C284.2 386.3 284.2 386.4 284.3 386.6H275V383.3C275 382.7 274.6 382.3 274 382.3H269.2V268.3H278.7L295.7 288.5C295.9 288.7 296.2 288.7 296.4 288.6C296.6 288.4 296.6 288.1 296.5 287.9L279.3 267.5C279.2 267.4 279.1 267.3 278.9 267.3H269.2V263.7H282L304 290.5C305.1 292 306.4 293.3 307.5 294.7ZM262.5 382.4C261.9 382.4 261.5 382.8 261.5 383.4V386.7H250.1C248.2 386.7 246.1 383.8 245.1 381.1C245.1 381 245 380.9 244.9 380.8C224.6 369 213.8 348.8 217.4 329.2C217.7 327.4 218.2 325.5 218.7 323.6C221.7 313.6 227.5 303.3 234.2 296.2L257.7 268.3H267.2V382.3H262.5V382.4ZM263.5 384.4H273V386.7H263.5V384.4ZM273 387.7V391.4H263.5V387.7H273ZM268.3 144.6C270.6 144.6 272.5 146.2 272.9 148.3H263.6C264.1 146.2 266 144.6 268.3 144.6ZM129.7 164.9H130.1C131.2 164.9 132.3 165.2 133.3 165.6L131.2 169.5C130.8 169.4 130.4 169.3 129.9 169.3C127.2 169.2 124.8 171.4 124.7 174.1C124.6 176.8 126.8 179.2 129.5 179.3H129.7C131 179.3 132.2 178.8 133.1 178C134.1 177.1 134.7 175.9 134.7 174.5C134.8 173.2 134.3 171.9 133.4 170.9L133 170.5L135.1 166.6C137.6 168.4 139.2 171.3 139.1 174.6C139 177.1 137.9 179.4 136.1 181.1C135.2 181.9 134.2 182.5 133.2 182.9C133.1 182.9 133.1 182.9 133 183C131.9 183.4 130.6 183.6 129.4 183.6C124.2 183.4 120.2 179 120.4 173.9C120.6 168.9 124.7 164.9 129.7 164.9ZM129.2 175.2C129.4 175.3 129.5 175.3 129.7 175.3C130.1 175.3 130.4 175.1 130.6 174.8L132.5 171.4L132.7 171.6C133.4 172.4 133.8 173.4 133.8 174.5C133.8 175.6 133.3 176.6 132.5 177.3C131.7 178 130.7 178.4 129.6 178.4C127.4 178.3 125.7 176.4 125.7 174.2C125.8 172 127.6 170.3 129.7 170.3H129.9C130.2 170.3 130.5 170.4 130.7 170.4L128.8 173.8C128.6 174.3 128.8 174.9 129.2 175.2ZM133.8 215.1C128.8 230.2 121.2 253.3 119.4 258.6L64.2 229.8C65 228.7 66.6 226.7 68.5 224.1L118.2 250C118.3 250 118.4 250.1 118.4 250.1C118.6 250.1 118.8 250 118.8 249.8C118.9 249.6 118.8 249.3 118.6 249.1L69.1 223.3C75.2 215.3 84.8 202.5 91.9 193.4C93.8 190.9 95.6 189 97.3 187.6L135.7 206.7C135.5 209 134.9 211.8 133.8 215.1ZM135.8 204.5L99 186.2C101.2 184.6 103.1 183.8 104.5 183.5C107.4 182.8 109 183.8 109.1 183.8L132.1 195.7C132.2 195.7 135.9 197.4 135.8 204.5ZM117.2 185.7L120.2 180.4C122 183.2 125.1 185.2 128.7 185.5L126 190.2L117.2 185.7ZM145.8 192.7L135.4 184.2C136.1 183.8 136.8 183.3 137.5 182.7C139.4 180.9 140.6 178.6 141 176.1L151.7 184.8L151.2 185.5C151.1 185.5 151.1 185.6 151 185.6C150.9 185.7 150.9 185.8 150.9 185.9L145.8 192.7ZM152 187.6L211.7 235.4L208.3 239.3L148.9 191.7L152 187.6ZM183.2 244.5V221.8L207 240.9L206.1 242C205.9 242.2 205.8 242.5 205.9 242.7C205.9 243 206 243.2 206.3 243.4L207.6 244.5H183.2ZM208.3 242.5L214.7 235L221.5 240.7C218.3 242 215.8 244.6 214.8 247.9L208.3 242.5ZM147.1 373.3H137.2V365.8C138.8 366.7 140.7 367.2 142.6 367.2C143.3 367.2 144.1 367.1 144.8 367C145.6 366.8 146.3 366.6 147.1 366.3V373.3ZM144.4 365C139.6 366 134.9 362.9 133.9 358.2C132.9 353.4 136 348.7 140.7 347.7C141.3 347.6 141.9 347.5 142.5 347.5C146.6 347.5 150.3 350.4 151.2 354.5C152.3 359.3 149.2 364 144.4 365ZM152.3 351.5C150.7 348.4 147.8 346.2 144.4 345.6L153.2 334.2L161.2 340L152.3 351.5ZM160.4 337L156.4 334.1L208 270.5L211.9 273.4L160.4 337ZM215.4 273.3L214.1 272.4L207.5 267.5L216 257.1C217.7 260 220.7 262.1 224.2 262.6L215.4 273.3ZM226.2 250.5C225.8 250.2 225.1 250.3 224.8 250.7C224.5 251.1 224.6 251.8 225 252.1L228.1 254.4C227.4 255 226.5 255.3 225.5 255.3C224.4 255.3 223.4 254.8 222.7 254C222 253.2 221.6 252.2 221.6 251.1C221.6 250 222.1 249 222.9 248.3C223.7 247.6 224.6 247.2 225.6 247.2H225.7C227.9 247.3 229.7 249.1 229.6 251.3C229.6 251.8 229.5 252.3 229.3 252.7L226.2 250.5ZM225.8 246.3C224.5 246.3 223.2 246.7 222.2 247.7C221.2 248.6 220.7 249.9 220.6 251.2C220.6 252.5 221 253.8 222 254.8C222.9 255.8 224.2 256.3 225.5 256.4H225.7C227 256.4 228.1 255.9 229 255.1L232.5 257.8C230.7 259.7 228.2 260.8 225.4 260.7C220.2 260.5 216.2 256.2 216.4 251C216.6 245.8 220.9 241.8 226.1 242C228.6 242.1 230.9 243.1 232.6 245C234.3 246.8 235.2 249.2 235.1 251.7C235 253.4 234.6 254.9 233.8 256.2L230.3 253.5C230.6 252.9 230.8 252.2 230.8 251.5C230.8 248.7 228.6 246.4 225.8 246.3ZM226 240C225.2 240 224.4 240 223.7 240.2C223.6 240.1 223.6 239.9 223.4 239.8L215.2 232.9C214.8 232.5 214.2 232.6 213.8 233L213 234L203.3 226.2V163.3C203.3 163 203.1 162.8 202.8 162.8C202.5 162.8 202.3 163 202.3 163.3V225.4L183 209.9C183.1 209.7 183.2 209.5 183.2 209.3V150.3H192.2V197.4C192.2 197.7 192.4 197.9 192.7 197.9C193 197.9 193.2 197.7 193.2 197.4V150.3H212.3V197.1C212.3 197.4 212.5 197.6 212.8 197.6C213.1 197.6 213.3 197.4 213.3 197.1V150.3H353.3V244.5H235.3C235.1 244.5 235 244.6 234.8 244.6C232.8 241.9 229.6 240.1 226 240ZM263.5 246.5H273.1V255.4H263.6V246.7C263.5 246.6 263.5 246.6 263.5 246.5ZM249.9 261.2V258C249.9 257.7 250.2 257.4 250.5 257.4H286C286.3 257.4 286.6 257.7 286.6 258V261.2C286.6 261.5 286.3 261.8 286 261.8H250.4C250.2 261.8 249.9 261.5 249.9 261.2ZM242.9 385.4C242.8 385.2 242.6 385 242.4 384.9C219.8 371.8 207.9 349.4 211.9 327.7C212.3 325.7 212.8 323.6 213.4 321.5C216.1 312.3 221.2 303.4 228.6 295.1L229 294.6C230.2 293.3 231.3 292 232.5 290.6L254.5 263.8H267.2V267.4H257.5C257.4 267.4 257.2 267.5 257.1 267.6L233.5 295.6C226.7 302.8 220.8 313.2 217.8 323.4C217.2 325.3 216.8 327.2 216.4 329.1C212.7 349 223.6 369.6 244.2 381.6C245 383.8 247.2 387.7 250 387.7H261.4V391.4H248C246.1 391.4 243.9 388.3 242.9 385.4ZM458.5 391.4H445.4V391.3C445.5 390.6 448.4 387.4 453.4 383.4C457.6 380.1 460.4 378.4 461.7 378.1V388.1C461.8 389.9 460.3 391.4 458.5 391.4Z" fill="black"/>
<path d="M311.9 345.2C310.5 343.8 309.2 342.4 308 340.5C307.9 340.3 307.5 340.2 307.3 340.3C307.1 340.4 307 340.8 307.1 341C308.4 343 309.7 344.4 311.1 345.9C311.9 346.8 312.8 347.7 313.7 348.7C313.8 348.8 313.9 348.9 314.1 348.9C314.2 348.9 314.3 348.9 314.4 348.8C314.6 348.6 314.6 348.3 314.5 348.1C313.6 347 312.7 346.1 311.9 345.2ZM301.8 355.3C300 351.1 298.1 346.7 294.8 343.9C294.6 343.7 294.3 343.7 294.1 343.9C293.9 344.1 293.9 344.4 294.1 344.6C297.2 347.3 299 351.4 300.8 355.6C302.4 359.2 304 362.9 306.5 365.8C306.6 365.9 306.7 366 306.9 366C307 366 307.1 366 307.2 365.9C307.4 365.7 307.4 365.4 307.2 365.2C304.9 362.4 303.3 358.8 301.8 355.3Z" fill="black"/>
<path d="M298.6 371.7C296.9 366 294.3 357.4 286.3 359.2V339.5C288.4 340.2 290.4 341.3 292 342.7C292.1 342.8 292.2 342.8 292.3 342.8C292.4 342.8 292.6 342.7 292.7 342.6C292.9 342.4 292.9 342.1 292.6 341.9C290.8 340.4 288.8 339.2 286.5 338.5H286.1V324.5C286.1 322.7 287.6 321.3 289.3 321.3C289.9 321.3 290.3 320.9 290.3 320.3C290.3 319.7 289.9 319.3 289.3 319.3C286.4 319.3 284.1 321.7 284.1 324.5V363.9C284.1 364.5 284.5 364.9 285.1 364.9C285.7 364.9 286.1 364.5 286.1 363.9V360.1C293.4 358.3 295.8 366.1 297.5 371.8L297.9 373C298 373.2 298.2 373.4 298.4 373.4H298.5C298.8 373.3 298.9 373 298.8 372.8L298.6 371.7Z" fill="black"/>
</svg>
