<svg width="526" height="526" viewBox="0 0 526 526" fill="none" xmlns="http://www.w3.org/2000/svg">
<path d="M370.4 183.2C349.4 183.2 332.4 200.2 332.4 221.2C332.4 242.2 349.4 259.2 370.4 259.2C391.4 259.2 408.4 242.2 408.4 221.2C408.4 200.2 391.3 183.2 370.4 183.2ZM370.4 258.2C350 258.2 333.4 241.6 333.4 221.2C333.4 200.8 350 184.2 370.4 184.2C390.8 184.2 407.4 200.8 407.4 221.2C407.4 241.6 390.8 258.2 370.4 258.2Z" fill="black"/>
<path d="M370.4 191.4C371 191.4 371.4 191 371.4 190.4V186.3C371.4 185.7 371 185.3 370.4 185.3C369.8 185.3 369.4 185.7 369.4 186.3V190.4C369.4 191 369.8 191.4 370.4 191.4ZM370.4 250.9C369.8 250.9 369.4 251.3 369.4 251.9V256C369.4 256.6 369.8 257 370.4 257C371 257 371.4 256.6 371.4 256V251.9C371.4 251.4 370.9 250.9 370.4 250.9ZM400.1 221.2C400.1 221.8 400.5 222.2 401.1 222.2H405.2C405.8 222.2 406.2 221.8 406.2 221.2C406.2 220.6 405.8 220.2 405.2 220.2H401.1C400.6 220.2 400.1 220.6 400.1 221.2ZM340.6 221.2C340.6 220.6 340.2 220.2 339.6 220.2H335.5C334.9 220.2 334.5 220.6 334.5 221.2C334.5 221.8 334.9 222.2 335.5 222.2H339.6C340.2 222.2 340.6 221.7 340.6 221.2ZM396.5 206.1C396.6 206.3 396.8 206.3 396.9 206.3C397 206.3 397.1 206.3 397.1 206.2L400.7 204.1C400.9 204 401 203.7 400.9 203.4C400.8 203.2 400.5 203.1 400.2 203.2L396.6 205.3C396.5 205.5 396.4 205.8 396.5 206.1ZM343.6 236.1L340 238.2C339.8 238.3 339.7 238.6 339.8 238.9C339.9 239.1 340.1 239.1 340.2 239.1C340.3 239.1 340.4 239.1 340.4 239L344 236.9C344.2 236.8 344.3 236.5 344.2 236.2C344.1 236 343.8 235.9 343.6 236.1ZM386.1 247.4C386 247.2 385.7 247.1 385.4 247.2C385.2 247.3 385.1 247.6 385.2 247.9L387.3 251.6C387.4 251.8 387.6 251.8 387.7 251.8C387.8 251.8 387.9 251.8 387.9 251.7C388.1 251.6 388.2 251.3 388.1 251L386.1 247.4ZM354.7 195C354.8 195.2 355 195.2 355.1 195.2C355.2 195.2 355.3 195.2 355.3 195.1C355.5 195 355.6 194.7 355.5 194.4L353.4 190.7C353.3 190.5 353 190.4 352.7 190.5C352.5 190.6 352.4 190.9 352.5 191.2L354.7 195ZM385.4 195.2C385.5 195.2 385.6 195.3 385.6 195.3C385.8 195.3 385.9 195.2 386 195.1L388.2 191.4C388.3 191.2 388.3 190.9 388 190.7C387.8 190.6 387.5 190.6 387.3 190.9L385.1 194.6C385 194.8 385.1 195.1 385.4 195.2ZM355.4 247.1C355.2 247 354.9 247 354.7 247.3L352.5 251C352.4 251.2 352.4 251.5 352.7 251.7C352.8 251.7 352.9 251.8 352.9 251.8C353.1 251.8 353.2 251.7 353.3 251.6L355.5 247.9C355.7 247.6 355.6 247.3 355.4 247.1ZM400.8 238.1L397.2 236C397 235.9 396.7 235.9 396.5 236.2C396.4 236.4 396.4 236.7 396.7 236.9L400.3 239C400.4 239 400.5 239.1 400.5 239.1C400.7 239.1 400.8 239 400.9 238.9C401.1 238.6 401 238.3 400.8 238.1ZM344.1 205.4L340.5 203.3C340.3 203.2 340 203.2 339.8 203.5C339.7 203.7 339.7 204 340 204.2L343.6 206.3C343.7 206.3 343.8 206.4 343.8 206.4C344 206.4 344.1 206.3 344.2 206.2C344.4 205.9 344.3 205.6 344.1 205.4ZM391.9 218L389.2 217.5C387.8 217.3 386.3 217.2 384.9 217.4L371.9 219V203.5C371.9 200.9 371.6 198.3 370.9 195.7C370.8 195.5 370.6 195.3 370.4 195.3C370.2 195.3 370 195.5 369.9 195.7C369.2 198.2 368.9 200.8 368.9 203.4V219.8C368.6 220.2 368.4 220.7 368.4 221.3C368.4 221.7 368.6 222 368.8 222.3C368.7 222.3 368.7 222.4 368.6 222.4L349.1 246.2C348.9 246.4 349 246.7 349.2 246.9C349.3 247 349.4 247 349.5 247C349.6 247 349.8 246.9 349.9 246.8L369.4 223C369.5 222.9 369.5 222.8 369.5 222.7C369.7 222.8 370 222.9 370.3 222.9H370.5L385.2 221.1C386.6 220.9 388 220.5 389.4 220L391.9 218.9C392.1 218.8 392.2 218.6 392.2 218.4C392.3 218.2 392.1 218 391.9 218ZM369.9 203.5C369.9 201.7 370.1 200 370.4 198.2C370.7 199.9 370.9 201.7 370.9 203.5V219L370 219.2V203.5H369.9ZM389.1 219.1C387.9 219.6 386.5 220 385.2 220.2L370.5 222C370 222.1 369.6 221.7 369.5 221.2C369.4 220.7 369.8 220.3 370.3 220.2L385 218.4C385.6 218.3 386.2 218.3 386.7 218.3C387.5 218.3 388.2 218.4 389 218.5L390.1 218.7L389.1 219.1Z" fill="black"/>
<path d="M458 302V157C458 153 454.8 149.8 450.8 149.8H400C399.4 149.8 399 150.2 399 150.8C399 151.4 399.4 151.8 400 151.8H450.8C453.7 151.8 456 154.1 456 157V302H452.5V159.7C452.5 157.4 450.6 155.5 448.3 155.5H398.9V139.9C398.9 139.3 398.5 138.9 397.9 138.9H343C342.4 138.9 342 139.3 342 139.9V149.8H307.4C307.3 149.8 307.2 149.8 307.1 149.9C303.7 146.1 298.8 143.7 293.3 143.7H269.3V142.6C269.3 140.2 267.3 138.2 264.9 138.2H227.6C225.2 138.2 223.2 140.2 223.2 142.6V143.9C223 143.8 222.9 143.7 222.7 143.7H133C132.7 140.6 130.1 138.2 126.9 138.2H111.9C108.7 138.2 106.1 140.6 105.8 143.7H80.4001C70.1001 143.7 61.8 152.1 61.8 162.3V252C61.8 262.3 70.2001 270.6 80.4001 270.6H105.8V298.8C105.8 302.2 108.5 304.9 111.9 304.9H126.9C130.3 304.9 133 302.2 133 298.8V270.1C133.2 270.4 133.5 270.5 133.8 270.5H170.3V360H125.6C119.2 360 113.1 363 109.2 368L97.8001 382.7C97.1001 383.5 97 384.7 97.5 385.6C98 386.5 98.9001 387.2 100 387.2H267.9C269 387.2 269.9 386.6 270.4 385.6C270.9 384.6 270.8 383.5 270.1 382.7L258.7 368C254.8 363 248.7 360 242.3 360H197.8V270.5H219.6C221.7 281.6 222.6 297 222.7 310.4C222.7 312.8 224.7 314.8 227.1 314.8H264.4C266.8 314.8 268.8 312.8 268.8 310.4C269 296.5 270 281.2 272.1 270.4C272.2 270.5 272.4 270.5 272.6 270.5H282.5V302C279.3 302.3 276.7 305 276.7 308.3V381C276.7 384.5 279.5 387.4 283.1 387.4H457.5C461 387.4 463.9 384.6 463.9 381V308.4C463.8 305 461.2 302.3 458 302ZM448.3 157.5C449.5 157.5 450.5 158.5 450.5 159.7V302H442.2V191.1C442.2 190.8 442 190.6 441.7 190.6C441.4 190.6 441.2 190.8 441.2 191.1V302H398.9V269.3C398.9 268.7 398.5 268.3 397.9 268.3H389.3C389.2 268.3 389.1 268.3 389 268.4L389.4 267H394.3C397.6 267 400.5 264.8 401.3 261.6L405.1 247V246.6C408.8 241.5 411.5 235.5 412.6 229H415.7C418.1 229 420.1 226.8 420.1 224.1V218.3C420.1 215.6 418.1 213.4 415.7 213.4H412.6C411.4 206.9 408.8 201 405 195.8V195.4L401.2 180.8C400.4 177.6 397.5 175.4 394.2 175.4H389.3L388.9 173.9C389 173.9 389.1 174 389.2 174H397.8C398.4 174 398.8 173.6 398.8 173V167.3H434.6C438.2 167.3 441.1 170.2 441.1 173.8V182.5C441.1 182.8 441.3 183 441.6 183C441.9 183 442.1 182.8 442.1 182.5V173.8C442.1 169.6 438.7 166.3 434.6 166.3H398.8V157.5H448.3ZM298.7 271.7C298.4 271.7 298.2 271.9 298.2 272.2V302H289.9V270.6H293.1C303.4 270.6 311.7 262.2 311.7 252V167.3H341.8V173C341.8 173.6 342.2 174 342.8 174H351.4C351.5 174 351.6 174 351.7 173.9L351.3 175.4H346.4C343.1 175.4 340.2 177.6 339.4 180.8L335.6 195.4V195.8C330.4 202.9 327.3 211.6 327.3 221.1C327.3 230.6 330.4 239.3 335.6 246.4V246.8L339.4 261.4C340.2 264.6 343.1 266.8 346.4 266.8H351.3L351.7 268.2C351.6 268.2 351.5 268.1 351.4 268.1H342.8C342.2 268.1 341.8 268.5 341.8 269.1V302H299.2V272.2C299.2 271.9 299 271.7 298.7 271.7ZM413.3 223.8C413.3 223.1 413.4 222.4 413.4 221.7H418.2V223.8H413.3ZM418.1 220.7H413.3C413.3 220 413.3 219.3 413.2 218.6H418V220.7H418.1ZM413.2 224.8H418C417.7 226 416.8 226.9 415.7 226.9H413C413.1 226.2 413.1 225.5 413.2 224.8ZM413.2 217.5L412.9 215.4H415.7C416.8 215.4 417.7 216.3 418 217.5H413.2ZM411.4 221.2C411.4 243.8 393 262.2 370.4 262.2C347.8 262.2 329.4 243.8 329.4 221.2C329.4 198.6 347.8 180.2 370.4 180.2C393 180.2 411.4 198.6 411.4 221.2ZM388.2 272.3V284.8H352.5V272.3H388.2ZM390.2 297.2H396.8V301.4H390.2V297.2ZM396.9 295.2H390.3V281.5H396.9V295.2ZM343.9 297.2H350.5V301.4H343.9V297.2ZM343.9 295.2V281.5H350.5V295.3H343.9V295.2ZM350.5 271.3V279.4H343.9V270.2H350.5V271.3ZM352.5 286.8H388.2V290.5H352.5V286.8ZM396.9 279.5H390.3V270.3H396.9V279.5ZM387.7 265.6L386.6 269.2C386.4 269.9 385.8 270.3 385.1 270.3H355.8C355.1 270.3 354.5 269.8 354.3 269.2L353.2 265.6C353.1 265.2 352.7 264.9 352.2 264.9H346.6C344.2 264.9 342.1 263.3 341.5 261L338.7 250.1C346.6 258.7 357.9 264.2 370.5 264.2C383.1 264.2 394.4 258.8 402.3 250.1L399.4 261C398.8 263.3 396.7 264.9 394.3 264.9H388.7C388.2 264.9 387.8 265.2 387.7 265.6ZM370.4 178.2C357.8 178.2 346.5 183.6 338.6 192.3L341.5 181.4C342.1 179.1 344.2 177.5 346.6 177.5H352.2C352.6 177.5 353 177.2 353.2 176.8L354.3 173.2C354.5 172.5 355.1 172.1 355.8 172.1H385C385.7 172.1 386.3 172.6 386.5 173.2L387.6 176.8C387.7 177.2 388.1 177.5 388.6 177.5H394.2C396.6 177.5 398.7 179.1 399.3 181.4L402.1 192.3C394.3 183.6 383 178.2 370.4 178.2ZM343.9 162.9H350.5V172H343.9V162.9ZM352.5 170V157.5H388.2V170H352.5ZM388.2 155.5H352.5V151.8H388.2V155.5ZM390.2 162.9H396.8V172.1H390.2V162.9ZM396.9 160.9H390.3V147.1H396.9V160.9ZM388.2 149.8H352.5V140.9H388.2V149.8ZM350.5 160.9H343.9V147.2H350.5V160.9ZM341.9 166.3H311.8V162.3C311.8 160.6 311.6 159 311.1 157.5H341.8V166.3H341.9ZM352.5 292.5H388.2V302H352.5V292.5ZM396.9 145.2H390.3V141H396.9V145.2ZM350.5 140.9V145.1H343.9V140.9H350.5ZM341.8 151.8C341.9 151.8 341.9 151.8 341.8 151.8V155.5H310.4C309.9 154.2 309.2 153 308.4 151.8H341.8ZM224.9 142.6C224.9 141.3 226 140.2 227.3 140.2H264.6C265.9 140.2 267 141.3 267 142.6C267.1 152 267.7 179.9 272.9 192.5C271.1 191.6 269 191.1 266.9 191.1H224.8C222.6 191.1 220.6 191.6 218.8 192.5C220.7 187.9 222.2 180.7 223.3 171C224.6 159.3 224.9 147.2 224.9 142.6ZM280.6 214.4H283.8V216.4H280.6V214.4ZM283.8 213.4H280.6V211.4H283.8V213.4ZM280.6 217.3H283.8V217.8C283.8 219.4 282.5 220.7 280.9 220.7H280.6V217.3ZM283.8 210.4H280.6V207H280.9C282.5 207 283.8 208.3 283.8 209.9V210.4ZM278.6 206.1V247.9C278.6 250.7 277.6 253.2 276 255.2C275.7 255.5 275.4 255.8 275.1 256.2C273 258.3 270.1 259.6 266.9 259.6H224.8C221.6 259.6 218.7 258.3 216.6 256.2C216.3 255.8 216 255.5 215.7 255.2C214.1 253.2 213.1 250.7 213.1 247.9V204.8C213.1 202 214.1 199.5 215.7 197.5C216 197.2 216.3 196.9 216.6 196.5C218.7 194.4 221.6 193.1 224.8 193.1H266.9C270.1 193.1 273 194.4 275.1 196.5C275.4 196.9 275.7 197.2 276 197.5C277.6 199.5 278.6 202 278.6 204.8V206.1ZM132 256.8H128C132 255.9 135.8 254.3 139.2 252.2C139 254.8 136.9 256.8 134.3 256.8H132ZM105.8 256.8C103.2 256.8 101 254.7 100.9 252.2C104.3 254.3 108.1 255.9 112.1 256.8H105.8ZM120.1 255.6C101.3 255.6 86 240.3 86 221.5C86 202.7 101.3 187.4 120.1 187.4C138.9 187.4 154.2 202.7 154.2 221.5C154.1 240.4 138.8 255.6 120.1 255.6ZM105.8 186.4H112.2C108.1 187.3 104.3 188.9 100.9 191.1C101.1 188.5 103.2 186.4 105.8 186.4ZM127.9 186.4H134.2C136.8 186.4 139 188.5 139.1 191.1C135.8 188.9 132 187.3 127.9 186.4ZM107.8 144.3C107.8 142 109.6 140.2 111.9 140.2H126.9C129.2 140.2 131 142 131 144.3V184.4H107.8V144.3ZM80.4001 268.6C71.2001 268.6 63.8 261.1 63.8 252V162.3C63.8 153.1 71.3001 145.7 80.4001 145.7H105.8V184.4C102 184.4 98.9001 187.5 98.9001 191.4V191.8C98.9001 192 99 192.2 99.1 192.3C90 198.9 84.1 209.5 84.1 221.6C84.1 233.7 90.1001 244.5 99.4001 251C99.2001 251.2 99 251.5 99 251.8C99 255.6 102.1 258.8 105.9 258.8V264.4H80.6C73.6 264.4 67.9001 258.7 67.9001 251.7V234.3C67.9001 234 67.7001 233.8 67.4001 233.8C67.1001 233.8 66.9001 234 66.9001 234.3V251.7C66.9001 259.3 73.1 265.4 80.6 265.4H105.8V268.7H80.4001V268.6ZM131 298.9C131 301.2 129.2 303 126.9 303H111.9C109.6 303 107.8 301.2 107.8 298.9V258.8H131V298.9ZM172.4 270.6H179.3C181.6 284.2 179.8 297.3 178.1 310.1C176 326 173.8 342.4 179.3 360.1H172.4V270.6ZM183.3 318.8C183.4 320.9 183.5 323.6 183.5 326.8C183.6 338 183.8 353 188.8 360.1H180.3V359.9C174.8 342.4 177 326 179.1 310.2C180.8 297.5 182.6 284.3 180.3 270.6H191.3C191.4 278.4 189.4 286 187.3 293.2C185.1 301.4 182.8 309.7 183.3 318.8ZM209.7 362.1C205.6 368.5 198.2 368.8 191 369.1C188.2 369.2 185.6 369.3 183.2 369.7C176.3 371 173.5 373.4 170.7 376.1C168.8 377.8 166.9 379.6 163.6 381.1C159.9 382.8 157.2 383.3 155.3 382.6C153.1 381.7 152.1 379.1 151 376.4C150.3 374.5 149.5 372.6 148.3 370.9C147.7 370 146 369.1 144 368C140.9 366.3 137 364.2 137.4 362.1H151.5C152.8 366 155.5 372.1 159.8 373.5C160.4 373.7 161.1 373.8 161.7 373.8C163.2 373.8 164.8 373.2 166.5 372C170.8 368.9 174.4 367.3 177.6 365.8C180.2 364.6 182.4 363.6 184.2 362.1H209.7ZM171.4 362.1H182.6C181.1 363.1 179.3 364 177.2 364.9C174.1 366.3 170.2 368.1 165.9 371.2C163.8 372.7 161.9 373.1 160.1 372.5C156.3 371.2 153.8 365.8 152.6 362.1H171.4ZM136.4 362.1C136.1 364.8 140.2 367 143.6 368.9C145.4 369.9 147.1 370.8 147.6 371.5C148.7 373.1 149.5 374.9 150.2 376.7C151.4 379.7 152.4 382.4 155.1 383.5C155.8 383.8 156.6 383.9 157.4 383.9C159.2 383.9 161.4 383.3 164.2 382C167.6 380.4 169.6 378.6 171.5 376.8C174.3 374.3 176.9 371.9 183.5 370.7C185.8 370.3 188.4 370.2 191.1 370.1C198.4 369.8 206.7 369.5 210.9 362.1H230.7C227.6 363.4 224 365.7 220.5 368.1C216.5 370.8 212.8 373.3 210 374C208 374.5 204.8 374.5 201.2 374.6C193.3 374.7 183.5 374.9 179.1 379.6C177.7 381.1 176.9 383.1 176.9 385.4H143.5C143.3 377.8 141.1 374.6 135.8 370C134.7 369 132.1 368.5 129.1 367.8C126.5 367.2 123.9 366.6 121.9 365.7C120 364.8 119.4 363.9 119.3 363.2C121.3 362.5 123.4 362.1 125.6 362.1H136.4ZM110.8 369.4C112.8 366.8 115.4 364.8 118.4 363.6C118.7 364.8 119.7 365.8 121.6 366.7C123.7 367.6 126.4 368.2 129 368.8C131.7 369.4 134.3 370 135.2 370.8C140.5 375.4 142.4 378.3 142.6 385.4H129.2C127.8 380.8 123.9 379.6 120.1 378.5C115.7 377.2 111.5 375.9 110.7 369.7L110.8 369.4ZM99.3001 384.9C99.2001 384.8 99.1001 384.4 99.4001 384.1L109.8 370.7C111 376.7 115.6 378.2 119.8 379.4C123.4 380.5 126.8 381.5 128.1 385.3H100C99.6 385.3 99.4001 385 99.3001 384.9ZM268.6 384.9C268.5 385 268.3 385.3 267.9 385.3H249.6C250.3 377.6 254.1 377.7 260.7 378.1C261.7 378.2 262.8 378.2 264 378.2L268.5 384C268.8 384.4 268.7 384.8 268.6 384.9ZM263.2 377.2C262.4 377.2 261.5 377.1 260.8 377.1C254 376.8 249.4 376.6 248.6 385.3H220.3C222 384.3 224.1 383.8 226.2 383.2C228.6 382.6 230.9 382 232.6 380.7C233.8 379.8 234.9 378.5 235.8 377.3C236.6 376.3 237.3 375.4 238 374.9C238.6 374.5 239.1 374.1 239.6 373.8C245.3 369.7 247.9 367.9 257.2 369.4H257.4L263.2 377.2ZM256.4 368.5C247.4 367.1 244.5 369.2 238.9 373.2C238.4 373.6 237.9 373.9 237.3 374.3C236.5 374.9 235.7 375.8 234.9 376.9C234 378.1 233 379.3 231.9 380.1C230.3 381.3 228.1 381.8 225.8 382.4C223.4 383 220.9 383.6 218.9 385C218.8 385.1 218.7 385.2 218.7 385.4H177.8C177.8 383.3 178.5 381.6 179.7 380.3C183.7 375.9 193.3 375.8 201 375.6C204.7 375.5 208 375.5 210.1 375C213.1 374.3 216.9 371.7 221 369C226.4 365.4 231.9 361.7 235.5 362.3C235.6 362.3 235.8 362.3 235.9 362.2H242.1C247.6 362.1 252.8 364.5 256.4 368.5ZM195.8 350.5C185.8 334.8 190.9 316.7 194.6 303.4C195 301.9 195.4 300.4 195.8 299V350.5ZM195.8 294.7C195.3 297.2 194.5 300 193.6 303.1C189.8 316.9 184.5 335.7 195.6 352.1C195.6 352.2 195.7 352.2 195.7 352.2V360.1H190C184.7 353.6 184.6 338.2 184.5 326.8C184.5 323.7 184.4 320.9 184.3 318.8C183.8 309.9 186 301.6 188.3 293.6C190.3 286.3 192.4 278.7 192.3 270.7H195.8V294.7ZM133.8 268.6C133.5 268.6 133.2 268.8 133 269V265.1C133.1 265.2 133.2 265.3 133.4 265.3H212.1C212.4 265.3 212.6 265.1 212.6 264.8C212.6 264.5 212.4 264.3 212.1 264.3H133.4C133.2 264.3 133.1 264.4 133 264.5V258.7H134.2C138 258.7 141.2 255.6 141.2 251.7C141.2 251.4 141 251.1 140.8 250.9C148.7 245.3 154.2 236.7 155.7 226.7C158.3 226.4 160.4 224.2 160.4 221.5C160.4 218.8 158.3 216.6 155.7 216.3C154.3 206.4 148.8 197.8 141 192.2C141.1 192 141.2 191.9 141.2 191.7V191.3C141.2 187.5 138.1 184.3 134.2 184.3H133V145.6H222.3C222.5 145.6 222.7 145.5 222.8 145.4C222.4 165.9 220.1 188.2 215.1 194.9C212.6 197.4 211 200.8 211 204.6V247.7C211 251.5 212.5 254.9 215 257.4C216.6 259.6 218 263.5 219 268.5H133.8V268.6ZM155.9 217.4C157.9 217.7 159.5 219.5 159.5 221.6C159.5 223.7 157.9 225.5 155.9 225.8C156.1 224.4 156.2 223 156.2 221.6C156.2 220.2 156 218.8 155.9 217.4ZM266.8 310.5C266.8 311.8 265.7 312.9 264.4 312.9H227.1C225.8 312.9 224.7 311.8 224.7 310.5C224.6 301 224 272.8 218.8 260.1C220.6 261 222.7 261.5 224.8 261.5H266.9C269.1 261.5 271.1 261 272.9 260.1C267.8 272.8 266.9 301 266.8 310.5ZM272.5 268.7C272.8 267.5 273 266.3 273.3 265.2C273.4 265.3 273.5 265.4 273.7 265.4H292.4C300 265.4 306.1 259.2 306.1 251.7V173.1C306.1 172.8 305.9 172.6 305.6 172.6C305.3 172.6 305.1 172.8 305.1 173.1V251.7C305.1 258.7 299.4 264.4 292.4 264.4H273.5C274.4 261.4 275.4 259.1 276.5 257.5C279 255 280.6 251.6 280.6 247.8V222.7H280.9C283.6 222.7 285.8 220.5 285.8 217.8V209.9C285.8 207.2 283.6 205 280.9 205H280.6V204.7C280.6 200.9 279 197.5 276.6 195C271.6 188.3 269.5 165.3 269.2 145.7H293.2C302.4 145.7 309.8 153.2 309.8 162.3V252C309.8 261.2 302.3 268.6 293.2 268.6L272.5 268.7C272.5 268.7 272.5 268.6 272.5 268.7ZM287.9 270.6V302H284.4V270.6H287.9ZM461.8 381C461.8 383.4 459.8 385.4 457.4 385.4H283C280.6 385.4 278.6 383.4 278.6 381V308.4C278.6 306 280.6 304 283 304H457.4C459.8 304 461.8 306 461.8 308.4V381Z" fill="black"/>
<path d="M457.4 310L450.9 315.7C449.6 314.2 447.7 313.2 445.6 313.2H294.8C291 313.2 287.9 316.3 287.9 320.1V371.2C287.9 371.7 288 372.2 288.1 372.6L282.7 377.3C282.5 377.5 282.5 377.8 282.7 378C282.8 378.1 282.9 378.2 283.1 378.2C283.2 378.2 283.3 378.2 283.4 378.1L288.4 373.7C289.4 376.3 291.9 378.1 294.8 378.1H445.6C449.4 378.1 452.5 375 452.5 371.2V320.1C452.5 318.8 452.1 317.6 451.5 316.6L458.1 310.8C458.3 310.6 458.3 310.3 458.1 310.1C457.9 309.9 457.6 309.9 457.4 310ZM450.5 320.1V371.2C450.5 373.9 448.3 376.1 445.6 376.1H296.6L328.3 348.2C328.5 348 328.5 347.7 328.3 347.5C328.1 347.3 327.8 347.3 327.6 347.5L295 376.2H294.7C292.4 376.2 290.4 374.6 289.9 372.4L302.7 361.1C302.9 360.9 302.9 360.6 302.7 360.4C302.5 360.2 302.2 360.2 302 360.4L289.9 371V320.1C289.9 317.4 292.1 315.2 294.8 315.2H440.4L425.7 328.1C425.5 328.3 425.5 328.6 425.7 328.8C425.8 328.9 425.9 329 426.1 329C426.2 329 426.3 329 426.4 328.9L441.7 315.4C441.8 315.3 441.8 315.3 441.8 315.2H445.6C447.1 315.2 448.5 315.9 449.4 317L421.4 341.6C421.2 341.8 421.2 342.1 421.4 342.3C421.5 342.4 421.6 342.5 421.8 342.5C421.9 342.5 422 342.5 422.1 342.4L450 317.9C450.3 318.6 450.5 319.3 450.5 320.1ZM120.1 191.3C103.4 191.3 89.8 204.9 89.8 221.6C89.8 238.3 103.4 251.9 120.1 251.9C136.8 251.9 150.4 238.3 150.4 221.6C150.4 204.9 136.8 191.3 120.1 191.3ZM120.1 250.9C103.9 250.9 90.8 237.8 90.8 221.6C90.8 205.4 103.9 192.3 120.1 192.3C136.3 192.3 149.4 205.4 149.4 221.6C149.4 237.8 136.2 250.9 120.1 250.9Z" fill="black"/>
<path d="M120.1 197.6C120.4 197.6 120.6 197.4 120.6 197.1V193.9C120.6 193.6 120.4 193.4 120.1 193.4C119.8 193.4 119.6 193.6 119.6 193.9V197.1C119.6 197.4 119.8 197.6 120.1 197.6ZM120.1 245.5C119.8 245.5 119.6 245.7 119.6 246V249.2C119.6 249.5 119.8 249.7 120.1 249.7C120.4 249.7 120.6 249.5 120.6 249.2V246C120.6 245.7 120.3 245.5 120.1 245.5ZM147.7 221.1H144.5C144.2 221.1 144 221.3 144 221.6C144 221.9 144.2 222.1 144.5 222.1H147.7C148 222.1 148.2 221.9 148.2 221.6C148.2 221.3 148 221.1 147.7 221.1ZM96.1 221.6C96.1 221.3 95.9 221.1 95.6 221.1H92.4C92.1 221.1 91.9 221.3 91.9 221.6C91.9 221.9 92.1 222.1 92.4 222.1H95.6C95.9 222.1 96.1 221.9 96.1 221.6ZM141.2 209.9C141.3 209.9 141.4 209.9 141.4 209.8L144.2 208.2C144.4 208.1 144.5 207.8 144.4 207.5C144.3 207.3 144 207.2 143.7 207.3L140.9 208.9C140.7 209 140.6 209.3 140.7 209.6C140.8 209.8 141 209.9 141.2 209.9ZM98.7 233.3L95.9 234.9C95.7 235 95.6 235.3 95.7 235.6C95.8 235.8 96 235.8 96.1 235.8C96.2 235.8 96.3 235.8 96.3 235.7L99.1 234.1C99.3 234 99.4 233.7 99.3 233.4C99.2 233.3 98.9 233.2 98.7 233.3ZM132.6 242.4C132.5 242.2 132.2 242.1 131.9 242.2C131.7 242.3 131.6 242.6 131.7 242.9L133.4 245.8C133.5 246 133.7 246 133.8 246C133.9 246 134 246 134 245.9C134.2 245.8 134.3 245.5 134.2 245.2L132.6 242.4ZM107.5 200.8C107.6 201 107.8 201 107.9 201C108 201 108.1 201 108.1 200.9C108.3 200.8 108.4 200.5 108.3 200.2L106.6 197.3C106.5 197.1 106.2 197 105.9 197.1C105.7 197.2 105.6 197.5 105.7 197.8L107.5 200.8ZM131.9 201C132 201 132.1 201.1 132.1 201.1C132.3 201.1 132.4 201 132.5 200.9L134.2 197.9C134.3 197.7 134.3 197.4 134 197.2C133.8 197.1 133.5 197.1 133.3 197.4L131.6 200.4C131.6 200.6 131.7 200.9 131.9 201ZM108.2 242.1C108 242 107.7 242 107.5 242.3L105.8 245.3C105.7 245.5 105.7 245.8 106 246C106.1 246 106.2 246.1 106.2 246.1C106.4 246.1 106.5 246 106.6 245.9L108.3 242.9C108.5 242.6 108.4 242.3 108.2 242.1ZM144.3 235L141.4 233.3C141.2 233.2 140.9 233.2 140.7 233.5C140.6 233.7 140.6 234 140.9 234.2L143.8 235.9C143.9 235.9 144 236 144 236C144.2 236 144.3 235.9 144.4 235.8C144.6 235.4 144.5 235.1 144.3 235ZM99.2 209L96.3 207.3C96.1 207.2 95.8 207.2 95.6 207.5C95.5 207.7 95.5 208 95.8 208.2L98.7 209.9C98.8 209.9 98.9 210 98.9 210C99.1 210 99.2 209.9 99.3 209.8C99.6 209.4 99.5 209.1 99.2 209ZM137.2 218.9L135 218.5C133.9 218.3 132.7 218.3 131.5 218.4L121.3 219.7V205.9C121.3 203.8 121 201.7 120.5 199.7C120.4 199.3 119.6 199.3 119.5 199.7C119 201.7 118.7 203.8 118.7 205.9V220.5C118.4 220.8 118.3 221.3 118.4 221.7C118.4 222 118.5 222.2 118.7 222.4L118.6 222.5L103.1 241.4C102.9 241.6 103 241.9 103.2 242.1C103.3 242.2 103.4 242.2 103.5 242.2C103.6 242.2 103.8 242.1 103.9 242L119.4 223.1C119.4 223.1 119.4 223 119.5 223C119.7 223.1 119.9 223.1 120.1 223.1H120.3L132 221.6C133.2 221.5 134.3 221.1 135.3 220.7L137.3 219.8C137.5 219.7 137.6 219.5 137.6 219.3C137.6 219.2 137.4 219 137.2 218.9ZM119.8 205.9C119.8 204.7 119.9 203.5 120.1 202.3C120.3 203.5 120.4 204.7 120.4 205.9V219.8L119.9 219.9V205.9H119.8ZM134.9 219.9C133.9 220.3 132.9 220.6 131.8 220.7L120.1 222.2C119.8 222.2 119.5 222 119.4 221.7C119.4 221.5 119.4 221.4 119.5 221.2C119.6 221.1 119.7 221 119.9 221L131.6 219.5C132.1 219.4 132.5 219.4 133 219.4C133.6 219.4 134.2 219.5 134.8 219.6L135.3 219.7L134.9 219.9Z" fill="black"/>
<path d="M103.9 214.8H115.2C115.5 214.8 115.7 214.6 115.7 214.3C115.7 214 115.5 213.8 115.2 213.8H103.9C103.6 213.8 103.4 214 103.4 214.3C103.4 214.6 103.6 214.8 103.9 214.8ZM106.2 217.1C105.9 217.1 105.7 217.3 105.7 217.6C105.7 217.9 105.9 218.1 106.2 218.1H113C113.3 218.1 113.5 217.9 113.5 217.6C113.5 217.3 113.3 217.1 113 217.1H106.2ZM111.9 266C112.2 266 112.4 265.8 112.4 265.5V263.4C112.4 263.1 112.2 262.9 111.9 262.9C111.6 262.9 111.4 263.1 111.4 263.4V265.5C111.4 265.8 111.6 266 111.9 266ZM111.9 290.8C112.2 290.8 112.4 290.6 112.4 290.3V286.6C112.4 286.3 112.2 286.1 111.9 286.1C111.6 286.1 111.4 286.3 111.4 286.6V290.3C111.4 290.6 111.6 290.8 111.9 290.8ZM111.9 298.6C112.2 298.6 112.4 298.4 112.4 298.1V296C112.4 295.7 112.2 295.5 111.9 295.5C111.6 295.5 111.4 295.7 111.4 296V298.2C111.4 298.4 111.6 298.6 111.9 298.6ZM116 274.6C116.3 274.6 116.5 274.4 116.5 274.1V269.2C116.5 268.9 116.3 268.7 116 268.7C115.7 268.7 115.5 268.9 115.5 269.2V274.1C115.5 274.4 115.7 274.6 116 274.6ZM116 280.9C116.3 280.9 116.5 280.7 116.5 280.4V278.2C116.5 277.9 116.3 277.7 116 277.7C115.7 277.7 115.5 277.9 115.5 278.2V280.4C115.5 280.7 115.7 280.9 116 280.9ZM121.1 292.2C121.4 292.2 121.6 292 121.6 291.7V286.8C121.6 286.5 121.4 286.3 121.1 286.3C120.8 286.3 120.6 286.5 120.6 286.8V291.7C120.6 292 120.8 292.2 121.1 292.2ZM121.1 283.5C121.4 283.5 121.6 283.3 121.6 283V281.6C121.6 281.3 121.4 281.1 121.1 281.1C120.8 281.1 120.6 281.3 120.6 281.6V283C120.6 283.3 120.8 283.5 121.1 283.5ZM127.1 300.2C127.4 300.2 127.6 300 127.6 299.7V295.9C127.6 295.6 127.4 295.4 127.1 295.4C126.8 295.4 126.6 295.6 126.6 295.9V299.7C126.6 300 126.8 300.2 127.1 300.2ZM127.1 293.6C127.4 293.6 127.6 293.4 127.6 293.1V291.7C127.6 291.4 127.4 291.2 127.1 291.2C126.8 291.2 126.6 291.4 126.6 291.7V293.1C126.6 293.4 126.8 293.6 127.1 293.6ZM127.1 279.6C127.4 279.6 127.6 279.4 127.6 279.1V277.7C127.6 277.4 127.4 277.2 127.1 277.2C126.8 277.2 126.6 277.4 126.6 277.7V279.1C126.6 279.4 126.8 279.6 127.1 279.6ZM127.1 273C127.4 273 127.6 272.8 127.6 272.5V268.2C127.6 267.9 127.4 267.7 127.1 267.7C126.8 267.7 126.6 267.9 126.6 268.2V272.5C126.6 272.8 126.8 273 127.1 273ZM127.1 264C127.4 264 127.6 263.8 127.6 263.5V260.9C127.6 260.6 127.4 260.4 127.1 260.4C126.8 260.4 126.6 260.6 126.6 260.9V263.5C126.6 263.8 126.8 264 127.1 264ZM127.1 149.6C127.4 149.6 127.6 149.4 127.6 149.1V145.9C127.6 145.6 127.4 145.4 127.1 145.4C126.8 145.4 126.6 145.6 126.6 145.9V149.1C126.6 149.4 126.8 149.6 127.1 149.6ZM127.1 169.9C127.4 169.9 127.6 169.7 127.6 169.4V165C127.6 164.7 127.4 164.5 127.1 164.5C126.8 164.5 126.6 164.7 126.6 165V169.4C126.6 169.7 126.8 169.9 127.1 169.9ZM127.1 180C127.4 180 127.6 179.8 127.6 179.5V177.3C127.6 177 127.4 176.8 127.1 176.8C126.8 176.8 126.6 177 126.6 177.3V179.5C126.6 179.8 126.8 180 127.1 180ZM122.9 173.1C123.2 173.1 123.4 172.9 123.4 172.6V168.8C123.4 168.5 123.2 168.3 122.9 168.3C122.6 168.3 122.4 168.5 122.4 168.8V172.6C122.4 172.9 122.7 173.1 122.9 173.1ZM122.9 178.5C123.2 178.5 123.4 178.3 123.4 178V175.8C123.4 175.5 123.2 175.3 122.9 175.3C122.6 175.3 122.4 175.5 122.4 175.8V178C122.4 178.3 122.7 178.5 122.9 178.5ZM117.8 151.8C118.1 151.8 118.3 151.6 118.3 151.3V148.4C118.3 148.1 118.1 147.9 117.8 147.9C117.5 147.9 117.3 148.1 117.3 148.4V151.3C117.3 151.5 117.6 151.8 117.8 151.8ZM117.8 146.1C118.1 146.1 118.3 145.9 118.3 145.6V143C118.3 142.7 118.1 142.5 117.8 142.5C117.5 142.5 117.3 142.7 117.3 143V145.6C117.3 145.9 117.6 146.1 117.8 146.1ZM117.8 164.9C118.1 164.9 118.3 164.7 118.3 164.4V160.6C118.3 160.3 118.1 160.1 117.8 160.1C117.5 160.1 117.3 160.3 117.3 160.6V164.4C117.3 164.7 117.6 164.9 117.8 164.9ZM111.9 171.9C112.2 171.9 112.4 171.7 112.4 171.4V170C112.4 169.7 112.2 169.5 111.9 169.5C111.6 169.5 111.4 169.7 111.4 170V171.4C111.4 171.7 111.6 171.9 111.9 171.9ZM111.9 165.5C112.2 165.5 112.4 165.3 112.4 165V160.2C112.4 159.9 112.2 159.7 111.9 159.7C111.6 159.7 111.4 159.9 111.4 160.2V165C111.4 165.3 111.6 165.5 111.9 165.5ZM111.9 153.2C112.2 153.2 112.4 153 112.4 152.7V150.2C112.4 149.9 112.2 149.7 111.9 149.7C111.6 149.7 111.4 149.9 111.4 150.2V152.7C111.4 153 111.6 153.2 111.9 153.2ZM251.6 255.1H225.6C223.6 255.1 221.7 254.3 220.2 253.1L235.2 237.8C235.4 237.6 235.4 237.3 235.2 237.1C235 236.9 234.7 236.9 234.5 237.1L219.5 252.4C218.2 250.9 217.4 249 217.4 246.9V205.7C217.4 201.2 221.1 197.5 225.6 197.5H228.9C229.2 197.5 229.4 197.3 229.4 197C229.4 196.7 229.2 196.5 228.9 196.5H225.6C220.5 196.5 216.4 200.6 216.4 205.7V246.9C216.4 252 220.5 256.1 225.6 256.1H251.6C251.9 256.1 252.1 255.9 252.1 255.6C252.1 255.3 251.9 255.1 251.6 255.1ZM236.1 197.5H242.5C242.8 197.5 243 197.3 243 197C243 196.7 242.8 196.5 242.5 196.5H236.1C235.8 196.5 235.6 196.7 235.6 197C235.6 197.3 235.8 197.5 236.1 197.5ZM266.1 196.5H249.4C249.1 196.5 248.9 196.7 248.9 197C248.9 197.3 249.1 197.5 249.4 197.5H266.1C268.1 197.5 270 198.3 271.5 199.5L256.7 214.6C256.5 214.8 256.5 215.1 256.7 215.3C256.8 215.4 256.9 215.4 257.1 215.4C257.2 215.4 257.4 215.3 257.5 215.3L272.3 200.2C273.6 201.7 274.4 203.6 274.4 205.7V246.9C274.4 251.4 270.7 255.1 266.2 255.1H259.6C259.3 255.1 259.1 255.3 259.1 255.6C259.1 255.9 259.3 256.1 259.6 256.1H266.2C271.3 256.1 275.4 252 275.4 246.9V205.7C275.3 200.6 271.2 196.5 266.1 196.5ZM238.9 307.7H231.6C230.2 307.7 229 306.5 229 305.1C229 302.3 228.9 288 228.2 281C228.2 280.7 227.9 280.5 227.7 280.5C227.4 280.5 227.2 280.8 227.2 281C227.8 287.9 227.9 302.2 228 305C228 307 229.6 308.6 231.6 308.6H238.9C239.2 308.6 239.4 308.4 239.4 308.1C239.4 307.8 239.2 307.7 238.9 307.7ZM260.7 265.2H228.2C227.4 265.2 226.6 265.6 226.1 266.2C225.6 266.8 225.4 267.7 225.5 268.5C225.9 270.3 226.2 272.2 226.5 274.3C226.5 274.5 226.7 274.7 227 274.7H227.1C227.4 274.7 227.6 274.4 227.5 274.1C227.2 272 226.9 270 226.5 268.3C226.4 267.8 226.5 267.2 226.9 266.8C227.2 266.4 227.7 266.2 228.2 266.2H260.7C261 266.2 261.2 266 261.2 265.7C261.2 265.4 260.9 265.2 260.7 265.2ZM252.7 145.2H260C261.4 145.2 262.6 146.4 262.6 147.8C262.6 151.5 263.3 164.9 263.9 171.6C263.9 171.9 264.1 172.1 264.4 172.1C264.7 172.1 264.9 171.8 264.9 171.6C264.3 164.9 263.6 151.6 263.6 147.9C263.6 145.9 262 144.3 260 144.3H252.7C252.4 144.3 252.2 144.5 252.2 144.8C252.2 145.1 252.4 145.2 252.7 145.2ZM231.5 187.4H263.7C264.6 187.4 265.4 187 266 186.3C266.6 185.6 266.8 184.7 266.6 183.8C266.3 182.1 265.9 180.3 265.7 178.3C265.7 178 265.4 177.8 265.1 177.9C264.8 177.9 264.6 178.2 264.7 178.5C265 180.5 265.3 182.3 265.6 184C265.7 184.6 265.6 185.2 265.2 185.7C264.8 186.2 264.3 186.4 263.7 186.4H231.5C231.2 186.4 231 186.6 231 186.9C231 187.2 231.2 187.4 231.5 187.4Z" fill="black"/>
<path d="M257.5 218.9C257.2 218.9 257 219.1 257 219.4V225C257 225.3 257.2 225.5 257.5 225.5C257.8 225.5 258 225.3 258 225V219.4C258 219.2 257.8 218.9 257.5 218.9ZM256.2 217.7H250.6C250.3 217.7 250.1 217.9 250.1 218.2C250.1 218.5 250.3 218.7 250.6 218.7H256.2C256.5 218.7 256.7 218.5 256.7 218.2C256.7 217.9 256.5 217.7 256.2 217.7ZM249.4 225.6C249.7 225.6 249.9 225.4 249.9 225.1V219.5C249.9 219.2 249.7 219 249.4 219C249.1 219 248.9 219.2 248.9 219.5V225.1C248.9 225.3 249.1 225.6 249.4 225.6ZM248.9 233.1C248.9 233.4 249.1 233.6 249.4 233.6C249.7 233.6 249.9 233.4 249.9 233.1V227.5C249.9 227.2 249.7 227 249.4 227C249.1 227 248.9 227.2 248.9 227.5V233.1ZM256.2 233.9H250.6C250.3 233.9 250.1 234.1 250.1 234.4C250.1 234.7 250.3 234.9 250.6 234.9H256.2C256.5 234.9 256.7 234.7 256.7 234.4C256.7 234.1 256.5 233.9 256.2 233.9ZM257.5 227C257.2 227 257 227.2 257 227.5V233.1C257 233.4 257.2 233.6 257.5 233.6C257.8 233.6 258 233.4 258 233.1V227.5C258 227.2 257.8 227 257.5 227ZM256.2 225.8H250.6C250.3 225.8 250.1 226 250.1 226.3C250.1 226.6 250.3 226.8 250.6 226.8H256.2C256.5 226.8 256.7 226.6 256.7 226.3C256.7 226 256.5 225.8 256.2 225.8ZM269.5 225.6C269.8 225.6 270 225.4 270 225.1V219.5C270 219.2 269.8 219 269.5 219C269.2 219 269 219.2 269 219.5V225.1C269 225.3 269.2 225.6 269.5 225.6ZM262.6 218.7H268.2C268.5 218.7 268.7 218.5 268.7 218.2C268.7 217.9 268.5 217.7 268.2 217.7H262.6C262.3 217.7 262.1 217.9 262.1 218.2C262.1 218.5 262.4 218.7 262.6 218.7ZM261.4 225.6C261.7 225.6 261.9 225.4 261.9 225.1V219.5C261.9 219.2 261.7 219 261.4 219C261.1 219 260.9 219.2 260.9 219.5V225.1C260.9 225.3 261.1 225.6 261.4 225.6ZM260.9 233.1C260.9 233.4 261.1 233.6 261.4 233.6C261.7 233.6 261.9 233.4 261.9 233.1V227.5C261.9 227.2 261.7 227 261.4 227C261.1 227 260.9 227.2 260.9 227.5V233.1ZM262.6 234.9H268.2C268.5 234.9 268.7 234.7 268.7 234.4C268.7 234.1 268.5 233.9 268.2 233.9H262.6C262.3 233.9 262.1 234.1 262.1 234.4C262.1 234.7 262.4 234.9 262.6 234.9ZM269 233.1C269 233.4 269.2 233.6 269.5 233.6C269.8 233.6 270 233.4 270 233.1V227.5C270 227.2 269.8 227 269.5 227C269.2 227 269 227.2 269 227.5V233.1ZM262.6 226.8H268.2C268.5 226.8 268.7 226.6 268.7 226.3C268.7 226 268.5 225.8 268.2 225.8H262.6C262.3 225.8 262.1 226 262.1 226.3C262.1 226.6 262.4 226.8 262.6 226.8ZM230.2 225.6C230.5 225.6 230.7 225.4 230.7 225.1V219.5C230.7 219.2 230.5 219 230.2 219C229.9 219 229.7 219.2 229.7 219.5V225.1C229.7 225.3 230 225.6 230.2 225.6ZM229 217.7H223.4C223.1 217.7 222.9 217.9 222.9 218.2C222.9 218.5 223.1 218.7 223.4 218.7H229C229.3 218.7 229.5 218.5 229.5 218.2C229.5 217.9 229.3 217.7 229 217.7ZM222.2 225.6C222.5 225.6 222.7 225.4 222.7 225.1V219.5C222.7 219.2 222.5 219 222.2 219C221.9 219 221.7 219.2 221.7 219.5V225.1C221.7 225.3 221.9 225.6 222.2 225.6ZM221.7 233.1C221.7 233.4 221.9 233.6 222.2 233.6C222.5 233.6 222.7 233.4 222.7 233.1V227.5C222.7 227.2 222.5 227 222.2 227C221.9 227 221.7 227.2 221.7 227.5V233.1ZM229.5 234.4C229.5 234.1 229.3 233.9 229 233.9H223.4C223.1 233.9 222.9 234.1 222.9 234.4C222.9 234.7 223.1 234.9 223.4 234.9H229C229.3 234.9 229.5 234.6 229.5 234.4ZM230.2 233.6C230.5 233.6 230.7 233.4 230.7 233.1V227.5C230.7 227.2 230.5 227 230.2 227C229.9 227 229.7 227.2 229.7 227.5V233.1C229.7 233.4 230 233.6 230.2 233.6ZM229 225.8H223.4C223.1 225.8 222.9 226 222.9 226.3C222.9 226.6 223.1 226.8 223.4 226.8H229C229.3 226.8 229.5 226.6 229.5 226.3C229.5 226 229.3 225.8 229 225.8ZM242.7 219.4C242.7 219.1 242.5 218.9 242.2 218.9C241.9 218.9 241.7 219.1 241.7 219.4V225C241.7 225.3 241.9 225.5 242.2 225.5C242.5 225.5 242.7 225.3 242.7 225V219.4ZM235.4 218.7H241C241.3 218.7 241.5 218.5 241.5 218.2C241.5 217.9 241.3 217.7 241 217.7H235.4C235.1 217.7 234.9 217.9 234.9 218.2C234.9 218.5 235.1 218.7 235.4 218.7ZM234.2 225.6C234.5 225.6 234.7 225.4 234.7 225.1V219.5C234.7 219.2 234.5 219 234.2 219C233.9 219 233.7 219.2 233.7 219.5V225.1C233.7 225.3 233.9 225.6 234.2 225.6ZM234.2 233.6C234.5 233.6 234.7 233.4 234.7 233.1V227.5C234.7 227.2 234.5 227 234.2 227C233.9 227 233.7 227.2 233.7 227.5V233.1C233.7 233.4 233.9 233.6 234.2 233.6ZM235.4 234.9H241C241.3 234.9 241.5 234.7 241.5 234.4C241.5 234.1 241.3 233.9 241 233.9H235.4C235.1 233.9 234.9 234.1 234.9 234.4C234.9 234.7 235.1 234.9 235.4 234.9ZM242.2 227C241.9 227 241.7 227.2 241.7 227.5V233.1C241.7 233.4 241.9 233.6 242.2 233.6C242.5 233.6 242.7 233.4 242.7 233.1V227.5C242.7 227.2 242.5 227 242.2 227ZM235.4 226.8H241C241.3 226.8 241.5 226.6 241.5 226.3C241.5 226 241.3 225.8 241 225.8H235.4C235.1 225.8 234.9 226 234.9 226.3C234.9 226.6 235.1 226.8 235.4 226.8ZM220.6 245.5C220.7 245.6 220.8 245.6 221 245.6C221.1 245.6 221.3 245.5 221.4 245.5L226.2 240.6C226.4 240.4 226.4 240.1 226.2 239.9C226 239.7 225.7 239.7 225.5 239.9L220.7 244.8C220.4 245 220.4 245.3 220.6 245.5ZM250.8 215.4L263.1 202.8C263.3 202.6 263.3 202.3 263.1 202.1C262.9 201.9 262.6 201.9 262.4 202.1L250.1 214.7C249.9 214.9 249.9 215.2 250.1 215.4C250.2 215.5 250.3 215.5 250.5 215.5C250.6 215.6 250.7 215.5 250.8 215.4ZM245.8 224.5C247.1 224.5 247.1 222.5 245.8 222.5C244.5 222.5 244.5 224.5 245.8 224.5ZM245.8 230.1C247.1 230.1 247.1 228.1 245.8 228.1C244.5 228.1 244.5 230.1 245.8 230.1Z" fill="black"/>
</svg>
