<svg width="20" height="20" viewBox="0 0 20 20" fill="none" xmlns="http://www.w3.org/2000/svg">
<path d="M10.9859 4H13.9859C14.5163 4 15.025 4.21071 15.4001 4.58579C15.7751 4.96086 15.9859 5.46957 15.9859 6V9C15.9821 9.26377 15.8743 9.51537 15.6859 9.7L9.68586 15.7C9.49893 15.8832 9.24761 15.9859 8.98586 15.9859C8.7241 15.9859 8.47279 15.8832 8.28586 15.7L4.28586 11.7C4.10263 11.5131 4 11.2618 4 11C4 10.7382 4.10263 10.4869 4.28586 10.3L10.2859 4.3C10.4705 4.11159 10.7221 4.00376 10.9859 4V4ZM12.9859 6C12.9859 6.26522 13.0912 6.51957 13.2788 6.70711C13.4663 6.89464 13.7206 7 13.9859 7C14.2511 7 14.5054 6.89464 14.693 6.70711C14.8805 6.51957 14.9859 6.26522 14.9859 6C14.9859 5.73478 14.8805 5.48043 14.693 5.29289C14.5054 5.10536 14.2511 5 13.9859 5C13.7206 5 13.4663 5.10536 13.2788 5.29289C13.0912 5.48043 12.9859 5.73478 12.9859 6Z" fill="#333030"/>
</svg>
