<svg width="20" height="20" viewBox="0 0 20 20" fill="none" xmlns="http://www.w3.org/2000/svg">
<path fill-rule="evenodd" clip-rule="evenodd" d="M4 5C4 4.73478 4.10536 4.48043 4.29289 4.29289C4.48043 4.10536 4.73478 4 5 4H15C15.2652 4 15.5196 4.10536 15.7071 4.29289C15.8946 4.48043 16 4.73478 16 5V15C16 15.2652 15.8946 15.5196 15.7071 15.7071C15.5196 15.8946 15.2652 16 15 16H5C4.73478 16 4.48043 15.8946 4.29289 15.7071C4.10536 15.5196 4 15.2652 4 15V5ZM5 5V15H15V5H5Z" fill="black"/>
<path fill-rule="evenodd" clip-rule="evenodd" d="M7.88003 12.08C8.15468 12.3747 8.48588 12.6111 8.85387 12.7751C9.22187 12.9391 9.61913 13.0272 10.0219 13.0344C10.4247 13.0415 10.8249 12.9674 11.1984 12.8165C11.572 12.6656 11.9113 12.441 12.1962 12.1561C12.4811 11.8713 12.7056 11.5319 12.8565 11.1584C13.0074 10.7848 13.0815 10.3847 13.0744 9.9819C13.0673 9.57909 12.9791 9.18183 12.8152 8.81384C12.6512 8.44584 12.4148 8.11464 12.12 7.83999C11.5513 7.31007 10.7991 7.02157 10.0219 7.03529C9.24473 7.049 8.50319 7.36385 7.95354 7.9135C7.40389 8.46315 7.08904 9.20469 7.07533 9.9819C7.06161 10.7591 7.35011 11.5113 7.88003 12.08ZM7.18003 12.78C7.54386 13.1815 7.98549 13.505 8.47811 13.7307C8.97073 13.9564 9.50407 14.0796 10.0458 14.093C10.5875 14.1063 11.1262 14.0094 11.6294 13.8083C12.1325 13.6071 12.5895 13.3058 12.9726 12.9226C13.3558 12.5395 13.6571 12.0824 13.8583 11.5793C14.0595 11.0762 14.1563 10.5374 14.143 9.99573C14.1297 9.45403 14.0064 8.92069 13.7807 8.42807C13.555 7.93545 13.2316 7.49382 12.83 7.12999C12.0795 6.37943 11.0615 5.95776 10 5.95776C8.93857 5.95776 7.92059 6.37943 7.17003 7.12999C6.41946 7.88055 5.9978 8.89853 5.9978 9.95999C5.9978 11.0214 6.41946 12.0394 7.17003 12.79L7.18003 12.78Z" fill="black"/>
</svg>
