<svg width="20" height="20" viewBox="0 0 20 20" fill="none" xmlns="http://www.w3.org/2000/svg">
<path d="M13.94 3.94001L9.99999 7.87801L6.05999 3.93801C5.77859 3.65688 5.39704 3.49905 4.99928 3.49924C4.60152 3.49942 4.22012 3.65762 3.93899 3.93901C3.65786 4.22041 3.50003 4.60195 3.50021 4.99972C3.5004 5.39748 3.65859 5.77888 3.93999 6.06001L7.87999 10L3.93999 13.94C3.80079 14.0792 3.69037 14.2445 3.61503 14.4263C3.5397 14.6082 3.50092 14.8032 3.50092 15C3.50092 15.1969 3.5397 15.3918 3.61503 15.5737C3.69037 15.7556 3.80079 15.9208 3.93999 16.06C4.07919 16.1992 4.24444 16.3096 4.42632 16.385C4.60819 16.4603 4.80313 16.4991 4.99999 16.4991C5.19685 16.4991 5.39178 16.4603 5.57366 16.385C5.75553 16.3096 5.92079 16.1992 6.05999 16.06L9.99999 12.12L13.94 16.06C14.0791 16.1995 14.2443 16.3101 14.4262 16.3856C14.608 16.4611 14.8031 16.4999 15 16.4999C15.1969 16.4999 15.3919 16.4611 15.5738 16.3856C15.7557 16.3101 15.9209 16.1995 16.06 16.06C16.1992 15.9208 16.3096 15.7556 16.385 15.5737C16.4603 15.3918 16.4991 15.1969 16.4991 15C16.4991 14.8031 16.4603 14.6082 16.385 14.4263C16.3096 14.2445 16.1992 14.0792 16.06 13.94L12.122 10L16.062 6.06001C16.3431 5.77875 16.501 5.39733 16.5009 4.99966C16.5008 4.60199 16.3428 4.22064 16.0615 3.93951C15.7802 3.65838 15.3988 3.5005 15.0011 3.50059C14.6035 3.50068 14.2221 3.65875 13.941 3.94001H13.94Z" fill="#DE3618" stroke="white"/>
</svg>
