<svg width="20" height="20" viewBox="0 0 20 20" fill="none" xmlns="http://www.w3.org/2000/svg">
<path fill-rule="evenodd" clip-rule="evenodd" d="M10 12C10.5304 12 11.0391 11.7893 11.4142 11.4142C11.7893 11.0391 12 10.5304 12 10C12 9.46957 11.7893 8.96086 11.4142 8.58579C11.0391 8.21071 10.5304 8 10 8C9.46957 8 8.96086 8.21071 8.58579 8.58579C8.21071 8.96086 8 9.46957 8 10C8 10.5304 8.21071 11.0391 8.58579 11.4142C8.96086 11.7893 9.46957 12 10 12ZM10 13C10.7956 13 11.5587 12.6839 12.1213 12.1213C12.6839 11.5587 13 10.7956 13 10C13 9.20435 12.6839 8.44129 12.1213 7.87868C11.5587 7.31607 10.7956 7 10 7C9.20435 7 8.44129 7.31607 7.87868 7.87868C7.31607 8.44129 7 9.20435 7 10C7 10.7956 7.31607 11.5587 7.87868 12.1213C8.44129 12.6839 9.20435 13 10 13Z" fill="black"/>
<path fill-rule="evenodd" clip-rule="evenodd" d="M17.79 10.62L17 10L17.79 9.38C17.9295 9.55655 18.0054 9.77499 18.0054 10C18.0054 10.225 17.9295 10.4435 17.79 10.62ZM3.00003 10L2.21003 10.62L2.23003 10.64C2.27876 10.701 2.32877 10.7611 2.38003 10.82C3.00061 11.536 3.68695 12.1922 4.43003 12.78C5.77003 13.84 7.73003 15 10 15C12.26 15 14.23 13.84 15.57 12.78C16.3738 12.1429 17.1109 11.4259 17.77 10.64L17.78 10.62L17 10L17.79 9.38L17.77 9.36C17.5866 9.12237 17.3861 8.89844 17.17 8.69C16.8 8.29 16.25 7.75 15.57 7.22C14.23 6.16 12.27 5 10 5C7.73003 5 5.77003 6.16 4.43003 7.22C3.62619 7.85707 2.88908 8.57408 2.23003 9.36L2.22003 9.38L3.00003 10ZM3.00003 10L2.21003 10.62C2.07052 10.4435 1.99463 10.225 1.99463 10C1.99463 9.77499 2.07052 9.55655 2.21003 9.38L3.00003 10ZM3.00003 10C3.00003 10 6.13003 6 10 6C13.87 6 17 10 17 10C17 10 13.87 14 10 14C6.13003 14 3.00003 10 3.00003 10Z" fill="black"/>
</svg>
