<svg xmlns="http://www.w3.org/2000/svg" fill="none" class="icon icon-home" viewBox="0 0 18 19"><path fill="currentColor" fill-rule="evenodd" d="M9 2.5a.75.75 0 0 1 .53.22l6.5 6.5a.75.75 0 1 1-1.06 1.06L9.75 4.81v11.44a.75.75 0 0 1-.75.75H4.5a.75.75 0 0 1-.75-.75V9.5a.75.75 0 0 0-1.5 0v6.75a2.25 2.25 0 0 0 2.25 2.25H9a2.25 2.25 0 0 0 2.25-2.25V4.81l4.78 4.47a.75.75 0 1 1-1.06 1.06l-6.5-6.5A.75.75 0 0 1 9 2.5M4.5 8.75a.75.75 0 0 0-.75.75v6.75h1.5V9.5a.75.75 0 0 0-.75-.75" clip-rule="evenodd"/></svg>

