<svg width="20" height="20" viewBox="0 0 20 20" fill="none" xmlns="http://www.w3.org/2000/svg">
<path d="M18.02 9V4C18.02 3.86739 17.9673 3.74021 17.8736 3.64645C17.7798 3.55268 17.6526 3.5 17.52 3.5H8.52C8.38739 3.5 8.26022 3.55268 8.16645 3.64645C8.07268 3.74021 8.02 3.86739 8.02 4C8.02 4.13261 8.07268 4.25979 8.16645 4.35355C8.26022 4.44732 8.38739 4.5 8.52 4.5H17.02V8H12.34C8.49 8 6.1 9.66 4.7 11.37C3.90482 12.3454 3.30705 13.4662 2.94 14.67L2.92 14.74V14.77L3.89 15C3.89 15 3.99 14.6 4.25 14C5 12.3 7.12 9 12.33 9H17.01V15H3.9L2.92 14.77C2.88516 14.9174 2.88426 15.0708 2.91736 15.2186C2.95046 15.3664 3.0167 15.5047 3.11108 15.6232C3.20546 15.7416 3.32551 15.8371 3.46218 15.9024C3.59884 15.9676 3.74855 16.001 3.9 16H17.02C17.2852 16 17.5396 15.8946 17.7271 15.7071C17.9146 15.5196 18.02 15.2652 18.02 15V9Z" fill="black"/>
<path d="M9.26 14.06C9.59 14.06 9.83 13.81 9.83 13.49C9.83 13.17 9.59 12.92 9.26 12.92C8.93 12.92 8.69 13.17 8.69 13.49C8.69 13.81 8.94 14.06 9.26 14.06ZM11.59 14.06C11.91 14.06 12.16 13.81 12.16 13.49C12.16 13.17 11.91 12.92 11.59 12.92C11.27 12.92 11.01 13.17 11.01 13.49C11.01 13.81 11.26 14.06 11.59 14.06ZM13.9 14.06C14.23 14.06 14.48 13.81 14.48 13.49C14.48 13.17 14.23 12.92 13.91 12.92C13.59 12.92 13.33 13.17 13.33 13.49C13.33 13.81 13.58 14.06 13.91 14.06H13.9Z" fill="black"/>
</svg>
