<svg width="20" height="20" viewBox="0 0 20 20" fill="none" xmlns="http://www.w3.org/2000/svg">
<path d="M16.63 2.98002C16.5293 2.87672 16.4075 2.79642 16.2729 2.74463C16.1382 2.69285 15.994 2.67081 15.85 2.68002H15.82L15.75 2.69002L15.5 2.72002C14.2026 2.8331 12.9112 3.00662 11.63 3.24002C10.53 3.44002 9.32002 3.72002 8.25002 4.07002C7.23904 4.35605 6.30352 4.86136 5.51002 5.55002C4.44211 6.61761 3.81282 8.0465 3.74618 9.55506C3.67955 11.0636 4.1804 12.5424 5.15002 13.7L3.53002 15.3C3.44874 15.3962 3.40677 15.5196 3.41251 15.6454C3.41824 15.7713 3.47125 15.8903 3.56095 15.9787C3.65065 16.0672 3.77042 16.1185 3.89631 16.1224C4.02221 16.1264 4.14496 16.0827 4.24002 16L5.85002 14.4C7.00468 15.3905 8.49056 15.9088 10.0108 15.8513C11.5309 15.7938 12.9734 15.1648 14.05 14.09C14.7387 13.2965 15.244 12.361 15.53 11.35C15.89 10.28 16.16 9.08002 16.36 7.96002C16.5901 6.68125 16.7669 5.39347 16.89 4.10002L16.91 3.84002L16.92 3.77002V3.75002C16.9305 3.60681 16.9101 3.46302 16.86 3.32842C16.81 3.19383 16.7315 3.07159 16.63 2.97002V2.98002ZM14.91 3.78002L15.08 3.76002L10.19 8.66002V4.56002C11.95 4.15002 13.8 3.90002 14.91 3.78002ZM10.45 9.81002H14.95C14.74 10.61 14.5 11.37 14.21 12.01H8.24002L10.45 9.81002ZM9.70002 4.68002V9.14002L7.50002 11.35V5.43002C8.14002 5.13002 8.90002 4.89002 9.70002 4.68002ZM6.22002 6.26002C6.42002 6.06002 6.69002 5.86002 7.00002 5.69002V11.84L5.86002 13C5.0787 12.0317 4.6832 10.8085 4.74966 9.566C4.81613 8.3235 5.33985 7.14951 6.22002 6.27002V6.26002ZM6.56002 13.7L7.75002 12.52H13.97C13.77 12.87 13.57 13.17 13.35 13.39C12.4605 14.2823 11.2689 14.8091 10.0103 14.8664C8.7516 14.9238 7.51709 14.5077 6.55002 13.7H6.56002ZM15.06 9.30002H10.96L15.86 4.40002L15.83 4.70002C15.6639 6.2465 15.4102 7.7823 15.07 9.30002H15.06Z" fill="black"/>
</svg>
