<svg width="20" height="20" viewBox="0 0 20 20" fill="none" xmlns="http://www.w3.org/2000/svg">
<path d="M9.48001 12.57V14.4C9.48001 14.5326 9.53269 14.6598 9.62645 14.7536C9.72022 14.8473 9.8474 14.9 9.98001 14.9C10.1126 14.9 10.2398 14.8473 10.3336 14.7536C10.4273 14.6598 10.48 14.5326 10.48 14.4V12.59C10.7022 12.4821 10.8816 12.3026 10.9894 12.0803C11.0972 11.8581 11.127 11.606 11.074 11.3647C11.0211 11.1234 10.8885 10.907 10.6976 10.7503C10.5067 10.5935 10.2686 10.5056 10.0216 10.5007C9.77463 10.4957 9.53319 10.5741 9.33616 10.723C9.13913 10.872 8.99798 11.083 8.93544 11.3219C8.8729 11.5609 8.89261 11.814 8.99139 12.0404C9.09018 12.2668 9.26229 12.4533 9.48001 12.57Z" fill="black"/>
<path d="M15.15 7.66H13.07V5.79C13.0705 4.95503 12.7886 4.14444 12.27 3.49C11.76 2.88 10.98 2.5 10 2.5C9.02002 2.5 8.24002 2.87 7.71002 3.5C7.19506 4.15575 6.91668 4.96622 6.92002 5.8V7.66H4.83002C4.69741 7.66 4.57023 7.71268 4.47646 7.80645C4.3827 7.90021 4.33002 8.02739 4.33002 8.16V17C4.33002 17.28 4.56002 17.5 4.83002 17.5H15.15C15.2826 17.5 15.4098 17.4473 15.5036 17.3536C15.5973 17.2598 15.65 17.1326 15.65 17V8.16C15.65 8.02739 15.5973 7.90021 15.5036 7.80645C15.4098 7.71268 15.2826 7.66 15.15 7.66ZM7.90002 5.92V5.84V5.82C7.93002 5.12 8.12002 4.54 8.46002 4.14C8.78002 3.75 9.27002 3.5 9.98002 3.5C10.69 3.5 11.18 3.76 11.5 4.14C11.84 4.54 12.04 5.12 12.06 5.82V7.66H7.91002V5.92H7.90002ZM14.64 16.5H5.33002V8.66H14.65V16.5H14.64Z" fill="black"/>
</svg>
