<svg width="20" height="20" viewBox="0 0 20 20" fill="none" xmlns="http://www.w3.org/2000/svg">
<path fill-rule="evenodd" clip-rule="evenodd" d="M10.5 17.59L11.28 16.63V16.62H11.29V16.61L11.33 16.56C12.1291 15.5505 12.8832 14.5061 13.59 13.43C14.16 12.55 14.75 11.57 15.2 10.62C15.64 9.69 16 8.69 16 7.79C16 4.65 13.6 2 10.5 2C7.4 2 5 4.65 5 7.79C5.06535 8.77898 5.33791 9.74317 5.8 10.62C6.27364 11.5914 6.81149 12.5301 7.41 13.43C7.99 14.32 8.57 15.11 9 15.69C9.21731 15.9846 9.44069 16.2747 9.67 16.56L9.71 16.61L9.72 16.63L10.5 17.59ZM10.5 16L11.13 15.19C12.37 13.54 15 9.81 15 7.79C15 5.14 12.99 3 10.5 3C8.01 3 6 5.14 6 7.79C6 9.8 8.63 13.54 9.87 15.19C10.25 15.7 10.5 16 10.5 16ZM11.074 8.88582C10.892 8.9612 10.697 9 10.5 9C10.1022 9 9.72064 8.84196 9.43934 8.56066C9.15804 8.27936 9 7.89782 9 7.5C9 7.10218 9.15804 6.72064 9.43934 6.43934C9.72064 6.15804 10.1022 6 10.5 6C10.697 6 10.892 6.0388 11.074 6.11418C11.256 6.18956 11.4214 6.30005 11.5607 6.43934C11.6999 6.57863 11.8104 6.74399 11.8858 6.92597C11.9612 7.10796 12 7.30302 12 7.5C12 7.69698 11.9612 7.89204 11.8858 8.07403C11.8104 8.25601 11.6999 8.42137 11.5607 8.56066C11.4214 8.69995 11.256 8.81044 11.074 8.88582ZM12.2678 9.26777C11.7989 9.73661 11.163 10 10.5 10C9.83696 10 9.20107 9.73661 8.73223 9.26777C8.26339 8.79893 8 8.16304 8 7.5C8 6.83696 8.26339 6.20107 8.73223 5.73223C9.20107 5.26339 9.83696 5 10.5 5C11.163 5 11.7989 5.26339 12.2678 5.73223C12.7366 6.20107 13 6.83696 13 7.5C13 8.16304 12.7366 8.79893 12.2678 9.26777Z" fill="black"/>
</svg>
