<svg width="20" height="20" viewBox="0 0 20 20" fill="none" xmlns="http://www.w3.org/2000/svg">
<path d="M14.4735 4.84V4C14.4735 3.73478 14.3682 3.48043 14.1806 3.29289C13.9931 3.10536 13.7388 3 13.4735 3H6.67354C6.40832 3 6.15397 3.10536 5.96643 3.29289C5.77889 3.48043 5.67354 3.73478 5.67354 4V5.19L4.01354 14.69C3.97013 14.9512 4.03207 15.2189 4.18579 15.4345C4.33951 15.6501 4.57246 15.7959 4.83354 15.84L7.79354 16.35C8.05326 16.3936 8.31971 16.333 8.53502 16.1814C8.75034 16.0297 8.89713 15.7992 8.94354 15.54L10.1135 8.9L11.2535 15.48C11.2999 15.7392 11.4467 15.9697 11.662 16.1214C11.8774 16.273 12.1438 16.3336 12.4035 16.29L15.3635 15.79C15.4938 15.7682 15.6185 15.7209 15.7303 15.6507C15.8422 15.5804 15.9391 15.4888 16.0153 15.3809C16.0916 15.2731 16.1457 15.1512 16.1745 15.0223C16.2034 14.8934 16.2065 14.7601 16.1835 14.63L14.4835 4.83L14.4735 4.84ZM6.67354 4H13.4735V4.91H6.67354V4ZM12.2235 15.32L10.7835 7H9.41354L7.97354 15.37L5.01354 14.85L6.65354 5.4H13.5535L15.1835 14.8L12.2235 15.32Z" fill="black"/>
</svg>
