<svg width="20" height="20" viewBox="0 0 20 20" fill="none" xmlns="http://www.w3.org/2000/svg">
<path d="M7.96941 17.2869C7.52346 17.4741 7.00743 17.3153 6.74385 16.9098L5.44832 14.9166L3.45513 13.6211C3.04961 13.3575 2.89085 12.8415 3.07808 12.3955C3.26531 11.9496 3.74487 11.7016 4.21701 11.8065L6.0995 12.2248C6.66156 11.4216 7.55158 10.3626 8.61533 9.21874L4.62035 6.62209C4.21483 6.3585 4.05607 5.84247 4.2433 5.39652C4.43053 4.95057 4.91009 4.70253 5.38224 4.80744L11.6393 6.19774C12.6317 5.27697 13.5463 4.50015 14.2764 3.95668C14.6826 3.65428 15.0656 3.39851 15.3908 3.23411C15.5469 3.15516 15.7462 3.06784 15.96 3.02595C16.1206 2.9945 16.6299 2.92194 17.035 3.32703C17.44 3.73207 17.3675 4.24126 17.3361 4.40187C17.2942 4.61569 17.2069 4.81495 17.1279 4.97108C16.9636 5.29619 16.7079 5.67915 16.4056 6.08531C15.8622 6.81527 15.0856 7.72963 14.1651 8.72182L15.5558 14.981C15.6607 15.4532 15.4127 15.9327 14.9668 16.12C14.5208 16.3072 14.0048 16.1484 13.7412 15.7429L11.1436 11.7464C10.0004 12.8095 8.94208 13.699 8.13924 14.2611L8.55849 16.1479C8.6634 16.6201 8.41536 17.0996 7.96941 17.2869ZM7.8128 13.2647C8.55195 12.7197 9.52192 11.895 10.5902 10.895C10.8311 10.6695 11.077 10.435 11.3265 10.1929L14.5796 15.1979L13.0743 8.42331C14.1637 7.27214 15.0621 6.2226 15.6429 5.43492C15.7694 5.26335 15.8808 5.10421 15.9759 4.95914C16.2978 4.46802 16.432 4.13827 16.3279 4.03414C16.2237 3.93 15.894 4.06423 15.4029 4.3861C15.2578 4.48117 15.0986 4.59262 14.9271 4.71913C14.1392 5.30009 13.0893 6.19873 11.9379 7.28846L5.16533 5.78364L10.1689 9.03584C9.92671 9.28526 9.69226 9.5312 9.46672 9.77213C8.46686 10.8403 7.6422 11.8101 7.09733 12.5492C6.92464 12.7834 6.78004 12.9945 6.66689 13.1782C6.6448 13.214 6.62391 13.2489 6.60424 13.2826C6.59036 13.3064 6.57708 13.3297 6.56443 13.3524L4.00011 12.7826L6.17116 14.1938L7.5823 16.3648L7.01161 13.7964C7.03393 13.784 7.05677 13.7709 7.08013 13.7573C7.11306 13.7381 7.14701 13.7177 7.18195 13.6962C7.36605 13.5829 7.57775 13.4379 7.8128 13.2647Z" fill="black"/>
</svg>
