<svg width="20" height="20" viewBox="0 0 20 20" fill="none" xmlns="http://www.w3.org/2000/svg">
<path fill-rule="evenodd" clip-rule="evenodd" d="M11.0658 3C10.8035 3.0011 10.5521 3.10526 10.3658 3.29L3.2958 10.36C3.20207 10.453 3.12768 10.5636 3.07691 10.6854C3.02614 10.8073 3 10.938 3 11.07C3 11.202 3.02614 11.3327 3.07691 11.4546C3.12768 11.5764 3.20207 11.687 3.2958 11.78L8.9558 17.45C9.04876 17.5437 9.15936 17.6181 9.28122 17.6689C9.40308 17.7197 9.53379 17.7458 9.6658 17.7458C9.79781 17.7458 9.92852 17.7197 10.0504 17.6689C10.1722 17.6181 10.2828 17.5437 10.3758 17.45L17.4258 10.36C17.6142 10.1754 17.722 9.92377 17.7258 9.66V4C17.7258 3.73478 17.6204 3.48043 17.4329 3.29289C17.2454 3.10536 16.991 3 16.7258 3H11.0658ZM9.6558 16.73L16.7258 9.66H16.7358V4H11.0758L3.9958 11.07L9.6558 16.73ZM13.1858 8.54411C12.9195 8.54411 12.6641 8.43832 12.4758 8.25002L12.4858 8.24002C12.322 8.04872 12.2364 7.80264 12.2461 7.55096C12.2558 7.29929 12.3602 7.06055 12.5382 6.88245C12.7163 6.70436 12.9551 6.60003 13.2068 6.59031C13.4584 6.58059 13.7045 6.66619 13.8958 6.83002C14.0841 7.01832 14.1899 7.27372 14.1899 7.54002C14.1899 7.80632 14.0841 8.06171 13.8958 8.25002C13.7075 8.43832 13.4521 8.54411 13.1858 8.54411ZM13.1908 9.53613C12.6601 9.53613 12.1511 9.3253 11.7758 8.95002C11.4005 8.57474 11.1897 8.06575 11.1897 7.53502C11.1897 7.00429 11.4005 6.4953 11.7758 6.12002C12.1511 5.74474 12.6601 5.53391 13.1908 5.53391C13.7215 5.53391 14.2305 5.74474 14.6058 6.12002C14.7916 6.30584 14.939 6.52644 15.0396 6.76923C15.1402 7.01201 15.1919 7.27223 15.1919 7.53502C15.1919 7.79781 15.1402 8.05802 15.0396 8.30081C14.939 8.5436 14.7916 8.7642 14.6058 8.95002C14.42 9.13584 14.1994 9.28324 13.9566 9.3838C13.7138 9.48437 13.4536 9.53613 13.1908 9.53613Z" fill="black"/>
</svg>
