<svg width="526" height="526" viewBox="0 0 526 526" fill="none" xmlns="http://www.w3.org/2000/svg">
<path d="M322 329.7C322.7 331.9 323.2 334.1 323.6 336.4C325.7 347.4 324 358.8 318.8 369.3C318.6 369.7 318.8 370.1 319.1 370.3C319.2 370.4 319.3 370.4 319.4 370.4C319.7 370.4 319.9 370.3 320 370C325.4 359.2 327.1 347.5 324.9 336.2C324.5 333.9 323.9 331.6 323.3 329.4C319.7 317.1 312.6 304.6 304.4 295.9C304.1 295.6 303.7 295.6 303.4 295.9C303.1 296.2 303.1 296.6 303.4 296.9C311.5 305.4 318.5 317.7 322 329.7Z" fill="black"/>
<path d="M366.1 118.8H270.9C270.2 114.9 266.8 111.9 262.7 111.9C258.6 111.9 255.2 114.9 254.5 118.8H159.3C158.5 118.8 157.9 119.4 157.9 120.2V235.7C157.9 236.5 158.5 237.1 159.3 237.1H254.4V247.4H243.1C240.3 247.4 238 249.7 238 252.5V252.9C238 255.5 240.1 257.7 242.7 257.9L217.8 288.2C216.5 289.8 215.1 291.4 213.7 293L213.2 293.6C204.1 303.9 197.7 314.9 194.3 326.3C193.5 328.8 192.9 331.4 192.5 334C187.4 361 202.1 388.9 230 405.2C231.3 408.5 234.3 413.6 238.5 413.6H287.1C291.2 413.6 294.3 408.5 295.6 405.2C323.4 388.9 338.1 361 333.1 334C332.6 331.5 332 328.9 331.2 326.3C327.8 314.9 321.5 303.9 312.3 293.6L311.8 293.1C310.4 291.5 309 289.9 307.7 288.3L282.8 258C285.4 257.8 287.5 255.6 287.5 253V252.6C287.5 249.8 285.2 247.5 282.4 247.5H271.1V237.2H313.7C313.7 237.3 313.6 237.4 313.6 237.5V256.8C312.3 259 308 266.8 308 269.9C308 273.8 311.2 277 315.1 277C319 277 322.2 273.8 322.2 269.9C322.2 266.7 317.8 259 316.6 256.8V237.5C316.6 237.4 316.6 237.3 316.5 237.2H366.3C367.1 237.2 367.7 236.6 367.7 235.8V120.2C367.5 119.4 366.9 118.8 366.1 118.8ZM315 274.1C312.7 274.1 310.8 272.2 310.8 269.9C310.8 268.5 312.5 264.8 314.3 261.5C314.5 261.6 314.8 261.8 315.1 261.8C315.4 261.8 315.6 261.7 315.9 261.5C317.7 264.9 319.4 268.6 319.4 269.9C319.2 272.2 317.3 274.1 315 274.1ZM262.8 114.8C265.3 114.8 267.4 116.5 268 118.8H257.5C258.1 116.5 260.2 114.8 262.8 114.8ZM232.5 403.7C232.4 403.4 232.1 403.1 231.8 402.9C204.8 387.2 190.4 360.3 195.3 334.4C195.8 332 196.4 329.5 197.1 327C200.3 316 206.5 305.4 215.4 295.4L215.9 294.9L220.1 290.1L246.5 258H261.5V262H250.1C249.9 262 249.7 262.1 249.6 262.3L221 295.9C212.8 304.6 205.7 317.1 202.1 329.3C201.4 331.6 200.9 333.8 200.5 336.1C196 360 209.1 384.8 233.9 399.3C234.9 402 237.6 406.6 241 406.6H254.4V410.7H238.4C236.3 410.7 233.7 407.1 232.5 403.7ZM268.2 405.2H257.2V402.8H268.2V405.2ZM268.2 406.6V410.7H257.2V406.6H268.2ZM255.8 400C255 400 254.4 400.6 254.4 401.4V405.2H241C238.7 405.2 236.3 401.8 235.1 398.6C235 398.4 234.9 398.3 234.8 398.2C210.4 384.1 197.5 359.8 201.9 336.4C202.3 334.2 202.9 332 203.5 329.7C207.1 317.6 214 305.4 222.1 296.8L250.2 263.4H261.3V400H255.8ZM309.7 294.9L310.2 295.4C319.1 305.4 325.2 316.1 328.5 327C329.2 329.5 329.8 332 330.3 334.4C335.2 360.3 320.8 387.2 293.7 402.9C293.4 403.1 293.2 403.3 293.1 403.7C291.9 407.1 289.3 410.7 287.1 410.7H271.1V406.6H284.5C287.9 406.6 290.6 401.9 291.6 399.3C300.2 394.3 307.4 388.1 313.1 380.8C313.3 380.5 313.3 380 313 379.8C312.7 379.6 312.2 379.6 312 379.9C306.4 387.1 299.2 393.2 290.6 398.1C290.5 398.2 290.3 398.3 290.3 398.5C289.2 401.7 286.7 405.1 284.4 405.1H271V401.3C271 400.5 270.4 399.9 269.6 399.9H264.1V263.4H275.2L295.6 287.6C295.9 287.9 296.3 287.9 296.6 287.7C296.9 287.4 296.9 287 296.7 286.7L276.1 262.2C276 262 275.8 261.9 275.6 261.9H264.2V257.9H279.1L305.5 290C306.8 291.7 308.3 293.3 309.7 294.9ZM284.6 252.5V252.9C284.6 254.1 283.6 255.1 282.4 255.1H243.1C241.9 255.1 240.9 254.1 240.9 252.9V252.5C240.9 251.3 241.9 250.3 243.1 250.3H282.4C283.6 250.3 284.6 251.2 284.6 252.5ZM268.2 237.2V247.4H257.2V237.1L268.2 237.2ZM364.7 234.3H184.8V200.9C184.8 200.5 184.5 200.2 184.1 200.2C183.7 200.2 183.4 200.5 183.4 200.9V234.3H172.8V165.9C172.8 165.5 172.5 165.2 172.1 165.2C171.7 165.2 171.4 165.5 171.4 165.9V234.3H160.9V121.7H171.4V155C171.4 155.4 171.7 155.7 172.1 155.7C172.5 155.7 172.8 155.4 172.8 155V121.7H195.5V147C195.5 147.4 195.8 147.7 196.2 147.7C196.6 147.7 196.9 147.4 196.9 147V121.7H364.7V234.3Z" fill="black"/>
<path d="M196.1 161.7C195.7 161.7 195.4 162 195.4 162.4V223.8C195.4 224.2 195.7 224.5 196.1 224.5C196.5 224.5 196.8 224.2 196.8 223.8V162.4C196.8 162 196.5 161.7 196.1 161.7ZM184.1 135.3C183.7 135.3 183.4 135.6 183.4 136V188.3C183.4 188.7 183.7 189 184.1 189C184.5 189 184.8 188.7 184.8 188.3V136C184.8 135.6 184.5 135.3 184.1 135.3Z" fill="black"/>
</svg>
