<svg width="526" height="526" viewBox="0 0 526 526" fill="none" xmlns="http://www.w3.org/2000/svg">
<path d="M330.3 251.9H325.5C323.7 240.9 319.4 230.8 313.1 222.2V221.6L306.9 198.1C305.6 193 301 189.5 295.8 189.5H287.3L285.9 184.7C285.2 182.3 283.1 180.7 280.6 180.7H234.3C231.8 180.7 229.7 182.3 229 184.7L227.6 189.5H219C213.8 189.5 209.2 193 207.9 198.1L201.7 221.6C201.6 221.8 201.6 222 201.7 222.2C193.3 233.6 188.4 247.7 188.4 262.8C188.4 278 193.3 292 201.7 303.4V304L207.9 327.5C209.2 332.6 213.8 336.1 219 336.1H227.5L228.9 340.9C229.6 343.2 231.8 344.9 234.2 344.9H280.5C283 344.9 285.1 343.3 285.8 340.9L287.2 336.1H295.6C300.8 336.1 305.4 332.6 306.7 327.5L313 304C313.1 303.8 313.1 303.6 313 303.4C319.3 294.8 323.7 284.7 325.4 273.7H330.2C334 273.7 337.1 270.6 337.1 266.8V258.7C337.1 254.9 334 251.9 330.3 251.9ZM210.6 198.7C211.6 194.9 215 192.2 219 192.2H228.5C228.7 192.2 228.8 192.2 229 192.1C229.1 192.1 229.3 192.2 229.4 192.2H241.5C242.3 192.2 242.9 191.6 242.9 190.8C242.9 190 242.3 189.4 241.5 189.4H230.4L231.6 185.4C231.9 184.2 233 183.5 234.2 183.5H280.5C281.7 183.5 282.7 184.3 283.1 185.4L284.3 189.4H273.2C272.4 189.4 271.8 190 271.8 190.8C271.8 191.6 272.4 192.2 273.2 192.2H285.3C285.5 192.2 285.6 192.2 285.7 192.1C285.9 192.2 286 192.2 286.2 192.2H295.7C299.6 192.2 303.1 194.9 304.1 198.7L308.9 217C296.3 202.8 277.9 193.8 257.4 193.8C236.9 193.8 218.5 202.8 205.9 217L210.6 198.7ZM257.3 196.7C293.7 196.7 323.4 226.4 323.4 262.8C323.4 299.2 293.7 328.9 257.3 328.9C220.9 328.9 191.2 299.2 191.2 262.8C191.2 226.3 220.9 196.7 257.3 196.7ZM304 326.8C303 330.6 299.6 333.3 295.6 333.3H273.1C272.3 333.3 271.7 333.9 271.7 334.7C271.7 335.5 272.3 336.1 273.1 336.1H284.2L283 340.1C282.7 341.3 281.6 342 280.4 342H234.1C232.9 342 231.8 341.2 231.5 340.1L230.3 336.1H241.4C242.2 336.1 242.8 335.5 242.8 334.7C242.8 333.9 242.2 333.3 241.4 333.3H219C215.1 333.3 211.6 330.6 210.6 326.8L205.8 308.5C218.4 322.7 236.8 331.7 257.3 331.7C277.8 331.7 296.2 322.7 308.8 308.5L304 326.8ZM334.3 266.8C334.3 269 332.5 270.8 330.3 270.8H325.8C325.9 270.3 325.9 269.8 326 269.2H331.2C331.6 269.2 331.9 268.9 331.9 268.5C331.9 268.1 331.6 267.8 331.2 267.8H326.1C326.2 267 326.2 266.2 326.2 265.4H331.2C331.6 265.4 331.9 265.1 331.9 264.7C331.9 264.3 331.6 264 331.2 264H326.3V261.6H331.2C331.6 261.6 331.9 261.3 331.9 260.9C331.9 260.5 331.6 260.2 331.2 260.2H326.2C326.2 259.4 326.1 258.6 326.1 257.8H331.2C331.6 257.8 331.9 257.5 331.9 257.1C331.9 256.7 331.6 256.4 331.2 256.4H326C326 255.9 325.9 255.4 325.8 254.8H330.3C332.5 254.8 334.3 256.6 334.3 258.8V266.8Z" fill="black"/>
<path d="M257.3 324.5C291.3 324.5 319 296.8 319 262.8C319 228.8 291.3 201.1 257.3 201.1C223.3 201.1 195.6 228.8 195.6 262.8C195.6 296.8 223.3 324.5 257.3 324.5ZM257.3 203.9C289.8 203.9 316.2 230.3 316.2 262.8C316.2 295.3 289.8 321.7 257.3 321.7C224.8 321.7 198.4 295.3 198.4 262.8C198.4 230.3 224.9 203.9 257.3 203.9ZM283.6 347.9H231.1C230.3 347.9 229.7 348.5 229.7 349.3V368.1C229.7 368.9 230.3 369.5 231.1 369.5H283.6C284.4 369.5 285 368.9 285 368.1V349.3C285 348.5 284.3 347.9 283.6 347.9ZM282.1 366.7H232.5V350.7H282.1V366.7ZM301.6 338.7H289.3C288.5 338.7 287.9 339.3 287.9 340.1V355.6C287.9 356.4 288.5 357 289.3 357H301.6C302.4 357 303 356.4 303 355.6V340.1C303 339.4 302.3 338.7 301.6 338.7ZM300.1 354.2H290.7V341.6H300.1V354.2ZM225.4 338.7H213.1C212.3 338.7 211.7 339.3 211.7 340.1V355.6C211.7 356.4 212.3 357 213.1 357H225.4C226.2 357 226.8 356.4 226.8 355.6V340.1C226.8 339.4 226.2 338.7 225.4 338.7ZM223.9 354.2H214.5V341.6H223.9V354.2ZM283.6 373.2H231.1C230.3 373.2 229.7 373.8 229.7 374.6V393.4C229.7 394.2 230.3 394.8 231.1 394.8H283.6C284.4 394.8 285 394.2 285 393.4V374.6C285 373.8 284.3 373.2 283.6 373.2ZM282.1 392H232.5V376H282.1V392ZM301.6 359.3H289.3C288.5 359.3 287.9 359.9 287.9 360.7V380.8C287.9 381.6 288.5 382.2 289.3 382.2H301.6C302.4 382.2 303 381.6 303 380.8V360.7C303 359.9 302.3 359.3 301.6 359.3ZM300.1 379.3H290.7V362.1H300.1V379.3ZM225.4 359.3H213.1C212.3 359.3 211.7 359.9 211.7 360.7V380.8C211.7 381.6 212.3 382.2 213.1 382.2H225.4C226.2 382.2 226.8 381.6 226.8 380.8V360.7C226.8 359.9 226.2 359.3 225.4 359.3ZM223.9 379.3H214.5V362.1H223.9V379.3ZM301.6 384.6H289.3C288.5 384.6 287.9 385.2 287.9 386V393.4C287.9 394.2 288.5 394.8 289.3 394.8H301.6C302.4 394.8 303 394.2 303 393.4V386C303 385.3 302.3 384.6 301.6 384.6ZM300.1 392H290.7V387.5H300.1V392ZM225.4 384.6H213.1C212.3 384.6 211.7 385.2 211.7 386V393.4C211.7 394.2 212.3 394.8 213.1 394.8H225.4C226.2 394.8 226.8 394.2 226.8 393.4V386C226.8 385.3 226.2 384.6 225.4 384.6ZM223.9 392H214.5V387.5H223.9V392ZM231.1 177.6H283.6C284.4 177.6 285 177 285 176.2V157.4C285 156.6 284.4 156 283.6 156H231.1C230.3 156 229.7 156.6 229.7 157.4V176.2C229.7 177 230.3 177.6 231.1 177.6ZM232.5 158.8H282.1V174.8H232.5V158.8ZM213.1 186.8H225.4C226.2 186.8 226.8 186.2 226.8 185.4V169.9C226.8 169.1 226.2 168.5 225.4 168.5H213.1C212.3 168.5 211.7 169.1 211.7 169.9V185.4C211.7 186.1 212.3 186.8 213.1 186.8ZM214.5 171.3H223.9V183.9H214.5V171.3ZM289.3 186.8H301.6C302.4 186.8 303 186.2 303 185.4V169.9C303 169.1 302.4 168.5 301.6 168.5H289.3C288.5 168.5 287.9 169.1 287.9 169.9V185.4C287.9 186.1 288.5 186.8 289.3 186.8ZM290.7 171.3H300.1V183.9H290.7V171.3ZM231.1 152.3H283.6C284.4 152.3 285 151.7 285 150.9V132.1C285 131.3 284.4 130.7 283.6 130.7H231.1C230.3 130.7 229.7 131.3 229.7 132.1V150.9C229.7 151.7 230.3 152.3 231.1 152.3ZM232.5 133.5H282.1V149.5H232.5V133.5ZM213.1 166.2H225.4C226.2 166.2 226.8 165.6 226.8 164.8V144.7C226.8 143.9 226.2 143.3 225.4 143.3H213.1C212.3 143.3 211.7 143.9 211.7 144.7V164.8C211.7 165.6 212.3 166.2 213.1 166.2ZM214.5 146.2H223.9V163.4H214.5V146.2ZM289.3 166.2H301.6C302.4 166.2 303 165.6 303 164.8V144.7C303 143.9 302.4 143.3 301.6 143.3H289.3C288.5 143.3 287.9 143.9 287.9 144.7V164.8C287.9 165.6 288.5 166.2 289.3 166.2ZM290.7 146.2H300.1V163.4H290.7V146.2ZM213.1 140.9H225.4C226.2 140.9 226.8 140.3 226.8 139.5V132.1C226.8 131.3 226.2 130.7 225.4 130.7H213.1C212.3 130.7 211.7 131.3 211.7 132.1V139.5C211.7 140.2 212.3 140.9 213.1 140.9ZM214.5 133.5H223.9V138H214.5V133.5ZM289.3 140.9H301.6C302.4 140.9 303 140.3 303 139.5V132.1C303 131.3 302.4 130.7 301.6 130.7H289.3C288.5 130.7 287.9 131.3 287.9 132.1V139.5C287.9 140.2 288.5 140.9 289.3 140.9ZM290.7 133.5H300.1V138H290.7V133.5Z" fill="black"/>
<path d="M277.6 162.6H251.9C251.5 162.6 251.2 162.9 251.2 163.3C251.2 163.7 251.5 164 251.9 164H277.6C278 164 278.3 163.7 278.3 163.3C278.3 162.9 278 162.6 277.6 162.6ZM259.5 137.2H236.9C236.5 137.2 236.2 137.5 236.2 137.9C236.2 138.3 236.5 138.6 236.9 138.6H259.5C259.9 138.6 260.2 138.3 260.2 137.9C260.2 137.5 259.9 137.2 259.5 137.2ZM275.8 137.2H266.2C265.8 137.2 265.5 137.5 265.5 137.9C265.5 138.3 265.8 138.6 266.2 138.6H275.8C276.2 138.6 276.5 138.3 276.5 137.9C276.5 137.5 276.2 137.2 275.8 137.2ZM236.8 389.1H273C273.4 389.1 273.7 388.8 273.7 388.4C273.7 388 273.4 387.7 273 387.7H236.8C236.4 387.7 236.1 388 236.1 388.4C236.1 388.7 236.4 389.1 236.8 389.1ZM236.8 363.7H250.4C250.8 363.7 251.1 363.4 251.1 363C251.1 362.6 250.8 362.3 250.4 362.3H236.8C236.4 362.3 236.1 362.6 236.1 363C236.1 363.4 236.4 363.7 236.8 363.7ZM257.3 214.7C258.1 214.7 258.7 214.1 258.7 213.3V206.8C258.7 206 258.1 205.4 257.3 205.4C256.5 205.4 255.9 206 255.9 206.8V213.3C255.9 214.1 256.5 214.7 257.3 214.7ZM257.3 310.8C256.5 310.8 255.9 311.4 255.9 312.2V318.7C255.9 319.5 256.5 320.1 257.3 320.1C258.1 320.1 258.7 319.5 258.7 318.7V312.2C258.8 311.4 258.1 310.8 257.3 310.8ZM305.3 262.8C305.3 263.6 305.9 264.2 306.7 264.2H313.2C314 264.2 314.6 263.6 314.6 262.8C314.6 262 314 261.4 313.2 261.4H306.7C306 261.3 305.3 262 305.3 262.8ZM209.3 262.8C209.3 262 208.7 261.4 207.9 261.4H201.4C200.6 261.4 200 262 200 262.8C200 263.6 200.6 264.2 201.4 264.2H207.9C208.7 264.2 209.3 263.5 209.3 262.8ZM300.1 238.8C300.2 238.8 300.3 238.8 300.5 238.7L306.3 235.4C306.6 235.2 306.8 234.8 306.6 234.4C306.4 234.1 306 233.9 305.6 234.1L299.8 237.4C299.5 237.6 299.3 238 299.5 238.4C299.6 238.7 299.8 238.8 300.1 238.8ZM214.2 286.8L208.4 290.1C208.1 290.3 207.9 290.7 208.1 291.1C208.2 291.3 208.5 291.5 208.7 291.5C208.8 291.5 208.9 291.5 209.1 291.4L214.9 288.1C215.2 287.9 215.4 287.5 215.2 287.1C215 286.7 214.6 286.6 214.2 286.8ZM282.5 304.9C282.3 304.6 281.9 304.4 281.5 304.6C281.2 304.8 281 305.2 281.2 305.6L284.6 311.5C284.7 311.7 285 311.9 285.2 311.9C285.3 311.9 285.4 311.9 285.6 311.8C285.9 311.6 286.1 311.2 285.9 310.8L282.5 304.9ZM232.1 220.6C232.2 220.8 232.5 221 232.7 221C232.8 221 232.9 221 233.1 220.9C233.4 220.7 233.6 220.3 233.4 219.9L230 214C229.8 213.7 229.4 213.5 229 213.7C228.7 213.9 228.5 214.3 228.7 214.7L232.1 220.6ZM281.5 220.9C281.6 221 281.7 221 281.9 221C282.1 221 282.4 220.9 282.5 220.6L286 214.6C286.2 214.3 286.1 213.8 285.7 213.6C285.4 213.4 284.9 213.5 284.7 213.9L281.2 219.9C281 220.3 281.2 220.7 281.5 220.9ZM233.2 304.6C232.9 304.4 232.4 304.5 232.2 304.9L228.7 310.9C228.5 311.2 228.6 311.7 229 311.9C229.1 312 229.2 312 229.4 312C229.6 312 229.9 311.9 230 311.6L233.5 305.6C233.6 305.2 233.5 304.8 233.2 304.6ZM299.6 288L305.4 291.4C305.5 291.5 305.6 291.5 305.8 291.5C306 291.5 306.3 291.4 306.4 291.1C306.6 290.8 306.5 290.3 306.1 290.1L300.3 286.7C300 286.5 299.5 286.6 299.3 287C299.2 287.4 299.3 287.8 299.6 288ZM215 237.5L209.2 234.1C208.9 233.9 208.4 234 208.2 234.4C208 234.7 208.1 235.2 208.5 235.4L214.3 238.8C214.4 238.9 214.5 238.9 214.7 238.9C214.9 238.9 215.2 238.8 215.3 238.5C215.5 238.1 215.4 237.7 215 237.5ZM223.9 304.4C224.1 304.4 224.3 304.3 224.4 304.1L255.6 266C256.1 266.3 256.7 266.4 257.2 266.4H257.7L281.4 263.5C283.8 263.2 286.1 262.6 288.3 261.6L292.4 259.8C293 259.5 293.3 258.9 293.2 258.3C293.1 257.7 292.6 257.2 292 257.1L287.6 256.4C285.2 256 282.8 256 280.5 256.3L259.6 258.9V231.3C259.6 227.1 259.1 222.9 258 218.8C257.9 218.5 257.6 218.3 257.3 218.3C257 218.3 256.7 218.5 256.6 218.8C255.6 222.9 255 227 255 231.2V259.9C254.8 260.1 254.5 260.3 254.3 260.5C253.7 261.3 253.4 262.2 253.6 263.2C253.7 263.9 254 264.6 254.5 265.1L223.3 303.2C223.1 303.5 223.1 304 223.4 304.2C223.5 304.3 223.7 304.4 223.9 304.4ZM280.9 258.9C281.8 258.8 282.7 258.7 283.6 258.7C284.7 258.7 285.8 258.8 286.9 259C285 259.8 283.1 260.3 281.1 260.6L257.4 263.5C257 263.6 256.5 263.2 256.5 262.8C256.5 262.6 256.5 262.4 256.7 262.2C256.8 262 257 261.9 257.2 261.9L280.9 258.9ZM256.5 231.1C256.5 228.1 256.8 225.1 257.4 222.1C258 225.1 258.3 228.1 258.3 231.1V258.9L256.9 259.1C256.8 259.1 256.7 259.2 256.5 259.2V231.1ZM258.1 363.7H279.2C279.6 363.7 279.9 363.4 279.9 363C279.9 362.6 279.6 362.3 279.2 362.3H258.1C257.7 362.3 257.4 362.6 257.4 363C257.4 363.4 257.7 363.7 258.1 363.7Z" fill="black"/>
</svg>
