<svg width="526" height="526" viewBox="0 0 526 526" fill="none" xmlns="http://www.w3.org/2000/svg">
<path d="M381.3 247.3C381.6 246.1 382.5 243.9 384.7 243.1L387.2 242.2C387.7 242 388 241.7 388.1 241.2L391.9 225C392 224.6 391.9 224.2 391.7 223.9C391.5 223.6 391.1 223.4 390.7 223.3C329.6 215 296.9 223 277.4 227.9C271 229.5 266.3 230.6 262.8 230.6C259.3 230.6 254.6 229.5 248.2 227.9C228.7 223.1 196 215 134.9 223.3C134.5 223.4 134.1 223.6 133.9 223.9C133.7 224.2 133.6 224.6 133.7 225L137.5 241.2C137.6 241.7 138 242.1 138.4 242.2L140.9 243.1C143.1 243.9 144 246.1 144.3 247.3C144.7 248.7 145 250.3 145.4 251.9C147.2 259.5 149.4 268.9 153.3 277.8C145.7 286 139.9 293.1 137.1 296.7C136.6 297.4 136.3 298.2 136.4 299.1C136.5 299.9 136.9 300.6 137.4 301.1C137.9 301.8 139.3 303.7 142 304.5C144.4 305.2 146.6 305.5 148.6 305.5C156.4 305.5 162 300.8 166.1 296.1C172.8 302 181.7 305.8 193.9 305.8C237.8 305.8 246 281.3 251.4 265.1C254.7 255.3 256.8 249.8 262.8 249.8C268.9 249.8 271.1 255.4 274.4 265.2C279.8 281.3 287.9 305.8 331.8 305.8C344.2 305.8 353.2 301.8 360 295.7C364.2 300.5 369.8 305.5 377.8 305.5C379.8 305.5 382 305.2 384.4 304.4C387 303.6 388.5 301.7 389 301C389.6 300.5 389.9 299.8 390 299C390.1 298.1 389.9 297.3 389.3 296.6C386.4 292.9 380.4 285.6 372.6 277.2C376.4 268.5 378.6 259.2 380.3 251.8C380.6 250.3 381 248.8 381.3 247.3ZM142.7 301.8C140.6 301.2 139.6 299.5 139.6 299.5C139.5 299.3 139.4 299.2 139.2 299.1C139.1 299 139.1 298.9 139.1 298.9C139.1 298.8 139.1 298.7 139.2 298.6C141.9 295.2 147.4 288.5 154.5 280.7C157 285.6 160 290.3 163.9 294.2C157 302.1 150.8 304.3 142.7 301.8ZM387 298.5C387.1 298.6 387.1 298.7 387.1 298.8C387.1 298.9 387.1 299 387 299L386.6 299.4C386.6 299.4 385.6 301.1 383.5 301.7C375.3 304.2 369 301.9 361.9 293.7C365.8 289.7 368.8 285 371.2 280C378.6 288.1 384.2 295 387 298.5ZM377.5 251.3C372.7 271.9 365.4 303 331.7 303C289.9 303 282.5 280.7 277 264.4C273.9 255.1 271.2 247 262.7 247C254.4 247 251.7 255 248.6 264.3C243.1 280.6 235.7 303 193.8 303C160.1 303 152.8 271.9 148 251.3C147.6 249.6 147.2 248.1 146.9 246.6C146.1 243.5 144.3 241.3 141.7 240.4L140 239.8L136.8 225.8C196.3 217.9 228.3 225.8 247.5 230.5C254.1 232.1 258.9 233.3 262.8 233.3C266.7 233.3 271.5 232.1 278.1 230.5C297.3 225.8 329.3 217.9 388.8 225.8L385.6 239.8L383.9 240.4C381.4 241.3 379.5 243.6 378.7 246.6C378.2 248.1 377.9 249.7 377.5 251.3Z" fill="black"/>
<path d="M383.9 232C383.9 227.9 370.2 227.9 370.2 232C370.2 234 373.6 235.1 377 235.1C380.5 235.1 383.9 234.1 383.9 232ZM377.1 233.7C373.7 233.7 371.7 232.6 371.7 232C371.7 231.4 373.8 230.3 377.1 230.3C380.5 230.3 382.5 231.4 382.5 232C382.5 232.6 380.4 233.7 377.1 233.7ZM141.8 232C141.8 234 145.2 235.1 148.6 235.1C152 235.1 155.4 234 155.4 232C155.5 228 141.8 228 141.8 232ZM148.6 233.7C145.2 233.7 143.2 232.6 143.2 232C143.2 231.4 145.3 230.3 148.6 230.3C151.9 230.3 154 231.4 154 232C154 232.6 152 233.7 148.6 233.7ZM356 227.6C348.1 225.6 319.8 220.2 288 233.1C282.3 235.4 278.6 241.1 278.9 247.2C279.8 269.8 285.9 299.8 327.6 299.8C340.5 299.8 350.7 296 357.8 288.4C369.1 276.3 370.5 257.6 369.6 243.9C369 236 363.6 229.5 356 227.6ZM288.5 234.4C304.2 228 319 226.2 330.9 226.2C342.8 226.2 351.7 228 355.6 229C360.9 230.3 365 234.1 367 239H366.9C366.8 239 352.6 240.7 330.5 242.5C321.5 243.2 310.3 244.1 297.6 244.7H296.8C296.7 244.7 296.6 244.7 296.5 244.8C291.5 245.1 286.3 245.3 280.9 245.5C280.7 245.5 280.6 245.6 280.4 245.6C280.8 240.5 283.9 236.2 288.5 234.4ZM327.6 298.4C287.7 298.4 281.4 269.9 280.4 248C280.6 248.1 280.7 248.1 280.9 248.1C286.7 247.9 292.3 247.7 297.6 247.4C326 247.5 338.5 265.7 349.5 281.8C351.1 284.2 352.7 286.5 354.3 288.7C354.5 288.9 354.7 289.1 355 289.2C348.2 295.3 339.1 298.4 327.6 298.4ZM356.8 287.3C356.8 287.2 356.7 287 356.6 286.9C355 284.7 353.5 282.5 351.9 280.1C343.1 267.2 332.5 251.8 312.7 246.4C319.2 246 325.1 245.5 330.3 245.1C340.7 250.9 351.7 259.8 363.9 272.4C364.2 272.7 364.5 272.8 364.9 272.8H365C363.2 278.2 360.6 283.2 356.8 287.3ZM365.8 270.3C354.8 259.1 344.7 250.7 335.2 244.8C354.7 243.2 367.1 241.7 367.2 241.7C367.4 241.7 367.6 241.6 367.7 241.5C367.9 242.3 368 243.1 368 244C368.5 250.7 368.5 260.7 365.8 270.3ZM238 233C206.3 220.1 178 225.5 170 227.5C162.4 229.4 156.9 236 156.4 243.9C155.5 257.5 156.9 276.3 168.2 288.4C175.3 296 185.5 299.8 198.4 299.8C240.1 299.8 246.2 269.8 247.1 247.2C247.4 241 243.7 235.4 238 233ZM170.4 228.9C178.1 227 205.3 221.7 236.1 233.8C228.1 234.7 221.4 235.3 213.5 236C208 236.5 201.9 238.6 195.2 242.3C173.4 240.6 159.4 238.9 159.2 238.9H158.9C161 234 165.1 230.3 170.4 228.9ZM157.9 244C158 243.1 158.1 242.2 158.3 241.4C158.5 241.6 158.7 241.7 159 241.7C159.1 241.7 171.5 243.2 191 244.8C181.4 250.8 171.3 259.2 160.3 270.5C157.5 260.8 157.5 250.7 157.9 244ZM198.4 298.4C186.9 298.4 177.8 295.3 171 289.2C171.3 289.1 171.6 289 171.8 288.7C173.3 286.6 174.8 284.5 176.4 282.2C187.8 265.7 200.7 247.1 231.5 248.2C236.6 248.4 240.3 248.5 245.1 248.5C245.3 248.5 245.4 248.5 245.5 248.4C244.6 270.3 238.2 298.4 198.4 298.4ZM245.2 245.7C240.4 245.7 236.8 245.6 231.7 245.4C199.3 244.1 185.3 264.4 174.1 280.6C172.5 282.9 171.1 285 169.6 287C169.5 287.2 169.4 287.3 169.4 287.5C165.5 283.3 162.9 278.3 161.1 273H161.4C161.8 273 162.1 272.9 162.4 272.6C174.7 260 185.8 251 196.4 245.1C202.9 241.5 208.8 239.4 214 238.9C222.5 238.2 229.7 237.4 238.7 236.5C239.2 236.4 239.7 236.1 239.9 235.6C243.4 237.9 245.6 241.7 245.9 245.8C245.5 245.7 245.4 245.7 245.2 245.7Z" fill="black"/>
</svg>
