<svg width="526" height="526" viewBox="0 0 526 526" fill="none" xmlns="http://www.w3.org/2000/svg">
<path d="M271.9 192.7C271.4 188.9 268.2 186.6 263.3 186.6C258.4 186.6 255.3 188.9 254.7 192.7C187.8 198.4 178.7 271.6 177.5 294.7C177.4 296.7 178.3 298.4 180 299.5C181.1 300.2 182.3 300.4 183.5 300.2V329.6C183.5 332.4 184.9 335.1 187.2 336.7C189.5 338.3 192.3 338.7 195 337.8C201 335.7 207.1 332.1 213.6 328.4C226.9 320.6 242 311.9 262.5 311.9C283.7 311.9 297.4 320.4 309.5 327.9C316.8 332.4 323.7 336.7 331.4 338.6C332.1 338.8 332.8 338.8 333.4 338.8C335.3 338.8 337.1 338.2 338.6 337C340.7 335.3 342 332.8 342 330.1V300.2C342.2 300.2 342.5 300.3 342.7 300.3C343.6 300.3 344.6 300 345.5 299.5C347.2 298.5 348.1 296.7 348 294.7C346.8 271.7 337.8 198.6 271.9 192.7ZM263.3 189.7C265.1 189.7 268 190.1 268.8 192.5C267 192.4 265.2 192.3 263.3 192.3H263.2C261.4 192.3 259.6 192.4 257.8 192.5C258.6 190.1 261.5 189.7 263.3 189.7ZM339 330.1C339 331.9 338.2 333.5 336.8 334.6C335.4 335.7 333.7 336 332.1 335.6C324.9 333.8 318.2 329.7 311.1 325.3C298.6 317.6 284.5 308.9 262.5 308.9C241.2 308.9 225.8 317.9 212.1 325.8C205.8 329.5 199.8 333 194 335C192.3 335.6 190.5 335.3 189 334.3C187.5 333.2 186.6 331.5 186.6 329.6V299.7C186.6 299.5 186.5 299.2 186.4 299C197 293.2 220.5 284 262.8 284C305.1 284 328.5 293.1 339.2 299C339.1 299.2 339 299.4 339 299.7V330.1ZM343.9 297C343.2 297.4 342.3 297.5 341.6 297C339.3 295.7 336.2 294.1 332.4 292.6C333 290.3 333.5 287.9 334 285.5C334.1 285.1 333.8 284.7 333.4 284.6C333 284.5 332.6 284.8 332.5 285.2C332.1 287.5 331.6 289.8 331 292C317.7 286.7 295.9 281.1 262.7 281.1C229.5 281.1 207.7 286.7 194.5 292C193.9 289.4 193.3 286.8 192.8 284.2C192.7 283.8 192.3 283.5 191.9 283.6C191.5 283.7 191.2 284.1 191.3 284.5C191.8 287.2 192.4 290 193.1 292.6C189.3 294.2 186.3 295.7 183.9 297.1C183.2 297.5 182.3 297.5 181.6 297.1C180.9 296.7 180.5 295.9 180.5 295.1C181 286 182.7 268.8 188.9 251.3C188.8 255 188.8 258.8 188.9 262.5C188.9 262.9 189.2 263.2 189.7 263.2C190.1 263.2 190.4 262.8 190.4 262.4C190.2 257.1 190.3 251.8 190.6 246.6C191.2 245.1 191.8 243.7 192.4 242.2C191.5 251.7 190.9 269 194.9 288.2C195 288.6 195.3 288.8 195.6 288.8H195.8C196.2 288.7 196.5 288.3 196.4 287.9C191.6 265.4 193.4 245.5 194.4 238C205.7 215.5 226 195.6 262.4 195.4V278.4C262.4 278.8 262.7 279.2 263.2 279.2C263.6 279.2 264 278.9 264 278.4V195.4H265.5V199.8C265.5 200.2 265.8 200.6 266.3 200.6C266.7 200.6 267.1 200.3 267.1 199.8V195.4C300.9 196.7 320.1 215.9 331 237.5C332 244.6 333.9 264.9 329 287.9C328.9 288.3 329.2 288.7 329.6 288.8H329.8C330.1 288.8 330.5 288.6 330.5 288.2C334.7 268.7 334 251.1 333 241.7C333.7 243.2 334.3 244.6 334.9 246.1C335.2 250.8 335.3 255.6 335.2 260.4C335.2 260.8 335.5 261.2 335.9 261.2C336.3 261.2 336.6 260.9 336.7 260.5C336.8 257.2 336.7 254 336.6 250.8C342.8 268.4 344.5 285.7 345 294.9C345 295.7 344.6 296.5 343.9 297Z" fill="black"/>
<path d="M295.5 203.8C293.2 203.8 291.4 205.6 291.4 207.9C291.4 210.2 293.2 212 295.5 212C297.8 212 299.6 210.2 299.6 207.9C299.6 205.7 297.7 203.8 295.5 203.8ZM295.5 210.5C294.1 210.5 292.9 209.3 292.9 207.9C292.9 206.5 294.1 205.3 295.5 205.3C296.9 205.3 298.1 206.5 298.1 207.9C298.1 209.3 296.9 210.5 295.5 210.5ZM231.1 203.8C228.8 203.8 227 205.6 227 207.9C227 210.2 228.8 212 231.1 212C233.4 212 235.2 210.2 235.2 207.9C235.2 205.7 233.4 203.8 231.1 203.8ZM231.1 210.5C229.7 210.5 228.5 209.3 228.5 207.9C228.5 206.5 229.7 205.3 231.1 205.3C232.5 205.3 233.7 206.5 233.7 207.9C233.7 209.3 232.5 210.5 231.1 210.5ZM336.4 301.2C336 301.2 335.6 301.5 335.6 302V326.8C335.6 328.4 334.8 329.8 333.5 330.7C332.2 331.6 330.6 331.7 329.2 331.1C327 330.2 324.6 329 322 327.5C321.6 327.3 321.2 327.4 321 327.8C320.8 328.2 320.9 328.6 321.3 328.8C324 330.3 326.4 331.5 328.7 332.5C329.5 332.8 330.3 333 331 333C332.2 333 333.3 332.7 334.4 332C336.1 330.9 337.2 328.9 337.2 326.9V302.1C337.1 301.5 336.8 301.2 336.4 301.2ZM316.6 324.2C315.6 323.6 314.6 323 313.6 322.3C311.1 320.8 308.5 319.2 305.8 317.6C305.4 317.4 305 317.5 304.8 317.9C304.6 318.3 304.7 318.7 305.1 318.9C307.8 320.4 310.4 322 312.9 323.6C313.9 324.2 314.9 324.8 315.9 325.5C316 325.6 316.2 325.6 316.3 325.6C316.6 325.6 316.8 325.5 316.9 325.2C317.1 324.9 317 324.4 316.6 324.2ZM302 315.6C292.9 310.7 280.1 305.1 262.1 305.1C239.8 305.1 223.5 314.5 209 322.7C204.6 325.2 200.5 327.6 196.5 329.5C195.1 330.2 193.4 330.1 192.1 329.3C190.7 328.4 189.9 327 189.9 325.4V301.9C189.9 301.5 189.6 301.1 189.1 301.1C188.7 301.1 188.3 301.4 188.3 301.9V325.4C188.3 327.5 189.4 329.5 191.2 330.6C192.2 331.2 193.3 331.5 194.4 331.5C195.3 331.5 196.2 331.3 197 330.9C201.1 328.9 205.2 326.6 209.6 324C223.9 315.8 240 306.6 261.9 306.6C279.6 306.6 292.2 312.1 301.1 316.9C301.5 317.1 301.9 317 302.1 316.6C302.5 316.3 302.4 315.8 302 315.6Z" fill="black"/>
<path d="M192.7 309.8C193.1 309.8 193.5 309.5 193.5 309V299.9C193.5 299.5 193.2 299.1 192.7 299.1C192.3 299.1 191.9 299.4 191.9 299.9V309C191.9 309.4 192.3 309.8 192.7 309.8ZM193.8 324.6C194.4 325 195.2 325.2 195.9 325.2C196.5 325.2 197 325.1 197.6 324.8C200.6 323.4 203.5 321.8 206.2 320.4C206.6 320.2 206.7 319.7 206.5 319.4C206.3 319 205.8 318.9 205.5 319.1C202.8 320.6 199.8 322.1 196.9 323.5C196.1 323.9 195.3 323.8 194.6 323.4C193.9 322.9 193.5 322.2 193.5 321.3V313.6C193.5 313.2 193.2 312.8 192.7 312.8C192.3 312.8 191.9 313.1 191.9 313.6V321.3C191.9 322.6 192.6 323.9 193.8 324.6ZM209.6 318.5C209.7 318.5 209.8 318.5 210 318.4C212.4 317.1 214.8 315.8 217.3 314.5C217.7 314.3 217.8 313.9 217.6 313.5C217.4 313.1 217 313 216.6 313.2C214.1 314.5 211.6 315.8 209.3 317.1C208.9 317.3 208.8 317.8 209 318.1C209 318.3 209.3 318.5 209.6 318.5ZM222 312.1C231.7 307.5 245 302.1 262.2 302.1C285.3 302.1 300.2 310.7 313.3 318.3C318.3 321.2 323.1 323.9 328 326C328.5 326.2 329 326.3 329.6 326.3C330.4 326.3 331.1 326.1 331.8 325.6C332.9 324.9 333.6 323.6 333.6 322.3V299.8C333.6 299.4 333.3 299 332.8 299C332.3 299 332 299.3 332 299.8V322.3C332 323.1 331.6 323.9 330.9 324.3C330.2 324.8 329.3 324.8 328.6 324.5C323.8 322.4 319.1 319.7 314.1 316.8C300.8 309.1 285.7 300.4 262.2 300.4C244.7 300.4 231.2 305.8 221.4 310.5C221 310.7 220.9 311.1 221 311.5C221.2 312.1 221.7 312.3 222 312.1ZM266.3 204.3C265.9 204.3 265.5 204.6 265.5 205.1V228.8C265.5 229.2 265.8 229.6 266.3 229.6C266.7 229.6 267.1 229.3 267.1 228.8V205.1C267.1 204.6 266.7 204.3 266.3 204.3ZM260.3 265.3C259.9 265.3 259.5 265.6 259.5 266.1V275C259.5 275.4 259.8 275.8 260.3 275.8C260.7 275.8 261.1 275.5 261.1 275V266C261 265.6 260.7 265.3 260.3 265.3ZM260.3 243.8C259.9 243.8 259.5 244.1 259.5 244.6V259.9C259.5 260.3 259.8 260.7 260.3 260.7C260.7 260.7 261.1 260.4 261.1 259.9V244.6C261 244.2 260.7 243.8 260.3 243.8ZM335.6 266.8C335.2 266.8 334.8 267.1 334.8 267.5C334.5 271.3 334.1 275.1 333.6 278.9C333.5 279.3 333.8 279.7 334.2 279.8H334.3C334.7 279.8 335 279.5 335 279.2C335.5 275.4 336 271.6 336.2 267.7C336.3 267.2 336 266.8 335.6 266.8ZM190 267.1C189.6 267.1 189.3 267.5 189.3 267.9C189.6 271.4 189.9 275 190.4 278.5C190.5 278.9 190.8 279.1 191.1 279.1H191.2C191.6 279 191.9 278.7 191.8 278.2C191.3 274.8 190.9 271.2 190.7 267.7C190.7 267.3 190.3 267 190 267.1Z" fill="black"/>
</svg>
