<svg width="526" height="526" viewBox="0 0 526 526" fill="none" xmlns="http://www.w3.org/2000/svg">
<path d="M375.5 345.2C375.5 345.1 375.5 345.1 375.5 345.2C375.5 345.1 375.5 345.1 375.5 345.2C374.4 342.3 373.2 339.7 372.1 337.4C370.7 332.7 369.7 323.6 371.6 317.6C375 307 375.2 277 372.8 263.1C370.5 249.1 360.5 233.3 354.3 226.2C349 220 341.5 211.3 338.9 208.3C347.5 202.7 352.2 195 352.9 185.3C352.9 185 352.9 184.7 353 184.5C353.4 180.4 352.4 174.6 349.1 171C347 168.7 344.3 167.5 341.1 167.5H286.2C285.4 160.4 283.2 154.5 281 150C274.2 136.1 268.5 133.5 259.8 133.5H259.1C250.4 133.5 244.7 136 237.9 150C235.7 154.5 233.5 160.4 232.7 167.5H184.2C181 167.5 178.3 168.7 176.2 171C173 174.6 171.9 180.3 172.3 184.5C172.3 184.7 172.3 185 172.4 185.3C173.1 195.1 177.8 202.7 186.4 208.3C183.8 211.4 176.3 220 171 226.2C164.9 233.4 154.9 249.1 152.5 263.1C150.3 276.4 151.3 310.5 153.5 318C154.6 321.8 154.9 332.5 153.3 337.4C152.1 339.8 151 342.4 149.9 345.3C145.5 356.9 143.7 371.6 144.9 377.9C146.7 387.8 161.4 392.3 174.3 392.3H351.1C364 392.3 378.7 387.8 380.5 377.9C381.7 371.4 380 356.8 375.5 345.2ZM277.8 167.2C278.1 164 278.6 156.6 277.6 149.2C280 153.5 282.6 159.7 283.5 167.2H277.8ZM241.5 149.3C240.5 156.7 241 164.1 241.3 167.3H235.6C236.5 159.8 239.1 153.6 241.5 149.3ZM246 142.4C246 142.3 246.1 142.2 246.1 142C250.5 136.7 254.5 136.2 259.2 136.2H259.9C264.6 136.2 268.6 136.8 273 142C273 142.1 273 142.2 273.1 142.4C276.3 151.3 275.3 163.6 274.9 167.4H244.2C243.8 163.6 242.9 151.3 246 142.4ZM175.3 184.9C175.3 184.6 175.3 184.3 175.2 184C174.9 180.6 175.7 175.6 178.3 172.7C179.3 171.6 180.4 171 181.7 170.6L181.1 171.2C178.3 174.3 177.4 179.3 177.8 182.8C177.8 183 177.8 183.3 177.9 183.6C178.2 187.1 178.8 195.3 188.5 202.4C188.8 202.6 189.3 202.6 189.5 202.2C189.7 201.9 189.7 201.4 189.3 201.2C180.1 194.5 179.5 186.8 179.3 183.5C179.3 183.2 179.3 182.9 179.2 182.7C178.9 179.5 179.7 175 182.2 172.2C183 171.4 183.9 170.7 184.8 170.3H340.5C341.5 170.7 342.4 171.4 343.1 172.2C345.6 175 346.4 179.5 346.1 182.7C346.1 182.9 346.1 183.2 346 183.5C345.7 187.1 345 196.6 332.2 203.6C331.9 203.8 331.7 204.2 331.9 204.6C332 204.8 332.3 205 332.5 205C332.6 205 332.7 205 332.8 204.9C346.3 197.4 347.1 187.4 347.4 183.6C347.4 183.3 347.4 183.1 347.5 182.8C347.9 179.3 347 174.3 344.2 171.2L343.6 170.6C344.9 171 346.1 171.7 347 172.7C349.6 175.6 350.5 180.6 350.1 184C350.1 184.3 350.1 184.6 350 184.9C348.5 205.8 326.4 216.3 284.5 216.3H240.7C198.9 216.3 176.8 205.8 175.3 184.9ZM266.3 274H259.3C259.3 272.5 259.3 271 259.2 269.8C259 257.3 257 238.7 256.5 234.7H260.1C260.9 234.7 261.5 234.1 261.5 233.3V219.2H263.9V233.3C263.9 234.1 264.5 234.7 265.3 234.7H269C268.6 238.6 266.6 257.3 266.3 269.8V274ZM331.6 285.9H314.8C314.4 285.9 314.1 286.2 314.1 286.6C314.1 287 314.4 287.3 314.8 287.3H331.6V290.1H269.4C269.4 289.2 269.3 288.2 269.3 287.3H303.2C303.6 287.3 303.9 287 303.9 286.6C303.9 286.2 303.6 285.9 303.2 285.9H269.3C269.2 282.7 269.2 279.6 269.2 276.9H331.7V285.9H331.6ZM319.1 310.3H312.8L313 308.7H318.9L319.1 310.3ZM313.3 305.8L314.9 293.5H316.9L318.5 305.8H313.3ZM256.3 285.9H193.9V276.9H256.4C256.4 279.6 256.4 282.7 256.3 285.9ZM193.9 287.3H256.3C256.3 288.2 256.2 289.1 256.2 290.1H194V287.3H193.9ZM259.1 287.3H266.4C266.4 288.2 266.5 289.1 266.5 290.1H259C259.1 289.2 259.1 288.3 259.1 287.3ZM266.3 285.9H259.1C259.2 282.7 259.2 279.6 259.2 276.9H266.2C266.2 279.6 266.2 282.7 266.3 285.9ZM258.6 219.2V226H249.6V219.2H258.6ZM249.7 227.5H258.7V228.2H249.7V227.5ZM249.7 229.6H258.7V231.9H249.7V229.6ZM275.7 228.2H266.7V227.5H275.7V228.2ZM266.7 231.9V229.6H275.7V231.9H266.7ZM275.7 226H266.7V219.2H275.7V226ZM156.4 317.1C154.3 310 153.4 276.2 155.5 263.5C157.7 250 167.4 234.9 173.3 227.9C178.9 221.4 186.8 212.2 189 209.6C200.4 216 217.7 219.2 240.8 219.2H246.8V233.3C246.8 234.1 247.4 234.7 248.2 234.7H253.6C253.9 237.8 256 257.1 256.3 269.8C256.3 271 256.4 272.4 256.4 274H192.5C191.7 274 191.1 274.6 191.1 275.4V291.5C191.1 292.3 191.7 292.9 192.5 292.9H256C255.2 304.7 253.2 317.6 248 326.2C245.4 330.6 243.1 334.7 241.1 338.4C240.7 339.1 241 340 241.7 340.3C241.9 340.4 242.1 340.5 242.3 340.5C242.8 340.5 243.3 340.2 243.6 339.7C245.5 336 247.8 332 250.4 327.6C255.8 318.5 258 305.1 258.8 292.9H266.6C267.3 304.1 269.2 316.4 273.7 325.3C273.9 325.8 274.5 326.1 275 326.1C275.2 326.1 275.4 326.1 275.6 325.9C276.3 325.5 276.6 324.7 276.2 324C271.9 315.5 270.1 303.7 269.4 292.9H312L309.6 311.5C309.5 311.9 309.7 312.3 309.9 312.6C310.2 312.9 310.6 313.1 311 313.1H320.6C321 313.1 321.4 312.9 321.7 312.6C322 312.3 322.1 311.9 322 311.5L319.6 292.9H333C333.8 292.9 334.4 292.3 334.4 291.5V275.4C334.4 274.6 333.8 274 333 274H269.1C269.1 272.5 269.1 271.1 269.2 269.8C269.4 257.1 271.5 237.8 271.9 234.7H277.1C277.9 234.7 278.5 234.1 278.5 233.3V219.2H284.7C307.8 219.2 325.1 216 336.5 209.6C338.8 212.2 346.6 221.4 352.2 227.9C358.1 234.8 367.8 250 370 263.5C372.2 276.9 372 306.7 368.9 316.6C367.7 320.5 367.5 325.3 367.9 329.6C366.2 326.8 365 325.2 364.9 325C364.7 324.7 364.3 324.5 364 324.4H363.5C363.3 324.4 363.1 324.5 363 324.6C362.4 325.1 362.2 326 362.7 326.6C362.7 326.6 362.9 326.9 363.2 327.4C364.6 329.5 368.8 335.8 372.1 344.1H329.2V300.3C329.2 299.5 328.6 298.9 327.8 298.9C327 298.9 326.4 299.5 326.4 300.3V345.2C326.4 345.3 326.3 345.4 326.3 345.5C326.3 345.6 326.3 345.7 326.4 345.8V354.8C325.3 356.8 322.5 358.5 315.9 358.5H308.4C308 358.5 307.7 358.8 307.7 359.2C307.7 359.6 308 359.9 308.4 359.9H315.9C320.9 359.9 324.4 359 326.4 357.1C326.3 360.2 324.9 363.6 315.9 363.6H210.4C201.4 363.6 199.9 360.2 199.9 357.1C201.9 359 205.4 359.9 210.4 359.9H277.8C278.2 359.9 278.5 359.6 278.5 359.2C278.5 358.8 278.2 358.5 277.8 358.5H210.4C203.7 358.5 201 356.8 199.9 354.8V300.3C199.9 299.5 199.3 298.9 198.5 298.9C197.7 298.9 197.1 299.5 197.1 300.3V344.1H153.5C157.7 333.9 162.9 326.7 163 326.6C163.5 326 163.3 325.1 162.7 324.6C162.1 324.1 161.2 324.3 160.7 324.9C160.6 325.1 159.3 326.9 157.5 329.9C157.6 325 157.1 319.7 156.4 317.1ZM377.8 377.3C376.3 385.6 362.9 389.3 351.2 389.3H174.4C162.6 389.3 149.3 385.5 147.8 377.3C146.8 371.6 148.4 358 152.4 347.1H197V356.9C197 363.3 201.5 366.6 210.4 366.6H315.8C324.7 366.6 329.2 363.3 329.2 356.9V347.1H373.2C377.2 358 378.8 371.6 377.8 377.3Z" fill="black"/>
<path d="M286.1 359.3C286.1 359.7 286.4 360 286.8 360H301.5C301.9 360 302.2 359.7 302.2 359.3C302.2 358.9 301.9 358.6 301.5 358.6H286.8C286.5 358.6 286.1 358.9 286.1 359.3ZM291.4 213.7C304.9 213.2 316.1 211.4 324.9 208.4C325.3 208.3 325.5 207.9 325.3 207.5C325.2 207.1 324.8 206.9 324.4 207.1C315.8 210.1 304.7 211.8 291.4 212.3C291 212.3 290.7 212.6 290.7 213C290.7 213.4 291 213.7 291.4 213.7ZM280.1 213.8C280.5 213.8 280.8 213.5 280.8 213.1C280.8 212.7 280.5 212.4 280.1 212.4H242C222.1 212.4 206.7 209.9 196.1 205C195.7 204.8 195.3 205 195.2 205.3C195 205.7 195.2 206.1 195.5 206.2C206.3 211.2 221.9 213.7 242 213.7H280.1V213.8ZM272.9 330.7C273.3 330.8 273.8 330.8 274.3 330.8C276 330.8 277.7 330.1 279 328.9C280.4 327.5 280.9 325.7 280.5 323.9C280.3 323.1 279.6 322.7 278.8 322.8C278 323 277.6 323.7 277.7 324.5C278 325.7 277.3 326.5 277 326.9C276.1 327.8 274.8 328.2 273.6 327.9C272.8 327.7 272.1 328.2 271.9 329C271.7 329.8 272.1 330.5 272.9 330.7Z" fill="black"/>
<path d="M275.5 331.6C274.7 331.6 274.1 332.2 274 333C274 333.8 274.6 334.4 275.4 334.5H275.7C279.3 334.5 282.7 331.7 283.4 328.2C283.6 327.4 283 326.7 282.3 326.5C281.5 326.3 280.8 326.9 280.6 327.6C280.2 329.9 277.8 331.8 275.5 331.6ZM280.9 333.2C280.3 333.7 280.3 334.6 280.8 335.2C281.9 336.5 283.3 337.4 285 338C285.2 338.1 285.3 338.1 285.5 338.1C286.1 338.1 286.6 337.8 286.8 337.2C287.1 336.5 286.7 335.6 286 335.4C284.8 334.9 283.8 334.2 283 333.3C282.4 332.7 281.5 332.7 280.9 333.2ZM242.7 345.9C243.2 345.9 243.6 345.9 244.1 345.8C244.9 345.6 245.4 344.9 245.2 344.1C245 343.3 244.3 342.8 243.5 343C242.3 343.3 241 342.9 240.1 342C239.7 341.6 239.1 340.8 239.3 339.6C239.5 338.8 239 338.1 238.2 337.9C237.4 337.7 236.7 338.2 236.5 339C236.1 340.8 236.6 342.7 238 344C239.2 345.2 240.9 345.9 242.7 345.9Z" fill="black"/>
<path d="M241.2 349.6H241.5C242.3 349.6 242.9 348.9 242.9 348.1C242.9 347.3 242.2 346.7 241.4 346.7C239.1 346.8 236.8 345 236.3 342.7C236.1 341.9 235.4 341.4 234.6 341.6C233.8 341.8 233.3 342.5 233.5 343.3C234.2 346.8 237.6 349.6 241.2 349.6ZM231.5 353.2C231.7 353.2 231.8 353.2 232 353.1C233.6 352.5 235 351.5 236.2 350.3C236.7 349.7 236.7 348.8 236.1 348.3C235.5 347.8 234.6 347.8 234.1 348.4C233.3 349.3 232.3 350 231.1 350.5C230.4 350.8 230 351.6 230.3 352.3C230.3 352.9 230.9 353.2 231.5 353.2Z" fill="black"/>
</svg>
