<svg width="20" height="20" viewBox="0 0 20 20" fill="none" xmlns="http://www.w3.org/2000/svg">
<path fill-rule="evenodd" clip-rule="evenodd" d="M12.2961 15.5433C11.5681 15.8448 10.7879 16 10 16C8.4087 16 6.88258 15.3679 5.75736 14.2426C4.63214 13.1174 4 11.5913 4 10C4 8.4087 4.63214 6.88258 5.75736 5.75736C6.88258 4.63214 8.4087 4 10 4C10.7879 4 11.5681 4.15519 12.2961 4.45672C13.0241 4.75825 13.6855 5.20021 14.2426 5.75736C14.7998 6.31451 15.2417 6.97595 15.5433 7.7039C15.8448 8.43185 16 9.21207 16 10C16 10.7879 15.8448 11.5681 15.5433 12.2961C15.2417 13.0241 14.7998 13.6855 14.2426 14.2426C13.6855 14.7998 13.0241 15.2417 12.2961 15.5433ZM14.9497 14.9497C13.637 16.2625 11.8565 17 10 17C8.14348 17 6.36301 16.2625 5.05025 14.9497C3.7375 13.637 3 11.8565 3 10C3 8.14348 3.7375 6.36301 5.05025 5.05025C6.36301 3.7375 8.14348 3 10 3C11.8565 3 13.637 3.7375 14.9497 5.05025C16.2625 6.36301 17 8.14348 17 10C17 11.8565 16.2625 13.637 14.9497 14.9497ZM9.42787 11.5121C9.48413 11.5684 9.56043 11.6 9.64 11.6H10.03C10.0694 11.6 10.1084 11.5922 10.1448 11.5772C10.1812 11.5621 10.2143 11.54 10.2421 11.5121C10.27 11.4843 10.2921 11.4512 10.3072 11.4148C10.3222 11.3784 10.33 11.3394 10.33 11.3V11.24C10.33 10.95 10.37 10.77 10.47 10.6C10.58 10.44 10.76 10.25 11.1 10C11.5 9.71001 11.8 9.41001 12 9.07001C12.2 8.73001 12.3 8.35001 12.3 7.93001V7.92001C12.3029 7.62256 12.2455 7.32762 12.1311 7.05301C12.0168 6.7784 11.848 6.52982 11.6349 6.32231C11.4217 6.1148 11.1688 5.95266 10.8912 5.8457C10.6136 5.73874 10.3173 5.68918 10.02 5.70001C8.7 5.70001 7.8 6.68001 7.7 7.92001C7.69099 7.9641 7.69201 8.00965 7.703 8.0533C7.71398 8.09694 7.73465 8.13755 7.76346 8.17212C7.79227 8.2067 7.82849 8.23434 7.86943 8.25302C7.91038 8.27169 7.955 8.28092 8 8.28001H8.39C8.46622 8.28018 8.53964 8.25133 8.59536 8.19932C8.65108 8.14732 8.68492 8.07606 8.69 8.00001C8.76 7.19001 9.31 6.69001 10.01 6.69001C10.75 6.69001 11.29 7.21001 11.29 7.94001V7.95001C11.29 8.20001 11.24 8.40001 11.12 8.60001C11 8.80001 10.79 9.01001 10.45 9.26001C10.07 9.55001 9.79 9.82001 9.6 10.13C9.41 10.45 9.34 10.8 9.34 11.2V11.3C9.34 11.3796 9.3716 11.4559 9.42787 11.5121ZM9.89 14.3C10.3 14.3 10.58 13.97 10.58 13.58C10.58 13.2 10.3 12.87 9.9 12.87C9.80723 12.87 9.71538 12.8884 9.62979 12.9242C9.5442 12.96 9.46659 13.0125 9.40145 13.0786C9.33632 13.1446 9.28497 13.223 9.25038 13.3091C9.2158 13.3951 9.19867 13.4872 9.2 13.58C9.2 13.97 9.49 14.3 9.89 14.3Z" fill="black"/>
</svg>
