<svg width="20" height="20" viewBox="0 0 20 20" fill="none" xmlns="http://www.w3.org/2000/svg">
<path d="M16.8159 6.60002L13.5159 3.30002C13.3312 3.11161 13.0796 3.00378 12.8159 3.00002H11.6159C11.4771 2.99908 11.3396 3.02705 11.2122 3.08214C11.0848 3.13724 10.9702 3.21825 10.8759 3.32002L10.8359 3.36002C10.1359 4.06002 8.97586 4.06002 8.27586 3.36002L8.22586 3.32002C8.13262 3.21949 8.0197 3.1392 7.89412 3.08415C7.76854 3.0291 7.63297 3.00046 7.49586 3.00002H6.30586C6.17187 2.99924 6.03909 3.02539 5.9154 3.07693C5.79172 3.12846 5.67965 3.20433 5.58586 3.30002L2.28586 6.60002C2.10263 6.78695 2 7.03827 2 7.30002C2 7.56178 2.10263 7.81309 2.28586 8.00002L3.94586 9.66002C4.12439 9.83846 4.36379 9.94278 4.61604 9.95206C4.86828 9.96133 5.11471 9.87487 5.30586 9.71002V15C5.30586 15.2652 5.41121 15.5196 5.59875 15.7071C5.78629 15.8947 6.04064 16 6.30586 16H12.8059C13.0711 16 13.3254 15.8947 13.513 15.7071C13.7005 15.5196 13.8059 15.2652 13.8059 15V9.72002C13.9976 9.8807 14.2426 9.96366 14.4925 9.95256C14.7424 9.94145 14.9791 9.83707 15.1559 9.66002L16.8159 8.01002C16.9096 7.91706 16.984 7.80646 17.0347 7.6846C17.0855 7.56274 17.1117 7.43203 17.1117 7.30002C17.1117 7.16801 17.0855 7.03731 17.0347 6.91545C16.984 6.79359 16.9096 6.68299 16.8159 6.59002V6.60002ZM14.4459 8.95002L12.8059 7.30002V14.99H6.30586V7.30002L4.65586 8.96002L2.99586 7.30002L6.29586 4.00002L6.30586 4.01002V4.00002H7.49586L7.56586 4.07002C7.8269 4.33186 8.13705 4.53962 8.47854 4.68137C8.82002 4.82312 9.18612 4.89609 9.55586 4.89609C9.92559 4.89609 10.2917 4.82312 10.6332 4.68137C10.9747 4.53962 11.2848 4.33186 11.5459 4.07002L11.6059 4.00002H12.8059L16.1059 7.30002L14.4459 8.96002V8.95002Z" fill="black"/>
</svg>
