<svg width="20" height="20" viewBox="0 0 20 20" fill="none" xmlns="http://www.w3.org/2000/svg">
<path d="M18 6.53726C17.9993 6.2933 17.9095 6.05801 17.7474 5.87567C17.5853 5.69333 17.3622 5.57653 17.12 5.54726L12.79 5.00726C12.5306 4.97584 12.2692 5.0472 12.0618 5.20605C11.8543 5.36491 11.7173 5.59865 11.68 5.85726V5.87726C11.569 6.44329 11.3735 6.98941 11.1 7.49726C10.8768 7.97492 10.5425 8.39215 10.1249 8.71402C9.70734 9.03589 9.21873 9.25303 8.7 9.34726C7.48 9.54726 6.51 9.75726 5.75 10.0173C5 10.2773 4.37 10.6073 3.9 11.0873C3.42 11.5873 3.2 12.1873 3.1 12.7873C3 13.3573 3 13.9973 3 14.6673C3 14.9325 3.10536 15.1868 3.29289 15.3744C3.48043 15.5619 3.73478 15.6673 4 15.6673H17C17.2652 15.6673 17.5196 15.5619 17.7071 15.3744C17.8946 15.1868 18 14.9325 18 14.6673V6.53726ZM8.87 10.3373C12.13 9.77726 12.68 5.99726 12.68 5.99726L17.01 6.53726V12.9973H4.08C4.31 11.5573 5.24 10.9373 8.88 10.3273L8.87 10.3373ZM4 14.6573V14.6173L4.01 13.6573L4.03 13.4873H17V14.6573H4Z" fill="black"/>
</svg>
