<svg width="20" height="20" viewBox="0 0 20 20" fill="none" xmlns="http://www.w3.org/2000/svg">
<path d="M10.5 3C10.0404 3 9.58525 3.09053 9.16061 3.26642C8.73597 3.44231 8.35013 3.70012 8.02513 4.02513C7.70012 4.35013 7.44231 4.73597 7.26642 5.16061C7.09053 5.58525 7 6.04037 7 6.5C7 6.95963 7.09053 7.41475 7.26642 7.83939C7.44231 8.26403 7.70012 8.64987 8.02513 8.97487C8.35013 9.29988 8.73597 9.55769 9.16061 9.73358C9.58525 9.90947 10.0404 10 10.5 10C11.4283 10 12.3185 9.63125 12.9749 8.97487C13.6313 8.3185 14 7.42826 14 6.5C14 5.57174 13.6313 4.6815 12.9749 4.02513C12.3185 3.36875 11.4283 3 10.5 3ZM8 6.5C8 5.83696 8.26339 5.20107 8.73223 4.73223C9.20107 4.26339 9.83696 4 10.5 4C11.163 4 11.7989 4.26339 12.2678 4.73223C12.7366 5.20107 13 5.83696 13 6.5C13 7.16304 12.7366 7.79893 12.2678 8.26777C11.7989 8.73661 11.163 9 10.5 9C9.83696 9 9.20107 8.73661 8.73223 8.26777C8.26339 7.79893 8 7.16304 8 6.5ZM10.5 11C8.63 11 6.98 11.17 5.8 11.98C4.59 12.83 4 14.28 4 16.5V17H17V16.5C17 14.28 16.41 12.83 15.2 11.98C14.02 11.17 12.37 11 10.5 11ZM14.62 12.8C15.39 13.34 15.91 14.26 15.99 16H5C5.08 14.26 5.6 13.34 6.37 12.8C7.26 12.19 8.61 12 10.49 12C12.37 12 13.72 12.19 14.61 12.8H14.62Z" fill="black"/>
</svg>
