<svg width="20" height="20" viewBox="0 0 20 20" fill="none" xmlns="http://www.w3.org/2000/svg">
<path d="M9.50013 3C9.71013 3 9.90013 3.13 9.97013 3.33L11.5901 7.87L16.5101 7.97C16.6142 7.97205 16.7151 8.00655 16.7986 8.06868C16.8822 8.13081 16.9442 8.21746 16.9762 8.31656C17.0081 8.41565 17.0083 8.52224 16.9767 8.62146C16.9452 8.72067 16.8834 8.80756 16.8001 8.87L12.8801 11.77L14.3001 16.35C14.3284 16.4477 14.3262 16.5517 14.2938 16.6481C14.2615 16.7445 14.2005 16.8288 14.119 16.8896C14.0375 16.9505 13.9394 16.985 13.8377 16.9887C13.7361 16.9923 13.6358 16.9649 13.5501 16.91L9.50013 14.17L5.45013 16.9C5.36449 16.9549 5.26416 16.9823 5.16252 16.9787C5.06088 16.975 4.96277 16.9405 4.88128 16.8796C4.79979 16.8188 4.73879 16.7345 4.70642 16.6381C4.67406 16.5417 4.67186 16.4377 4.70013 16.34L6.12013 11.76L2.20013 8.87C2.11682 8.80756 2.05508 8.72067 2.02352 8.62146C1.99196 8.52224 1.99217 8.41565 2.0241 8.31656C2.05603 8.21746 2.11809 8.13081 2.20164 8.06868C2.28518 8.00655 2.38604 7.97205 2.49013 7.97L7.41013 7.87L9.03013 3.33C9.06507 3.23336 9.12893 3.14984 9.21303 3.09079C9.29712 3.03175 9.39737 3.00004 9.50013 3ZM9.50013 5L8.24013 8.52C8.20579 8.61505 8.14345 8.69746 8.06133 8.75637C7.97921 8.81529 7.88117 8.84793 7.78013 8.85L3.98013 8.93L7.00013 11.17C7.08345 11.2317 7.14554 11.3178 7.17779 11.4163C7.21004 11.5148 7.21085 11.621 7.18013 11.72L6.08013 15.28L9.22013 13.15C9.30281 13.0941 9.40033 13.0642 9.50013 13.0642C9.59993 13.0642 9.69745 13.0941 9.78013 13.15L12.9301 15.28L11.8301 11.72C11.7983 11.622 11.7976 11.5165 11.828 11.4181C11.8585 11.3196 11.9186 11.233 12.0001 11.17L15.0201 8.94L11.2201 8.86C11.1191 8.85793 11.021 8.82528 10.9389 8.76637C10.8568 8.70746 10.7945 8.62505 10.7601 8.53L9.50013 4.99V5Z" fill="black"/>
</svg>
