<svg width="20" height="20" viewBox="0 0 20 20" fill="none" xmlns="http://www.w3.org/2000/svg">
<path d="M16.136 6.97901L16.139 6.97501C16.3981 6.67333 16.5268 6.28107 16.4967 5.88452C16.4666 5.48798 16.2802 5.11963 15.9785 4.86051C15.8291 4.73221 15.6559 4.63459 15.4688 4.57322C15.2817 4.51185 15.0844 4.48793 14.888 4.50284C14.4915 4.53294 14.1231 4.71933 13.864 5.02101L7.91901 11.798L6.06101 9.93901C5.92174 9.79975 5.75641 9.68927 5.57444 9.6139C5.39248 9.53853 5.19746 9.49974 5.00051 9.49974C4.80355 9.49974 4.60853 9.53853 4.42657 9.6139C4.24461 9.68927 4.07927 9.79975 3.94001 9.93901C3.80074 10.0783 3.69027 10.2436 3.6149 10.4256C3.53953 10.6075 3.50073 10.8026 3.50073 10.9995C3.50073 11.1965 3.53953 11.3915 3.6149 11.5735C3.69027 11.7554 3.80074 11.9207 3.94001 12.06L6.93901 15.06C7.22801 15.35 7.61401 15.5 8.03901 15.499H8.05801C8.26425 15.491 8.46662 15.4405 8.65246 15.3507C8.83829 15.2608 9.00359 15.1336 9.13801 14.977L16.136 6.97901Z" fill="#108043" stroke="white"/>
</svg>
