<svg width="20" height="20" viewBox="0 0 20 20" fill="none" xmlns="http://www.w3.org/2000/svg">
<path d="M17.14 7.42L11 5.62V4.5C11 4.36739 10.9473 4.24021 10.8536 4.14645C10.7598 4.05268 10.6326 4 10.5 4H2.5C2.36739 4 2.24021 4.05268 2.14645 4.14645C2.05268 4.24021 2 4.36739 2 4.5V13C2 13.28 2.22 13.5 2.5 13.5H3.77C3.88863 13.9479 4.15204 14.3439 4.51921 14.6265C4.88637 14.9091 5.33668 15.0623 5.8 15.0623C6.26332 15.0623 6.71363 14.9091 7.08079 14.6265C7.44796 14.3439 7.71137 13.9479 7.83 13.5H11.77C11.8886 13.9479 12.152 14.3439 12.5192 14.6265C12.8864 14.9091 13.3367 15.0623 13.8 15.0623C14.2633 15.0623 14.7136 14.9091 15.0808 14.6265C15.448 14.3439 15.7114 13.9479 15.83 13.5H17C17.1326 13.5 17.2598 13.4473 17.3536 13.3536C17.4473 13.2598 17.5 13.1326 17.5 13V7.9C17.5 7.79182 17.4649 7.68655 17.4 7.6C17.3351 7.51345 17.2439 7.45029 17.14 7.42ZM5.8 14.1C5.50826 14.1 5.22847 13.9841 5.02218 13.7778C4.81589 13.5715 4.7 13.2917 4.7 13C4.7 12.7083 4.81589 12.4285 5.02218 12.2222C5.22847 12.0159 5.50826 11.9 5.8 11.9C6.09174 11.9 6.37153 12.0159 6.57782 12.2222C6.78411 12.4285 6.9 12.7083 6.9 13C6.9 13.2917 6.78411 13.5715 6.57782 13.7778C6.37153 13.9841 6.09174 14.1 5.8 14.1ZM7.83 12.5C7.71137 12.0521 7.44796 11.6561 7.08079 11.3735C6.71363 11.0909 6.26332 10.9377 5.8 10.9377C5.33668 10.9377 4.88637 11.0909 4.51921 11.3735C4.15204 11.6561 3.88863 12.0521 3.77 12.5H3V5H10V12.5H7.83ZM13.8 14.1C13.5083 14.1 13.2285 13.9841 13.0222 13.7778C12.8159 13.5715 12.7 13.2917 12.7 13C12.7 12.7083 12.8159 12.4285 13.0222 12.2222C13.2285 12.0159 13.5083 11.9 13.8 11.9C14.0917 11.9 14.3715 12.0159 14.5778 12.2222C14.7841 12.4285 14.9 12.7083 14.9 13C14.9 13.2917 14.7841 13.5715 14.5778 13.7778C14.3715 13.9841 14.0917 14.1 13.8 14.1ZM16.5 12.5H15.83C15.7114 12.0521 15.448 11.6561 15.0808 11.3735C14.7136 11.0909 14.2633 10.9377 13.8 10.9377C13.3367 10.9377 12.8864 11.0909 12.5192 11.3735C12.152 11.6561 11.8886 12.0521 11.77 12.5H11V6.67L16.5 8.27V12.5Z" fill="black"/>
</svg>
