<svg width="20" height="20" viewBox="0 0 20 20" fill="none" xmlns="http://www.w3.org/2000/svg">
<path fill-rule="evenodd" clip-rule="evenodd" d="M4.66724 7.93978C4.66655 7.66364 4.88984 7.43922 5.16598 7.43853L10.6996 7.42464C10.9758 7.42395 11.2002 7.64724 11.2009 7.92339C11.2016 8.19953 10.9783 8.42395 10.7021 8.42464L5.16849 8.43852C4.89235 8.43922 4.66793 8.21592 4.66724 7.93978Z" fill="black"/>
<path fill-rule="evenodd" clip-rule="evenodd" d="M7.92577 4.66463C8.20191 4.66394 8.42633 4.88723 8.42703 5.16337L8.44091 10.697C8.4416 10.9732 8.21831 11.1976 7.94216 11.1983C7.66602 11.199 7.4416 10.9757 7.44091 10.6995L7.42703 5.16588C7.42634 4.88974 7.64963 4.66532 7.92577 4.66463Z" fill="black"/>
<path fill-rule="evenodd" clip-rule="evenodd" d="M12.8324 3.03011C10.1255 0.323295 5.73693 0.323295 3.03011 3.03011C0.323295 5.73693 0.323295 10.1256 3.03011 12.8324C5.73693 15.5392 10.1255 15.5392 12.8324 12.8324C15.5392 10.1256 15.5392 5.73693 12.8324 3.03011ZM2.32301 2.32301C5.42035 -0.774337 10.4421 -0.774337 13.5395 2.32301C16.6101 5.39361 16.6366 10.3556 13.619 13.4588L18.2473 18.0871C18.4426 18.2824 18.4426 18.599 18.2473 18.7943C18.0521 18.9895 17.7355 18.9895 17.5402 18.7943L12.8778 14.1318C9.76383 16.6223 5.20839 16.4249 2.32301 13.5395C-0.774336 10.4421 -0.774336 5.42035 2.32301 2.32301Z" fill="black"/>
</svg>
